<mxfile host="app.diagrams.net" agent="Mozilla/5.0 (Windows NT 10.0; Win64; x64) AppleWebKit/537.36 (KHTML, like Gecko) Chrome/136.0.0.0 Safari/537.36" version="27.0.3">
  <diagram name="Pagină-1" id="jkc4WPEwuXoEOtZ2FIh5">
    <mxGraphModel dx="2388" dy="840" grid="1" gridSize="10" guides="1" tooltips="1" connect="1" arrows="1" fold="1" page="1" pageScale="1" pageWidth="827" pageHeight="1169" math="0" shadow="0">
      <root>
        <mxCell id="0" />
        <mxCell id="1" parent="0" />
        <UserObject label="" plantUmlData="{&quot;data&quot;:&quot;@startuml Deployment_Component_Diagram\n&#39; ===== Styling =====\nskinparam componentStyle rectangle\nskinparam roundcorner 8\nskinparam shadowing true\nskinparam wrapWidth 220\nskinparam defaultTextAlignment center\nskinparam maxMessageSize 120\n\n&#39; ===== Actors =====\nactor \&quot;Client\&quot; as Client\nactor \&quot;Host (Gazdă)\&quot; as Host\nactor \&quot;Admin\&quot; as Admin\n\n&#39; ===== Front‑end =====\nnode Browser {\n  component \&quot;React SPA\\nReact‑Router, Context, hooks\&quot; as React\n  cloud \&quot;MetaMask\&quot; as MetaMask\n}\n\n&#39; ===== Back‑end (Express) =====\nnode \&quot;Backend API\&quot; as Backend {\n  [Express Server] as Server\n  component \&quot;Controllers\\n(Cazari, Destinatii, Rezervari, User, Recenzii, Plata)\&quot; as Ctrls\n  component \&quot;Middleware\\nJWT Auth, Multer, Rate‑Limit\&quot; as MW\n  database \&quot;MongoDB Atlas\&quot; as Mongo\n  component \&quot;Stripe SDK + Webhook\&quot; as Stripe\n  component \&quot;Nodemailer + Ethereal\&quot; as Mailer\n  folder \&quot;Uploads folder\&quot; as Uploads\n}\n\n&#39; ===== Blockchain stack =====\ncloud \&quot;Ganache local chain\&quot; as Ganache {\n  component \&quot;PaymentContract.sol\\n(payable, Ownable)\&quot; as Contract\n  database \&quot;contractData.json\\nABI + Address\&quot; as ABI\n}\n\n&#39; ===== External services =====\ncloud \&quot;CoinGecko Price API\&quot; as CoinGecko\n\n&#39; ===== Links =====\n&#39; ––– Front‑end interactions\nClient --&gt; React : UI / Auth\nReact --&gt; MetaMask : sign tx (ethers.js)\nReact --&gt; CoinGecko : GET ETH price (RON)\nReact --&gt; Stripe : createCheckoutSession JS SDK\nReact --&gt; Server : REST /api/* (JWT)\n\n&#39; ––– Server internals\nServer --&gt; MW\nServer --&gt; Ctrls\nCtrls --&gt; Mongo\nCtrls --&gt; Uploads\nCtrls --&gt; Mailer : send confirmation\nCtrls --&gt; Stripe : verify webhook\nCtrls --&gt; Contract : ethers.js via ABI\n\n&#39; ––– Blockchain path\nMetaMask --&gt; Contract : tx \&quot;pay()\&quot;\nContract --&gt; ABI : ABI &amp; address export\n\n@enduml&quot;,&quot;format&quot;:&quot;svg&quot;}" id="VQlijDAAtIcMO-mg8-n--3">
          <mxCell style="shape=image;noLabel=1;verticalAlign=top;aspect=fixed;imageAspect=0;image=data:image/svg+xml,PHN2ZyB4bWxucz0iaHR0cDovL3d3dy53My5vcmcvMjAwMC9zdmciIHhtbG5zOnhsaW5rPSJodHRwOi8vd3d3LnczLm9yZy8xOTk5L3hsaW5rIiBjb250ZW50U3R5bGVUeXBlPSJ0ZXh0L2NzcyIgZGF0YS1kaWFncmFtLXR5cGU9IkRFU0NSSVBUSU9OIiBoZWlnaHQ9Ijg2NnB4IiBwcmVzZXJ2ZUFzcGVjdFJhdGlvPSJub25lIiBzdHlsZT0id2lkdGg6MTE4MHB4O2hlaWdodDo4NjZweDtiYWNrZ3JvdW5kOiNGRkZGRkY7IiB2ZXJzaW9uPSIxLjEiIHZpZXdCb3g9IjAgMCAxMTgwIDg2NiIgd2lkdGg9IjExODBweCIgem9vbUFuZFBhbj0ibWFnbmlmeSI+PGRlZnM+PGZpbHRlciBoZWlnaHQ9IjMwMCUiIGlkPSJmYWVpd3lvN3hpaWF4IiB3aWR0aD0iMzAwJSIgeD0iLTEiIHk9Ii0xIj48ZmVHYXVzc2lhbkJsdXIgcmVzdWx0PSJibHVyT3V0IiBzdGREZXZpYXRpb249IjIiLz48ZmVDb2xvck1hdHJpeCBpbj0iYmx1ck91dCIgcmVzdWx0PSJibHVyT3V0MiIgdHlwZT0ibWF0cml4IiB2YWx1ZXM9IjAgMCAwIDAgMCAwIDAgMCAwIDAgMCAwIDAgMCAwIDAgMCAwIC40IDAiLz48ZmVPZmZzZXQgZHg9IjQiIGR5PSI0IiBpbj0iYmx1ck91dDIiIHJlc3VsdD0iYmx1ck91dDMiLz48ZmVCbGVuZCBpbj0iU291cmNlR3JhcGhpYyIgaW4yPSJibHVyT3V0MyIgbW9kZT0ibm9ybWFsIi8+PC9maWx0ZXI+PC9kZWZzPjxnPjwhLS1jbHVzdGVyIEJyb3dzZXItLT48ZyBjbGFzcz0iY2x1c3RlciIgZGF0YS1lbnRpdHk9IkJyb3dzZXIiIGRhdGEtc291cmNlLWxpbmU9IjE1IiBkYXRhLXVpZD0iZW50MDAwNSIgaWQ9ImNsdXN0ZXJfQnJvd3NlciI+PHBvbHlnb24gZmlsbD0ibm9uZSIgZmlsdGVyPSJ1cmwoI2ZhZWl3eW83eGlpYXgpIiBwb2ludHM9IjE2LDE1NC41LDI2LDE0NC41LDI2NCwxNDQuNSwyNjQsMzkxLjUsMjU0LDQwMS41LDE2LDQwMS41LDE2LDE1NC41IiBzdHlsZT0ic3Ryb2tlOiMxODE4MTg7c3Ryb2tlLXdpZHRoOjE7Ii8+PGxpbmUgc3R5bGU9InN0cm9rZTojMTgxODE4O3N0cm9rZS13aWR0aDoxOyIgeDE9IjI1NCIgeDI9IjI2NCIgeTE9IjE1NC41IiB5Mj0iMTQ0LjUiLz48bGluZSBzdHlsZT0ic3Ryb2tlOiMxODE4MTg7c3Ryb2tlLXdpZHRoOjE7IiB4MT0iMTYiIHgyPSIyNTQiIHkxPSIxNTQuNSIgeTI9IjE1NC41Ii8+PGxpbmUgc3R5bGU9InN0cm9rZTojMTgxODE4O3N0cm9rZS13aWR0aDoxOyIgeDE9IjI1NCIgeDI9IjI1NCIgeTE9IjE1NC41IiB5Mj0iNDAxLjUiLz48dGV4dCBmaWxsPSIjMDAwMDAwIiBmb250LWZhbWlseT0ic2Fucy1zZXJpZiIgZm9udC1zaXplPSIxNCIgZm9udC13ZWlnaHQ9ImJvbGQiIGxlbmd0aEFkanVzdD0ic3BhY2luZyIgdGV4dExlbmd0aD0iNDkiIHg9IjExMS41IiB5PSIxNzAuNzM0NCI+QnJvd3NlcjwvdGV4dD48L2c+PCEtLWNsdXN0ZXIgQmFja2VuZC0tPjxnIGNsYXNzPSJjbHVzdGVyIiBkYXRhLWVudGl0eT0iQmFja2VuZCIgZGF0YS1zb3VyY2UtbGluZT0iMjEiIGRhdGEtdWlkPSJlbnQwMDA4IiBpZD0iY2x1c3Rlcl9CYWNrZW5kIj48cG9seWdvbiBmaWxsPSJub25lIiBmaWx0ZXI9InVybCgjZmFlaXd5bzd4aWlheCkiIHBvaW50cz0iNDYwLDMxNy41LDQ3MCwzMDcuNSwxMTYzLDMwNy41LDExNjMsNjkzLDExNTMsNzAzLDQ2MCw3MDMsNDYwLDMxNy41IiBzdHlsZT0ic3Ryb2tlOiMxODE4MTg7c3Ryb2tlLXdpZHRoOjE7Ii8+PGxpbmUgc3R5bGU9InN0cm9rZTojMTgxODE4O3N0cm9rZS13aWR0aDoxOyIgeDE9IjExNTMiIHgyPSIxMTYzIiB5MT0iMzE3LjUiIHkyPSIzMDcuNSIvPjxsaW5lIHN0eWxlPSJzdHJva2U6IzE4MTgxODtzdHJva2Utd2lkdGg6MTsiIHgxPSI0NjAiIHgyPSIxMTUzIiB5MT0iMzE3LjUiIHkyPSIzMTcuNSIvPjxsaW5lIHN0eWxlPSJzdHJva2U6IzE4MTgxODtzdHJva2Utd2lkdGg6MTsiIHgxPSIxMTUzIiB4Mj0iMTE1MyIgeTE9IjMxNy41IiB5Mj0iNzAzIi8+PHRleHQgZmlsbD0iIzAwMDAwMCIgZm9udC1mYW1pbHk9InNhbnMtc2VyaWYiIGZvbnQtc2l6ZT0iMTQiIGZvbnQtd2VpZ2h0PSJib2xkIiBsZW5ndGhBZGp1c3Q9InNwYWNpbmciIHRleHRMZW5ndGg9Ijc3IiB4PSI3NjkiIHk9IjMzMy43MzQ0Ij5CYWNrZW5kIEFQSTwvdGV4dD48L2c+PCEtLWNsdXN0ZXIgR2FuYWNoZS0tPjxnIGNsYXNzPSJjbHVzdGVyIiBkYXRhLWVudGl0eT0iR2FuYWNoZSIgZGF0YS1zb3VyY2UtbGluZT0iMzIiIGRhdGEtdWlkPSJlbnQwMDE2IiBpZD0iY2x1c3Rlcl9HYW5hY2hlIj48cGF0aCBkPSJNMjExLjAzOTQsNjEyLjc4OTMgQzIxNC45NzczLDYwMy41MDAxIDIyMy4xMzEyLDYwMy40NTAxIDIyOC42MTc3LDYxMS4xOTA5IEMyMzIuNzQ3NCw2MDEuMTkxNiAyNDAuODM4OSw2MDEuMDM5NSAyNDcuMTk3LDYwOC44Njg3IEMyNTIuNTkxMSw1OTkuNzA3NCAyNjEuNTMzOSw1OTYuNjAwNiAyNjguMzE0LDYwNy40MDI1IEMyNzMuNTQ5Myw1OTcuMjU0NCAyODEuOTU5Nyw1OTYuMTIyOCAyODguNzcwOSw2MDUuNzc0MSBDMjk1LjQ2MTksNTk4LjA2MTYgMzAwLjc4MjQsNTk5LjAwNDIgMzA2LjAxODksNjA3LjMzNzYgQzMxMS45OTMxLDU5OS4xMTkxIDMyMC43ODMxLDU5OS43MTYyIDMyNS44MzI1LDYwOC40MjAzIEMzMzIuNTA2Niw1OTkuMzA5MSAzNDEuNjc5Myw2MDAuNjcwOSAzNDQuNjYxNSw2MTEuODQ2OCBDMzU1Ljc4NCw1OTkuODE3OCAzNjUuODIxMiw2MDEuODM3MiAzNzEsNjE3LjUgQzM3Mi40NDgsNjE3LjcxMjQgMzczLjA1Niw2MTguOTU3IDM3Mi4wNzg4LDYyMC4xNTQ5IEMzNzguNzM2OSw2MjQuNDc4NiAzNzkuODUzMSw2MzEuMTU2NiAzNzIuODE2Miw2MzYuMTEzIEMzODAuNTQ1LDYzOS4yMjMzIDM4MC43MDQ5LDY0My43NTIxIDM3NS43NzQ0LDY0OS42MzI0IEMzODQuNDUwNCw2NTMuODc3MSAzODQuNDQ3OSw2NjAuODc3MiAzNzYuMjc3LDY2NS42NTA1IEMzODMuNjgzOCw2NzAuNzEwNSAzODQuODUxMyw2NzYuNDk5NCAzNzcuNDgzNiw2ODIuNjEwNCBDMzg1LjYyNDksNjg2LjA3ODUgMzg1Ljk4MjIsNjkxLjkyMjggMzc5Ljc2NTQsNjk3LjU3OTYgQzM4Ny43MjczLDcwMC44Njk1IDM4OC41OTQyLDcwNy4wNjEzIDM4MS41NTk4LDcxMi4xOTI3IEMzOTEuNzYxLDcxNi41Njc3IDM5Mi4xODEsNzI0LjAyMjcgMzgzLjQyOTEsNzMwLjM0OSBDMzg5LjY0ODksNzM1LjgyMSAzODguNDMzOSw3NDIuMjgzNyAzODAuNDgzMyw3NDQuODgzOSBDMzg4LjU3NDUsNzUwLjMxOTQgMzg2LjE3NzUsNzU3Ljg4NjcgMzc4LjYzNDIsNzYxLjU5MTkgQzM4Ni4xNTE5LDc2NS4xNTU1IDM4NS45NjEzLDc3MC43Mjc1IDM3OS41NDIyLDc3NS4yMTk3IEMzODYuOTYxLDc4MC4yODUxIDM4NS44NDIsNzg4LjM2NTkgMzc4LjAzMjcsNzkyLjA2NjggQzM4NS4xMjc1LDc5OC42NjI1IDM4My42NTg2LDgwMy41NTkxIDM3Ni4yNTQ5LDgwOC41OTUzIEMzODIuMTUzOCw4MTMuNjk3MiAzODEuMTI4NSw4MjAuNTIxMyAzNzMuNDI5Niw4MjIuOTQ2MiBDMzc5Ljc2NSw4MzMuNDA4NSAzNzguODE4Niw4NDMuNTgyNSAzNjQsODQ1IEMzNjUuMTc5Miw4NDQuMzQyNyAzNjUuODE0Myw4NDUuMDcyMSAzNjUuODE4Nyw4NDYuMTk4MiBDMzU5Ljk0NzQsODU2LjgwMjQgMzU0LjA5MTksODU2Ljk1NDUgMzQ2LjQyMzIsODQ3Ljk3ODUgQzM0MC43NjE5LDg1NS44MjU2IDMzMi41MzE0LDg1OC4xOTg5IDMyNy4yMTM3LDg0Ny42MjA0IEMzMjEuNjAzMSw4NTUuOTMzMyAzMTIuMDYyMSw4NTUuMzMwMiAzMDYuOTU3OSw4NDcuMDA0IEMzMDEuNDUwMSw4NTcuOTU5OCAyOTMuOTg2LDg1OC41MTkzIDI4Ni41MTE2LDg0OC45NjQ1IEMyODEuMzY2OCw4NTUuNDc5IDI3My4yODExLDg1NC43MDAyIDI2OS4zOTcxLDg0Ny40MDIzIEMyNjMuNTM2LDg1Ny41MDQ1IDI1My42NzE5LDg1OC40OTQ4IDI0Ny4yOTQ4LDg0Ny45NTQ4IEMyNDEuNzQ1Niw4NTYuNDY1MiAyMzUuNzE2Nyw4NTYuOTc0MyAyMjkuNjUxNiw4NDguNDkwNCBDMjE3LjI1MzUsODU5LjA2NjYgMjAzLjUyODUsODU0LjM4IDIwMSw4MzggQzIwMi4yNTU0LDgzNi44MDU1IDIwMy4yNDU3LDgzNy4xMzAyIDIwMy45NTA4LDgzOC42MDc3IEMxOTYuNjI0LDgzNS4xNzIzIDE5NC44Mzc1LDgzMC41NzMgMjAxLjIyNjQsODI0LjQ5MDYgQzE5My4yMzcxLDgxOC44ODA0IDE5Mi41OTk5LDgxMi4zOTkyIDIwMS4wNzg2LDgwNi42NTI2IEMxOTUuMjEzNSw4MDIuMTA1OCAxOTUuMDMyMiw3OTQuMjkwMSAyMDIuNjM0MSw3OTEuMDg5MyBDMTk1LjYwODcsNzg4LjQ3NzcgMTk0LjYwNDEsNzgxLjc5NDUgMjAwLjMwNzYsNzc3LjA3MDUgQzE5Mi45Nzc2LDc3MS41MDQyIDE5Mi45ODM4LDc2NC44OTcgMjAyLjAxMTksNzYxLjA3MzYgQzE5NC45MTAxLDc1OC4yNDgyIDE5My4xNjMxLDc1MS41MzU3IDE5OS42MTIsNzQ2LjQ4MTYgQzE5Mi40MzM2LDczOS42NzIzIDE5MS43MTMyLDczMy43Mzc1IDIwMS4xODM2LDcyOC4zNzMxIEMxOTMuMjk1Niw3MjUuMDI1MiAxOTMuMjkxNiw3MTkuOTY0MyAxOTguODE3Myw3MTQuMzUyNSBDMTkxLjIyMzQsNzA5LjUyOTcgMTkxLjM4MDgsNzAxLjEyMDYgMTk5Ljc3NTUsNjk3LjE5MDYgQzE5MS44MTE4LDY5MS42NTA5IDE5Mi43NTA2LDY4Ni40MTg0IDIwMC41ODI0LDY4MS43MDE1IEMxOTMuNTc1NCw2NzYuNTc1NyAxOTUuNDQ5NSw2NzAuMjA0IDIwMi4yMjc2LDY2Ni41Nzc4IEMxOTMuNjQxOSw2NjMuNDQ2MiAxOTIuNzQwNyw2NTYuNzU5NyAyMDAuMzIwNCw2NTEuNTczNCBDMTkyLjYwNDcsNjQ0LjQ4NzMgMTk0LjkxNTEsNjM5LjQ4NDEgMjAzLjAwNDMsNjM0Ljk0OTggQzE5MS41MzI0LDYyNC40NDcyIDE5My4zODgsNjE1LjY3MyAyMDgsNjEwLjUgQzIxMC4xMDUzLDYwOS44MzIzIDIxMS4xOTc4LDYxMC40NTE2IDIxMS4wMzk0LDYxMi43ODkzIiBmaWxsPSJub25lIiBmaWx0ZXI9InVybCgjZmFlaXd5bzd4aWlheCkiIHN0eWxlPSJzdHJva2U6IzE4MTgxODtzdHJva2Utd2lkdGg6MTsiLz48dGV4dCBmaWxsPSIjMDAwMDAwIiBmb250LWZhbWlseT0ic2Fucy1zZXJpZiIgZm9udC1zaXplPSIxNCIgZm9udC13ZWlnaHQ9ImJvbGQiIGxlbmd0aEFkanVzdD0ic3BhY2luZyIgdGV4dExlbmd0aD0iMTMzIiB4PSIyMTkuNSIgeT0iNjI4LjczNDQiPkdhbmFjaGUgbG9jYWwgY2hhaW48L3RleHQ+PC9nPjwhLS1lbnRpdHkgUmVhY3QtLT48ZyBjbGFzcz0iZW50aXR5IiBkYXRhLWVudGl0eT0iUmVhY3QiIGRhdGEtc291cmNlLWxpbmU9IjE2IiBkYXRhLXVpZD0iZW50MDAwNiIgaWQ9ImVudGl0eV9SZWFjdCI+PHJlY3QgZmlsbD0iI0YxRjFGMSIgZmlsdGVyPSJ1cmwoI2ZhZWl3eW83eGlpYXgpIiBoZWlnaHQ9IjQ5Ljk2ODgiIHJ4PSI0IiByeT0iNCIgc3R5bGU9InN0cm9rZTojMTgxODE4O3N0cm9rZS13aWR0aDowLjU7IiB3aWR0aD0iMjE2IiB4PSIzMiIgeT0iMTgyLjUiLz48dGV4dCBmaWxsPSIjMDAwMDAwIiBmb250LWZhbWlseT0ic2Fucy1zZXJpZiIgZm9udC1zaXplPSIxNCIgbGVuZ3RoQWRqdXN0PSJzcGFjaW5nIiB0ZXh0TGVuZ3RoPSIzNSIgeD0iMTA4LjUiIHk9IjIwNS43MzQ0Ij5SZWFjdDwvdGV4dD48dGV4dCBmaWxsPSIjMDAwMDAwIiBmb250LWZhbWlseT0ic2Fucy1zZXJpZiIgZm9udC1zaXplPSIxNCIgbGVuZ3RoQWRqdXN0PSJzcGFjaW5nIiB0ZXh0TGVuZ3RoPSI3IiB4PSIxNDMuNSIgeT0iMjA1LjczNDQiPiYjMTYwOzwvdGV4dD48dGV4dCBmaWxsPSIjMDAwMDAwIiBmb250LWZhbWlseT0ic2Fucy1zZXJpZiIgZm9udC1zaXplPSIxNCIgbGVuZ3RoQWRqdXN0PSJzcGFjaW5nIiB0ZXh0TGVuZ3RoPSIyMSIgeD0iMTUwLjUiIHk9IjIwNS43MzQ0Ij5TUEE8L3RleHQ+PHRleHQgZmlsbD0iIzAwMDAwMCIgZm9udC1mYW1pbHk9InNhbnMtc2VyaWYiIGZvbnQtc2l6ZT0iMTQiIGxlbmd0aEFkanVzdD0ic3BhY2luZyIgdGV4dExlbmd0aD0iOTEiIHg9IjQyIiB5PSIyMjAuNzE4OCI+UmVhY3QmIzgyMDk7Um91dGVyLDwvdGV4dD48dGV4dCBmaWxsPSIjMDAwMDAwIiBmb250LWZhbWlseT0ic2Fucy1zZXJpZiIgZm9udC1zaXplPSIxNCIgbGVuZ3RoQWRqdXN0PSJzcGFjaW5nIiB0ZXh0TGVuZ3RoPSI3IiB4PSIxMzMiIHk9IjIyMC43MTg4Ij4mIzE2MDs8L3RleHQ+PHRleHQgZmlsbD0iIzAwMDAwMCIgZm9udC1mYW1pbHk9InNhbnMtc2VyaWYiIGZvbnQtc2l6ZT0iMTQiIGxlbmd0aEFkanVzdD0ic3BhY2luZyIgdGV4dExlbmd0aD0iNTYiIHg9IjE0MCIgeT0iMjIwLjcxODgiPkNvbnRleHQsPC90ZXh0Pjx0ZXh0IGZpbGw9IiMwMDAwMDAiIGZvbnQtZmFtaWx5PSJzYW5zLXNlcmlmIiBmb250LXNpemU9IjE0IiBsZW5ndGhBZGp1c3Q9InNwYWNpbmciIHRleHRMZW5ndGg9IjciIHg9IjE5NiIgeT0iMjIwLjcxODgiPiYjMTYwOzwvdGV4dD48dGV4dCBmaWxsPSIjMDAwMDAwIiBmb250LWZhbWlseT0ic2Fucy1zZXJpZiIgZm9udC1zaXplPSIxNCIgbGVuZ3RoQWRqdXN0PSJzcGFjaW5nIiB0ZXh0TGVuZ3RoPSIzNSIgeD0iMjAzIiB5PSIyMjAuNzE4OCI+aG9va3M8L3RleHQ+PC9nPjwhLS1lbnRpdHkgTWV0YU1hc2stLT48ZyBjbGFzcz0iZW50aXR5IiBkYXRhLWVudGl0eT0iTWV0YU1hc2siIGRhdGEtc291cmNlLWxpbmU9IjE3IiBkYXRhLXVpZD0iZW50MDAwNyIgaWQ9ImVudGl0eV9NZXRhTWFzayI+PHBhdGggZD0iTTE1MS42MDkyLDM0OS45NTU5IEMxNTQuMjg3NywzNDQuNDAwNSAxNTguOTE0NywzNDIuNDYxNCAxNjMuMjE3MiwzNDguMzAxNyBDMTY3LjgyOTMsMzQzLjI0NDUgMTcyLjIzMjEsMzQyLjg1NDMgMTc1LjU5MDgsMzQ5LjYxNDEgQzE3OC45Nzc5LDM0NC4zMDk3IDE4My41NDA2LDM0My43MDQxIDE4Ny4yNjQyLDM0OS4yNTIxIEMxOTAuNzc4OSwzNDQuNzUxIDE5NC41MTgsMzQ0LjUzMSAxOTcuODk4OCwzNDkuNDA0IEMyMDEuNzUyNywzNDIuODEzMSAyMDUuODQyNSwzNDIuNzk1NSAyMTAuNDEyOSwzNDguNjg1NiBDMjEzLjQwOSwzNDMuMjc4MiAyMTguNzg5OCwzNDMuOTc3NiAyMjEuNDM3OSwzNDkuMDUxNSBDMjMwLjg1ODcsMzUxLjAwMjggMjM0Ljk3NzQsMzU1LjY5NjMgMjI5LjU4ODksMzY1LjE0NzEgQzIzNC4zOTk4LDM3Mi44ODEzIDIzMC4wMzQ4LDM3OS4wODk1IDIyMS4zMDYyLDM3OC4yOTMgQzIyMC4xNDMsMzg0Ljk3NzMgMjE0LjYwMywzODYuMjk2IDIxMC4xODIzLDM4MS40MzA0IEMyMDcuNzYzNywzODYuNTU2NiAyMDIuMDk3OSwzODcuNzE0MyAxOTguNTE1NiwzODIuNzggQzE5NS43ODY5LDM4OC4xNTA5IDE5MC45MjQ2LDM4OS45NDggMTg2LjY0NTUsMzg0LjQ3NzYgQzE4MS45NDYsMzg5LjAxMTYgMTc4LjA3NTYsMzg5LjA2OTYgMTc1LjE1MDgsMzgyLjYyMDMgQzE3MC45MTA0LDM4OC4xNzU0IDE2Ni40NDYzLDM4Ny40NTEzIDE2My44NDczLDM4MS4wNjY1IEMxNTkuOTAwNiwzODUuNzUwNyAxNTQuODMyMSwzODQuMjMwNiAxNTMuMTkyNSwzNzguNjY3NiBDMTQyLjg5OTYsMzc4LjQ1MzMgMTQwLjA0NTIsMzcxLjc2NzUgMTQ1LjQxMTksMzYzLjUxMzIgQzE0MC45NzY2LDM1NS44ODI2IDE0My4wMzc5LDM1MS42NDA5IDE1MS42MDkyLDM0OS45NTU5IiBmaWxsPSIjRjFGMUYxIiBmaWx0ZXI9InVybCgjZmFlaXd5bzd4aWlheCkiIHN0eWxlPSJzdHJva2U6IzE4MTgxODtzdHJva2Utd2lkdGg6MC41OyIvPjx0ZXh0IGZpbGw9IiMwMDAwMDAiIGZvbnQtZmFtaWx5PSJzYW5zLXNlcmlmIiBmb250LXNpemU9IjE0IiBsZW5ndGhBZGp1c3Q9InNwYWNpbmciIHRleHRMZW5ndGg9IjU2IiB4PSIxNTgiIHk9IjM2OC43MzQ0Ij5NZXRhTWFzazwvdGV4dD48L2c+PCEtLWVudGl0eSBTZXJ2ZXItLT48ZyBjbGFzcz0iZW50aXR5IiBkYXRhLWVudGl0eT0iU2VydmVyIiBkYXRhLXNvdXJjZS1saW5lPSIyMiIgZGF0YS11aWQ9ImVudDAwMDkiIGlkPSJlbnRpdHlfU2VydmVyIj48cmVjdCBmaWxsPSIjRjFGMUYxIiBmaWx0ZXI9InVybCgjZmFlaXd5bzd4aWlheCkiIGhlaWdodD0iMzQuOTg0NCIgcng9IjQiIHJ5PSI0IiBzdHlsZT0ic3Ryb2tlOiMxODE4MTg7c3Ryb2tlLXdpZHRoOjAuNTsiIHdpZHRoPSIxMTgiIHg9IjU0OSIgeT0iMzQ1LjUiLz48dGV4dCBmaWxsPSIjMDAwMDAwIiBmb250LWZhbWlseT0ic2Fucy1zZXJpZiIgZm9udC1zaXplPSIxNCIgbGVuZ3RoQWRqdXN0PSJzcGFjaW5nIiB0ZXh0TGVuZ3RoPSI0OSIgeD0iNTU5IiB5PSIzNjguNzM0NCI+RXhwcmVzczwvdGV4dD48dGV4dCBmaWxsPSIjMDAwMDAwIiBmb250LWZhbWlseT0ic2Fucy1zZXJpZiIgZm9udC1zaXplPSIxNCIgbGVuZ3RoQWRqdXN0PSJzcGFjaW5nIiB0ZXh0TGVuZ3RoPSI3IiB4PSI2MDgiIHk9IjM2OC43MzQ0Ij4mIzE2MDs8L3RleHQ+PHRleHQgZmlsbD0iIzAwMDAwMCIgZm9udC1mYW1pbHk9InNhbnMtc2VyaWYiIGZvbnQtc2l6ZT0iMTQiIGxlbmd0aEFkanVzdD0ic3BhY2luZyIgdGV4dExlbmd0aD0iNDIiIHg9IjYxNSIgeT0iMzY4LjczNDQiPlNlcnZlcjwvdGV4dD48L2c+PCEtLWVudGl0eSBDdHJscy0tPjxnIGNsYXNzPSJlbnRpdHkiIGRhdGEtZW50aXR5PSJDdHJscyIgZGF0YS1zb3VyY2UtbGluZT0iMjMiIGRhdGEtdWlkPSJlbnQwMDEwIiBpZD0iZW50aXR5X0N0cmxzIj48cmVjdCBmaWxsPSIjRjFGMUYxIiBmaWx0ZXI9InVybCgjZmFlaXd5bzd4aWlheCkiIGhlaWdodD0iNjQuOTUzMSIgcng9IjQiIHJ5PSI0IiBzdHlsZT0ic3Ryb2tlOiMxODE4MTg7c3Ryb2tlLXdpZHRoOjAuNTsiIHdpZHRoPSIyMzciIHg9IjQ4OS41IiB5PSI0NzYuNSIvPjx0ZXh0IGZpbGw9IiMwMDAwMDAiIGZvbnQtZmFtaWx5PSJzYW5zLXNlcmlmIiBmb250LXNpemU9IjE0IiBsZW5ndGhBZGp1c3Q9InNwYWNpbmciIHRleHRMZW5ndGg9Ijc3IiB4PSI1NjkuNSIgeT0iNDk5LjczNDQiPkNvbnRyb2xsZXJzPC90ZXh0Pjx0ZXh0IGZpbGw9IiMwMDAwMDAiIGZvbnQtZmFtaWx5PSJzYW5zLXNlcmlmIiBmb250LXNpemU9IjE0IiBsZW5ndGhBZGp1c3Q9InNwYWNpbmciIHRleHRMZW5ndGg9IjU2IiB4PSI0OTkuNSIgeT0iNTE0LjcxODgiPihDYXphcmksPC90ZXh0Pjx0ZXh0IGZpbGw9IiMwMDAwMDAiIGZvbnQtZmFtaWx5PSJzYW5zLXNlcmlmIiBmb250LXNpemU9IjE0IiBsZW5ndGhBZGp1c3Q9InNwYWNpbmciIHRleHRMZW5ndGg9IjciIHg9IjU1NS41IiB5PSI1MTQuNzE4OCI+JiMxNjA7PC90ZXh0Pjx0ZXh0IGZpbGw9IiMwMDAwMDAiIGZvbnQtZmFtaWx5PSJzYW5zLXNlcmlmIiBmb250LXNpemU9IjE0IiBsZW5ndGhBZGp1c3Q9InNwYWNpbmciIHRleHRMZW5ndGg9Ijc3IiB4PSI1NjIuNSIgeT0iNTE0LjcxODgiPkRlc3RpbmF0aWksPC90ZXh0Pjx0ZXh0IGZpbGw9IiMwMDAwMDAiIGZvbnQtZmFtaWx5PSJzYW5zLXNlcmlmIiBmb250LXNpemU9IjE0IiBsZW5ndGhBZGp1c3Q9InNwYWNpbmciIHRleHRMZW5ndGg9IjciIHg9IjYzOS41IiB5PSI1MTQuNzE4OCI+JiMxNjA7PC90ZXh0Pjx0ZXh0IGZpbGw9IiMwMDAwMDAiIGZvbnQtZmFtaWx5PSJzYW5zLXNlcmlmIiBmb250LXNpemU9IjE0IiBsZW5ndGhBZGp1c3Q9InNwYWNpbmciIHRleHRMZW5ndGg9IjcwIiB4PSI2NDYuNSIgeT0iNTE0LjcxODgiPlJlemVydmFyaSw8L3RleHQ+PHRleHQgZmlsbD0iIzAwMDAwMCIgZm9udC1mYW1pbHk9InNhbnMtc2VyaWYiIGZvbnQtc2l6ZT0iMTQiIGxlbmd0aEFkanVzdD0ic3BhY2luZyIgdGV4dExlbmd0aD0iMzUiIHg9IjUzMSIgeT0iNTI5LjcwMzEiPlVzZXIsPC90ZXh0Pjx0ZXh0IGZpbGw9IiMwMDAwMDAiIGZvbnQtZmFtaWx5PSJzYW5zLXNlcmlmIiBmb250LXNpemU9IjE0IiBsZW5ndGhBZGp1c3Q9InNwYWNpbmciIHRleHRMZW5ndGg9IjciIHg9IjU2NiIgeT0iNTI5LjcwMzEiPiYjMTYwOzwvdGV4dD48dGV4dCBmaWxsPSIjMDAwMDAwIiBmb250LWZhbWlseT0ic2Fucy1zZXJpZiIgZm9udC1zaXplPSIxNCIgbGVuZ3RoQWRqdXN0PSJzcGFjaW5nIiB0ZXh0TGVuZ3RoPSI2MyIgeD0iNTczIiB5PSI1MjkuNzAzMSI+UmVjZW56aWksPC90ZXh0Pjx0ZXh0IGZpbGw9IiMwMDAwMDAiIGZvbnQtZmFtaWx5PSJzYW5zLXNlcmlmIiBmb250LXNpemU9IjE0IiBsZW5ndGhBZGp1c3Q9InNwYWNpbmciIHRleHRMZW5ndGg9IjciIHg9IjYzNiIgeT0iNTI5LjcwMzEiPiYjMTYwOzwvdGV4dD48dGV4dCBmaWxsPSIjMDAwMDAwIiBmb250LWZhbWlseT0ic2Fucy1zZXJpZiIgZm9udC1zaXplPSIxNCIgbGVuZ3RoQWRqdXN0PSJzcGFjaW5nIiB0ZXh0TGVuZ3RoPSI0MiIgeD0iNjQzIiB5PSI1MjkuNzAzMSI+UGxhdGEpPC90ZXh0PjwvZz48IS0tZW50aXR5IE1XLS0+PGcgY2xhc3M9ImVudGl0eSIgZGF0YS1lbnRpdHk9Ik1XIiBkYXRhLXNvdXJjZS1saW5lPSIyNCIgZGF0YS11aWQ9ImVudDAwMTEiIGlkPSJlbnRpdHlfTVciPjxyZWN0IGZpbGw9IiNGMUYxRjEiIGZpbHRlcj0idXJsKCNmYWVpd3lvN3hpaWF4KSIgaGVpZ2h0PSI0OS45Njg4IiByeD0iNCIgcnk9IjQiIHN0eWxlPSJzdHJva2U6IzE4MTgxODtzdHJva2Utd2lkdGg6MC41OyIgd2lkdGg9IjIxNiIgeD0iNzYyIiB5PSI0ODQiLz48dGV4dCBmaWxsPSIjMDAwMDAwIiBmb250LWZhbWlseT0ic2Fucy1zZXJpZiIgZm9udC1zaXplPSIxNCIgbGVuZ3RoQWRqdXN0PSJzcGFjaW5nIiB0ZXh0TGVuZ3RoPSI3MCIgeD0iODM1IiB5PSI1MDcuMjM0NCI+TWlkZGxld2FyZTwvdGV4dD48dGV4dCBmaWxsPSIjMDAwMDAwIiBmb250LWZhbWlseT0ic2Fucy1zZXJpZiIgZm9udC1zaXplPSIxNCIgbGVuZ3RoQWRqdXN0PSJzcGFjaW5nIiB0ZXh0TGVuZ3RoPSIyMSIgeD0iNzcyIiB5PSI1MjIuMjE4OCI+SldUPC90ZXh0Pjx0ZXh0IGZpbGw9IiMwMDAwMDAiIGZvbnQtZmFtaWx5PSJzYW5zLXNlcmlmIiBmb250LXNpemU9IjE0IiBsZW5ndGhBZGp1c3Q9InNwYWNpbmciIHRleHRMZW5ndGg9IjciIHg9Ijc5MyIgeT0iNTIyLjIxODgiPiYjMTYwOzwvdGV4dD48dGV4dCBmaWxsPSIjMDAwMDAwIiBmb250LWZhbWlseT0ic2Fucy1zZXJpZiIgZm9udC1zaXplPSIxNCIgbGVuZ3RoQWRqdXN0PSJzcGFjaW5nIiB0ZXh0TGVuZ3RoPSIzNSIgeD0iODAwIiB5PSI1MjIuMjE4OCI+QXV0aCw8L3RleHQ+PHRleHQgZmlsbD0iIzAwMDAwMCIgZm9udC1mYW1pbHk9InNhbnMtc2VyaWYiIGZvbnQtc2l6ZT0iMTQiIGxlbmd0aEFkanVzdD0ic3BhY2luZyIgdGV4dExlbmd0aD0iNyIgeD0iODM1IiB5PSI1MjIuMjE4OCI+JiMxNjA7PC90ZXh0Pjx0ZXh0IGZpbGw9IiMwMDAwMDAiIGZvbnQtZmFtaWx5PSJzYW5zLXNlcmlmIiBmb250LXNpemU9IjE0IiBsZW5ndGhBZGp1c3Q9InNwYWNpbmciIHRleHRMZW5ndGg9IjQ5IiB4PSI4NDIiIHk9IjUyMi4yMTg4Ij5NdWx0ZXIsPC90ZXh0Pjx0ZXh0IGZpbGw9IiMwMDAwMDAiIGZvbnQtZmFtaWx5PSJzYW5zLXNlcmlmIiBmb250LXNpemU9IjE0IiBsZW5ndGhBZGp1c3Q9InNwYWNpbmciIHRleHRMZW5ndGg9IjciIHg9Ijg5MSIgeT0iNTIyLjIxODgiPiYjMTYwOzwvdGV4dD48dGV4dCBmaWxsPSIjMDAwMDAwIiBmb250LWZhbWlseT0ic2Fucy1zZXJpZiIgZm9udC1zaXplPSIxNCIgbGVuZ3RoQWRqdXN0PSJzcGFjaW5nIiB0ZXh0TGVuZ3RoPSI3MCIgeD0iODk4IiB5PSI1MjIuMjE4OCI+UmF0ZSYjODIwOTtMaW1pdDwvdGV4dD48L2c+PCEtLWVudGl0eSBNb25nby0tPjxnIGNsYXNzPSJlbnRpdHkiIGRhdGEtZW50aXR5PSJNb25nbyIgZGF0YS1zb3VyY2UtbGluZT0iMjUiIGRhdGEtdWlkPSJlbnQwMDEyIiBpZD0iZW50aXR5X01vbmdvIj48cGF0aCBkPSJNNDc1LjUsNjQ4LjUgQzQ3NS41LDYzOC41IDUzMSw2MzguNSA1MzEsNjM4LjUgQzUzMSw2MzguNSA1ODYuNSw2MzguNSA1ODYuNSw2NDguNSBMNTg2LjUsNjcyLjQ4NDQgQzU4Ni41LDY4Mi40ODQ0IDUzMSw2ODIuNDg0NCA1MzEsNjgyLjQ4NDQgQzUzMSw2ODIuNDg0NCA0NzUuNSw2ODIuNDg0NCA0NzUuNSw2NzIuNDg0NCBMNDc1LjUsNjQ4LjUiIGZpbGw9IiNGMUYxRjEiIGZpbHRlcj0idXJsKCNmYWVpd3lvN3hpaWF4KSIgc3R5bGU9InN0cm9rZTojMTgxODE4O3N0cm9rZS13aWR0aDowLjU7Ii8+PHBhdGggZD0iTTQ3NS41LDY0OC41IEM0NzUuNSw2NTguNSA1MzEsNjU4LjUgNTMxLDY1OC41IEM1MzEsNjU4LjUgNTg2LjUsNjU4LjUgNTg2LjUsNjQ4LjUiIGZpbGw9Im5vbmUiIHN0eWxlPSJzdHJva2U6IzE4MTgxODtzdHJva2Utd2lkdGg6MC41OyIvPjx0ZXh0IGZpbGw9IiMwMDAwMDAiIGZvbnQtZmFtaWx5PSJzYW5zLXNlcmlmIiBmb250LXNpemU9IjE0IiBsZW5ndGhBZGp1c3Q9InNwYWNpbmciIHRleHRMZW5ndGg9IjQ5IiB4PSI0ODUuNSIgeT0iNjc1LjczNDQiPk1vbmdvREI8L3RleHQ+PHRleHQgZmlsbD0iIzAwMDAwMCIgZm9udC1mYW1pbHk9InNhbnMtc2VyaWYiIGZvbnQtc2l6ZT0iMTQiIGxlbmd0aEFkanVzdD0ic3BhY2luZyIgdGV4dExlbmd0aD0iNyIgeD0iNTM0LjUiIHk9IjY3NS43MzQ0Ij4mIzE2MDs8L3RleHQ+PHRleHQgZmlsbD0iIzAwMDAwMCIgZm9udC1mYW1pbHk9InNhbnMtc2VyaWYiIGZvbnQtc2l6ZT0iMTQiIGxlbmd0aEFkanVzdD0ic3BhY2luZyIgdGV4dExlbmd0aD0iMzUiIHg9IjU0MS41IiB5PSI2NzUuNzM0NCI+QXRsYXM8L3RleHQ+PC9nPjwhLS1lbnRpdHkgU3RyaXBlLS0+PGcgY2xhc3M9ImVudGl0eSIgZGF0YS1lbnRpdHk9IlN0cmlwZSIgZGF0YS1zb3VyY2UtbGluZT0iMjYiIGRhdGEtdWlkPSJlbnQwMDEzIiBpZD0iZW50aXR5X1N0cmlwZSI+PHJlY3QgZmlsbD0iI0YxRjFGMSIgZmlsdGVyPSJ1cmwoI2ZhZWl3eW83eGlpYXgpIiBoZWlnaHQ9IjM0Ljk4NDQiIHJ4PSI0IiByeT0iNCIgc3R5bGU9InN0cm9rZTojMTgxODE4O3N0cm9rZS13aWR0aDowLjU7IiB3aWR0aD0iMTYwIiB4PSI5ODciIHk9IjY0MyIvPjx0ZXh0IGZpbGw9IiMwMDAwMDAiIGZvbnQtZmFtaWx5PSJzYW5zLXNlcmlmIiBmb250LXNpemU9IjE0IiBsZW5ndGhBZGp1c3Q9InNwYWNpbmciIHRleHRMZW5ndGg9IjQyIiB4PSI5OTciIHk9IjY2Ni4yMzQ0Ij5TdHJpcGU8L3RleHQ+PHRleHQgZmlsbD0iIzAwMDAwMCIgZm9udC1mYW1pbHk9InNhbnMtc2VyaWYiIGZvbnQtc2l6ZT0iMTQiIGxlbmd0aEFkanVzdD0ic3BhY2luZyIgdGV4dExlbmd0aD0iNyIgeD0iMTAzOSIgeT0iNjY2LjIzNDQiPiYjMTYwOzwvdGV4dD48dGV4dCBmaWxsPSIjMDAwMDAwIiBmb250LWZhbWlseT0ic2Fucy1zZXJpZiIgZm9udC1zaXplPSIxNCIgbGVuZ3RoQWRqdXN0PSJzcGFjaW5nIiB0ZXh0TGVuZ3RoPSIyMSIgeD0iMTA0NiIgeT0iNjY2LjIzNDQiPlNESzwvdGV4dD48dGV4dCBmaWxsPSIjMDAwMDAwIiBmb250LWZhbWlseT0ic2Fucy1zZXJpZiIgZm9udC1zaXplPSIxNCIgbGVuZ3RoQWRqdXN0PSJzcGFjaW5nIiB0ZXh0TGVuZ3RoPSI3IiB4PSIxMDY3IiB5PSI2NjYuMjM0NCI+JiMxNjA7PC90ZXh0Pjx0ZXh0IGZpbGw9IiMwMDAwMDAiIGZvbnQtZmFtaWx5PSJzYW5zLXNlcmlmIiBmb250LXNpemU9IjE0IiBsZW5ndGhBZGp1c3Q9InNwYWNpbmciIHRleHRMZW5ndGg9IjciIHg9IjEwNzQiIHk9IjY2Ni4yMzQ0Ij4rPC90ZXh0Pjx0ZXh0IGZpbGw9IiMwMDAwMDAiIGZvbnQtZmFtaWx5PSJzYW5zLXNlcmlmIiBmb250LXNpemU9IjE0IiBsZW5ndGhBZGp1c3Q9InNwYWNpbmciIHRleHRMZW5ndGg9IjciIHg9IjEwODEiIHk9IjY2Ni4yMzQ0Ij4mIzE2MDs8L3RleHQ+PHRleHQgZmlsbD0iIzAwMDAwMCIgZm9udC1mYW1pbHk9InNhbnMtc2VyaWYiIGZvbnQtc2l6ZT0iMTQiIGxlbmd0aEFkanVzdD0ic3BhY2luZyIgdGV4dExlbmd0aD0iNDkiIHg9IjEwODgiIHk9IjY2Ni4yMzQ0Ij5XZWJob29rPC90ZXh0PjwvZz48IS0tZW50aXR5IE1haWxlci0tPjxnIGNsYXNzPSJlbnRpdHkiIGRhdGEtZW50aXR5PSJNYWlsZXIiIGRhdGEtc291cmNlLWxpbmU9IjI3IiBkYXRhLXVpZD0iZW50MDAxNCIgaWQ9ImVudGl0eV9NYWlsZXIiPjxyZWN0IGZpbGw9IiNGMUYxRjEiIGZpbHRlcj0idXJsKCNmYWVpd3lvN3hpaWF4KSIgaGVpZ2h0PSIzNC45ODQ0IiByeD0iNCIgcnk9IjQiIHN0eWxlPSJzdHJva2U6IzE4MTgxODtzdHJva2Utd2lkdGg6MC41OyIgd2lkdGg9IjE2NyIgeD0iNjIxLjUiIHk9IjY0MyIvPjx0ZXh0IGZpbGw9IiMwMDAwMDAiIGZvbnQtZmFtaWx5PSJzYW5zLXNlcmlmIiBmb250LXNpemU9IjE0IiBsZW5ndGhBZGp1c3Q9InNwYWNpbmciIHRleHRMZW5ndGg9IjcwIiB4PSI2MzEuNSIgeT0iNjY2LjIzNDQiPk5vZGVtYWlsZXI8L3RleHQ+PHRleHQgZmlsbD0iIzAwMDAwMCIgZm9udC1mYW1pbHk9InNhbnMtc2VyaWYiIGZvbnQtc2l6ZT0iMTQiIGxlbmd0aEFkanVzdD0ic3BhY2luZyIgdGV4dExlbmd0aD0iNyIgeD0iNzAxLjUiIHk9IjY2Ni4yMzQ0Ij4mIzE2MDs8L3RleHQ+PHRleHQgZmlsbD0iIzAwMDAwMCIgZm9udC1mYW1pbHk9InNhbnMtc2VyaWYiIGZvbnQtc2l6ZT0iMTQiIGxlbmd0aEFkanVzdD0ic3BhY2luZyIgdGV4dExlbmd0aD0iNyIgeD0iNzA4LjUiIHk9IjY2Ni4yMzQ0Ij4rPC90ZXh0Pjx0ZXh0IGZpbGw9IiMwMDAwMDAiIGZvbnQtZmFtaWx5PSJzYW5zLXNlcmlmIiBmb250LXNpemU9IjE0IiBsZW5ndGhBZGp1c3Q9InNwYWNpbmciIHRleHRMZW5ndGg9IjciIHg9IjcxNS41IiB5PSI2NjYuMjM0NCI+JiMxNjA7PC90ZXh0Pjx0ZXh0IGZpbGw9IiMwMDAwMDAiIGZvbnQtZmFtaWx5PSJzYW5zLXNlcmlmIiBmb250LXNpemU9IjE0IiBsZW5ndGhBZGp1c3Q9InNwYWNpbmciIHRleHRMZW5ndGg9IjU2IiB4PSI3MjIuNSIgeT0iNjY2LjIzNDQiPkV0aGVyZWFsPC90ZXh0PjwvZz48IS0tZW50aXR5IFVwbG9hZHMtLT48ZyBjbGFzcz0iZW50aXR5IiBkYXRhLWVudGl0eT0iVXBsb2FkcyIgZGF0YS1zb3VyY2UtbGluZT0iMjgiIGRhdGEtdWlkPSJlbnQwMDE1IiBpZD0iZW50aXR5X1VwbG9hZHMiPjxwYXRoIGQ9Ik04MjgsNjM0IEw4NjYsNjM0IEE2LDYgMCAwIDEgODcwLDYzOCBMODc3LDY1NSBMOTQ4LDY1NSBBNCw0IDAgMCAxIDk1Miw2NTkgTDk1Miw2ODIuOTg0NCBBNCw0IDAgMCAxIDk0OCw2ODYuOTg0NCBMODI4LDY4Ni45ODQ0IEE0LDQgMCAwIDEgODI0LDY4Mi45ODQ0IEw4MjQsNjM4IEE0LDQgMCAwIDEgODI4LDYzNCIgZmlsbD0iI0YxRjFGMSIgZmlsdGVyPSJ1cmwoI2ZhZWl3eW83eGlpYXgpIiBzdHlsZT0ic3Ryb2tlOiMxODE4MTg7c3Ryb2tlLXdpZHRoOjAuNTsiLz48bGluZSBzdHlsZT0ic3Ryb2tlOiMxODE4MTg7c3Ryb2tlLXdpZHRoOjAuNTsiIHgxPSI4MjQiIHgyPSI4NzciIHkxPSI2NTUiIHkyPSI2NTUiLz48dGV4dCBmaWxsPSIjMDAwMDAwIiBmb250LWZhbWlseT0ic2Fucy1zZXJpZiIgZm9udC1zaXplPSIxNCIgbGVuZ3RoQWRqdXN0PSJzcGFjaW5nIiB0ZXh0TGVuZ3RoPSI0OSIgeD0iODM0IiB5PSI2NzUuMjM0NCI+VXBsb2FkczwvdGV4dD48dGV4dCBmaWxsPSIjMDAwMDAwIiBmb250LWZhbWlseT0ic2Fucy1zZXJpZiIgZm9udC1zaXplPSIxNCIgbGVuZ3RoQWRqdXN0PSJzcGFjaW5nIiB0ZXh0TGVuZ3RoPSI3IiB4PSI4ODMiIHk9IjY3NS4yMzQ0Ij4mIzE2MDs8L3RleHQ+PHRleHQgZmlsbD0iIzAwMDAwMCIgZm9udC1mYW1pbHk9InNhbnMtc2VyaWYiIGZvbnQtc2l6ZT0iMTQiIGxlbmd0aEFkanVzdD0ic3BhY2luZyIgdGV4dExlbmd0aD0iNDIiIHg9Ijg5MCIgeT0iNjc1LjIzNDQiPmZvbGRlcjwvdGV4dD48L2c+PCEtLWVudGl0eSBDb250cmFjdC0tPjxnIGNsYXNzPSJlbnRpdHkiIGRhdGEtZW50aXR5PSJDb250cmFjdCIgZGF0YS1zb3VyY2UtbGluZT0iMzMiIGRhdGEtdWlkPSJlbnQwMDE3IiBpZD0iZW50aXR5X0NvbnRyYWN0Ij48cmVjdCBmaWxsPSIjRjFGMUYxIiBmaWx0ZXI9InVybCgjZmFlaXd5bzd4aWlheCkiIGhlaWdodD0iNDkuOTY4OCIgcng9IjQiIHJ5PSI0IiBzdHlsZT0ic3Ryb2tlOiMxODE4MTg7c3Ryb2tlLXdpZHRoOjAuNTsiIHdpZHRoPSIxNTMiIHg9IjIwOS41IiB5PSI2MzUuNSIvPjx0ZXh0IGZpbGw9IiMwMDAwMDAiIGZvbnQtZmFtaWx5PSJzYW5zLXNlcmlmIiBmb250LXNpemU9IjE0IiBsZW5ndGhBZGp1c3Q9InNwYWNpbmciIHRleHRMZW5ndGg9IjEzMyIgeD0iMjE5LjUiIHk9IjY1OC43MzQ0Ij5QYXltZW50Q29udHJhY3Quc29sPC90ZXh0Pjx0ZXh0IGZpbGw9IiMwMDAwMDAiIGZvbnQtZmFtaWx5PSJzYW5zLXNlcmlmIiBmb250LXNpemU9IjE0IiBsZW5ndGhBZGp1c3Q9InNwYWNpbmciIHRleHRMZW5ndGg9IjYzIiB4PSIyMjMiIHk9IjY3My43MTg4Ij4ocGF5YWJsZSw8L3RleHQ+PHRleHQgZmlsbD0iIzAwMDAwMCIgZm9udC1mYW1pbHk9InNhbnMtc2VyaWYiIGZvbnQtc2l6ZT0iMTQiIGxlbmd0aEFkanVzdD0ic3BhY2luZyIgdGV4dExlbmd0aD0iNyIgeD0iMjg2IiB5PSI2NzMuNzE4OCI+JiMxNjA7PC90ZXh0Pjx0ZXh0IGZpbGw9IiMwMDAwMDAiIGZvbnQtZmFtaWx5PSJzYW5zLXNlcmlmIiBmb250LXNpemU9IjE0IiBsZW5ndGhBZGp1c3Q9InNwYWNpbmciIHRleHRMZW5ndGg9IjU2IiB4PSIyOTMiIHk9IjY3My43MTg4Ij5Pd25hYmxlKTwvdGV4dD48L2c+PCEtLWVudGl0eSBBQkktLT48ZyBjbGFzcz0iZW50aXR5IiBkYXRhLWVudGl0eT0iQUJJIiBkYXRhLXNvdXJjZS1saW5lPSIzNCIgZGF0YS11aWQ9ImVudDAwMTgiIGlkPSJlbnRpdHlfQUJJIj48cGF0aCBkPSJNMjA5LjUsNzg4IEMyMDkuNSw3NzggMjc5LDc3OCAyNzksNzc4IEMyNzksNzc4IDM0OC41LDc3OCAzNDguNSw3ODggTDM0OC41LDgyNi45Njg4IEMzNDguNSw4MzYuOTY4OCAyNzksODM2Ljk2ODggMjc5LDgzNi45Njg4IEMyNzksODM2Ljk2ODggMjA5LjUsODM2Ljk2ODggMjA5LjUsODI2Ljk2ODggTDIwOS41LDc4OCIgZmlsbD0iI0YxRjFGMSIgZmlsdGVyPSJ1cmwoI2ZhZWl3eW83eGlpYXgpIiBzdHlsZT0ic3Ryb2tlOiMxODE4MTg7c3Ryb2tlLXdpZHRoOjAuNTsiLz48cGF0aCBkPSJNMjA5LjUsNzg4IEMyMDkuNSw3OTggMjc5LDc5OCAyNzksNzk4IEMyNzksNzk4IDM0OC41LDc5OCAzNDguNSw3ODgiIGZpbGw9Im5vbmUiIHN0eWxlPSJzdHJva2U6IzE4MTgxODtzdHJva2Utd2lkdGg6MC41OyIvPjx0ZXh0IGZpbGw9IiMwMDAwMDAiIGZvbnQtZmFtaWx5PSJzYW5zLXNlcmlmIiBmb250LXNpemU9IjE0IiBsZW5ndGhBZGp1c3Q9InNwYWNpbmciIHRleHRMZW5ndGg9IjExOSIgeD0iMjE5LjUiIHk9IjgxNS4yMzQ0Ij5jb250cmFjdERhdGEuanNvbjwvdGV4dD48dGV4dCBmaWxsPSIjMDAwMDAwIiBmb250LWZhbWlseT0ic2Fucy1zZXJpZiIgZm9udC1zaXplPSIxNCIgbGVuZ3RoQWRqdXN0PSJzcGFjaW5nIiB0ZXh0TGVuZ3RoPSIyMSIgeD0iMjMzLjUiIHk9IjgzMC4yMTg4Ij5BQkk8L3RleHQ+PHRleHQgZmlsbD0iIzAwMDAwMCIgZm9udC1mYW1pbHk9InNhbnMtc2VyaWYiIGZvbnQtc2l6ZT0iMTQiIGxlbmd0aEFkanVzdD0ic3BhY2luZyIgdGV4dExlbmd0aD0iNyIgeD0iMjU0LjUiIHk9IjgzMC4yMTg4Ij4mIzE2MDs8L3RleHQ+PHRleHQgZmlsbD0iIzAwMDAwMCIgZm9udC1mYW1pbHk9InNhbnMtc2VyaWYiIGZvbnQtc2l6ZT0iMTQiIGxlbmd0aEFkanVzdD0ic3BhY2luZyIgdGV4dExlbmd0aD0iNyIgeD0iMjYxLjUiIHk9IjgzMC4yMTg4Ij4rPC90ZXh0Pjx0ZXh0IGZpbGw9IiMwMDAwMDAiIGZvbnQtZmFtaWx5PSJzYW5zLXNlcmlmIiBmb250LXNpemU9IjE0IiBsZW5ndGhBZGp1c3Q9InNwYWNpbmciIHRleHRMZW5ndGg9IjciIHg9IjI2OC41IiB5PSI4MzAuMjE4OCI+JiMxNjA7PC90ZXh0Pjx0ZXh0IGZpbGw9IiMwMDAwMDAiIGZvbnQtZmFtaWx5PSJzYW5zLXNlcmlmIiBmb250LXNpemU9IjE0IiBsZW5ndGhBZGp1c3Q9InNwYWNpbmciIHRleHRMZW5ndGg9IjQ5IiB4PSIyNzUuNSIgeT0iODMwLjIxODgiPkFkZHJlc3M8L3RleHQ+PC9nPjwhLS1lbnRpdHkgQ2xpZW50LS0+PGcgY2xhc3M9ImVudGl0eSIgZGF0YS1lbnRpdHk9IkNsaWVudCIgZGF0YS1zb3VyY2UtbGluZT0iMTAiIGRhdGEtdWlkPSJlbnQwMDAyIiBpZD0iZW50aXR5X0NsaWVudCI+PGVsbGlwc2UgY3g9IjE0MCIgY3k9IjE0IiBmaWxsPSIjRjFGMUYxIiBmaWx0ZXI9InVybCgjZmFlaXd5bzd4aWlheCkiIHJ4PSI4IiByeT0iOCIgc3R5bGU9InN0cm9rZTojMTgxODE4O3N0cm9rZS13aWR0aDowLjU7Ii8+PHBhdGggZD0iTTE0MCwyMiBMMTQwLDQ5IE0xMjcsMzAgTDE1MywzMCBNMTQwLDQ5IEwxMjcsNjQgTTE0MCw0OSBMMTUzLDY0IiBmaWxsPSJub25lIiBmaWx0ZXI9InVybCgjZmFlaXd5bzd4aWlheCkiIHN0eWxlPSJzdHJva2U6IzE4MTgxODtzdHJva2Utd2lkdGg6MC41OyIvPjx0ZXh0IGZpbGw9IiMwMDAwMDAiIGZvbnQtZmFtaWx5PSJzYW5zLXNlcmlmIiBmb250LXNpemU9IjE0IiBsZW5ndGhBZGp1c3Q9InNwYWNpbmciIHRleHRMZW5ndGg9IjQyIiB4PSIxMTkiIHk9IjgxLjczNDQiPkNsaWVudDwvdGV4dD48L2c+PCEtLWVudGl0eSBIb3N0LS0+PGcgY2xhc3M9ImVudGl0eSIgZGF0YS1lbnRpdHk9Ikhvc3QiIGRhdGEtc291cmNlLWxpbmU9IjExIiBkYXRhLXVpZD0iZW50MDAwMyIgaWQ9ImVudGl0eV9Ib3N0Ij48ZWxsaXBzZSBjeD0iMjM4IiBjeT0iMTQiIGZpbGw9IiNGMUYxRjEiIGZpbHRlcj0idXJsKCNmYWVpd3lvN3hpaWF4KSIgcng9IjgiIHJ5PSI4IiBzdHlsZT0ic3Ryb2tlOiMxODE4MTg7c3Ryb2tlLXdpZHRoOjAuNTsiLz48cGF0aCBkPSJNMjM4LDIyIEwyMzgsNDkgTTIyNSwzMCBMMjUxLDMwIE0yMzgsNDkgTDIyNSw2NCBNMjM4LDQ5IEwyNTEsNjQiIGZpbGw9Im5vbmUiIGZpbHRlcj0idXJsKCNmYWVpd3lvN3hpaWF4KSIgc3R5bGU9InN0cm9rZTojMTgxODE4O3N0cm9rZS13aWR0aDowLjU7Ii8+PHRleHQgZmlsbD0iIzAwMDAwMCIgZm9udC1mYW1pbHk9InNhbnMtc2VyaWYiIGZvbnQtc2l6ZT0iMTQiIGxlbmd0aEFkanVzdD0ic3BhY2luZyIgdGV4dExlbmd0aD0iMjgiIHg9IjE5NiIgeT0iODEuNzM0NCI+SG9zdDwvdGV4dD48dGV4dCBmaWxsPSIjMDAwMDAwIiBmb250LWZhbWlseT0ic2Fucy1zZXJpZiIgZm9udC1zaXplPSIxNCIgbGVuZ3RoQWRqdXN0PSJzcGFjaW5nIiB0ZXh0TGVuZ3RoPSI3IiB4PSIyMjQiIHk9IjgxLjczNDQiPiYjMTYwOzwvdGV4dD48dGV4dCBmaWxsPSIjMDAwMDAwIiBmb250LWZhbWlseT0ic2Fucy1zZXJpZiIgZm9udC1zaXplPSIxNCIgbGVuZ3RoQWRqdXN0PSJzcGFjaW5nIiB0ZXh0TGVuZ3RoPSI0OSIgeD0iMjMxIiB5PSI4MS43MzQ0Ij4oR2F6ZCYjMjU5Oyk8L3RleHQ+PC9nPjwhLS1lbnRpdHkgQWRtaW4tLT48ZyBjbGFzcz0iZW50aXR5IiBkYXRhLWVudGl0eT0iQWRtaW4iIGRhdGEtc291cmNlLWxpbmU9IjEyIiBkYXRhLXVpZD0iZW50MDAwNCIgaWQ9ImVudGl0eV9BZG1pbiI+PGVsbGlwc2UgY3g9IjMzMyIgY3k9IjE0IiBmaWxsPSIjRjFGMUYxIiBmaWx0ZXI9InVybCgjZmFlaXd5bzd4aWlheCkiIHJ4PSI4IiByeT0iOCIgc3R5bGU9InN0cm9rZTojMTgxODE4O3N0cm9rZS13aWR0aDowLjU7Ii8+PHBhdGggZD0iTTMzMywyMiBMMzMzLDQ5IE0zMjAsMzAgTDM0NiwzMCBNMzMzLDQ5IEwzMjAsNjQgTTMzMyw0OSBMMzQ2LDY0IiBmaWxsPSJub25lIiBmaWx0ZXI9InVybCgjZmFlaXd5bzd4aWlheCkiIHN0eWxlPSJzdHJva2U6IzE4MTgxODtzdHJva2Utd2lkdGg6MC41OyIvPjx0ZXh0IGZpbGw9IiMwMDAwMDAiIGZvbnQtZmFtaWx5PSJzYW5zLXNlcmlmIiBmb250LXNpemU9IjE0IiBsZW5ndGhBZGp1c3Q9InNwYWNpbmciIHRleHRMZW5ndGg9IjM1IiB4PSIzMTUuNSIgeT0iODEuNzM0NCI+QWRtaW48L3RleHQ+PC9nPjwhLS1lbnRpdHkgQ29pbkdlY2tvLS0+PGcgY2xhc3M9ImVudGl0eSIgZGF0YS1lbnRpdHk9IkNvaW5HZWNrbyIgZGF0YS1zb3VyY2UtbGluZT0iMzgiIGRhdGEtdWlkPSJlbnQwMDE5IiBpZD0iZW50aXR5X0NvaW5HZWNrbyI+PHBhdGggZD0iTTI4OS42MDY3LDM0OS4yMjM4IEMyOTMuNzUzOSwzNDMuNzkwNyAyOTguMTY0OSwzNDQuOTMxOSAzMDEuMTY2MSwzNTAuNDM1MiBDMzA1LjEzNTcsMzQ0Ljk4MjcgMzA5LjgxMjIsMzQzLjk0NzIgMzE0LjI5NzksMzQ5LjgzNzcgQzMxNy4yMTk2LDM0My44OTgxIDMyMS42MjQxLDM0My4yNTU3IDMyNS4zOTIxLDM0OS4wMzY2IEMzMjkuNTIxNiwzNDIuMTAxNiAzMzQuMTY2OCwzNDEuMjYwOCAzMzkuNjY2NSwzNDcuNTU4NCBDMzQzLjM1OTksMzQxLjc5MTkgMzQ2Ljk1MjUsMzQyLjYyNTggMzUwLjU0NTgsMzQ3LjY1OTIgQzM1NC41Mjc0LDM0MC44MDAzIDM1OS4xMTI1LDM0MC40NjAxIDM2My41MTYyLDM0Ny4yNTg0IEMzNjcuNzc0NSwzNDIuODEzNSAzNzEuNjEzNywzNDMuNjkxMSAzNzQuNjMzNiwzNDguNzEyOSBDMzc5LjAxNywzNDEuODgyNiAzODMuODYzLDM0MS4zODcgMzg4LjI4NiwzNDguNjc0NiBDMzkyLjM3MSwzNDIuNjgyOSAzOTYuNDk4MSwzNDMuNTk2MiAzOTkuNzQyNSwzNDkuNDg1MiBDNDAyLjk3LDM0My4yNzUxIDQwNy4zNzgsMzQzLjA1MzIgNDExLjYzNTcsMzQ4LjQyNzUgQzQxNi4wOTc5LDM0Mi4zMDA0IDQyMi4wNDk5LDM0My4yNjU0IDQyNC43ODg3LDM1MC4xNjczIEM0MjguMDYxMywzNDQuMDQ3OSA0MzIuNTgsMzQzLjc0NjIgNDM2LjkzOTgsMzQ5LjAwNjUgQzQ0Ni43MzY5LDM1MS42NjQxIDQ0Ny44Nzg5LDM1Ny42ODkzIDQ0MS4yMjczLDM2NC44MDk1IEM0NDYuMjQ4LDM3MC45OTUzIDQ0My40MzMsMzc3Ljg2MDQgNDM1LjU1ODksMzc4LjgzNDYgQzQzMi41ODI5LDM4NC4yODc4IDQyOC4zODk3LDM4NC41NjM2IDQyNC45NTk4LDM3OS4yODI3IEM0MjAuNjE1NiwzODUuMDMyNCA0MTUuOTY3MSwzODYuMjQxMyA0MTEuMzUwOSwzNzkuNTgxIEM0MDguOTM3MywzODUuNjk2NyA0MDQuNjQyOSwzODQuOTcxOSA0MDAuODk5OCwzODAuOTUxOCBDMzk3LjI0NTUsMzg4LjU0OTcgMzkxLjQzMzEsMzg5LjIxNTYgMzg2Ljg2ODMsMzgxLjgwMyBDMzgzLjkzMTcsMzg4LjI2IDM3OC4zODU0LDM4Ny4zMjIyIDM3NC43Mzc0LDM4Mi41NzMxIEMzNzEuODg2MSwzODcuNTM1NiAzNjguNjg2MiwzODguNDYwNCAzNjQuMTU0NywzODQuNTg0OSBDMzU5Ljg0MjksMzkwLjY0MjggMzU1LjgyNjMsMzkxLjI5MTQgMzUxLjUwNzksMzg0LjU5MTYgQzM0Ny40MjM2LDM4OS44Njc3IDM0Mi4yMjcsMzkwLjQzNzEgMzM5LjE2ODYsMzgzLjU1MDkgQzMzNC4yNDE0LDM4OS40MDc3IDMyOC4zNTY2LDM4OC4xNDgzIDMyNi4yODYsMzgwLjc3MDMgQzMyMy4wMzE0LDM4Ni41NjMzIDMxNy43NDAxLDM4Ny42NDA3IDMxNC4xMzg3LDM4MS4xMTIxIEMzMDkuNzExNiwzODYuNyAzMDUuODQyNSwzODUuMTQzMSAzMDIuNTc4MywzNzkuODc0IEMyOTguNDA2NywzODYuMjM0MyAyOTMuMTcyNiwzODQuNjk0OCAyODkuNjU5MiwzNzkuMTU5MyBDMjgwLjI5MywzNzguMzIxNSAyNzkuMzQzNywzNzEuNzcxMSAyODMuNDQxOSwzNjUuMDE0OSBDMjc3LjMyMzYsMzU3Ljc0MDggMjgxLjAyMzYsMzUwLjc1ODYgMjg5LjYwNjcsMzQ5LjIyMzgiIGZpbGw9IiNGMUYxRjEiIGZpbHRlcj0idXJsKCNmYWVpd3lvN3hpaWF4KSIgc3R5bGU9InN0cm9rZTojMTgxODE4O3N0cm9rZS13aWR0aDowLjU7Ii8+PHRleHQgZmlsbD0iIzAwMDAwMCIgZm9udC1mYW1pbHk9InNhbnMtc2VyaWYiIGZvbnQtc2l6ZT0iMTQiIGxlbmd0aEFkanVzdD0ic3BhY2luZyIgdGV4dExlbmd0aD0iNjMiIHg9IjI5NS41IiB5PSIzNjguNzM0NCI+Q29pbkdlY2tvPC90ZXh0Pjx0ZXh0IGZpbGw9IiMwMDAwMDAiIGZvbnQtZmFtaWx5PSJzYW5zLXNlcmlmIiBmb250LXNpemU9IjE0IiBsZW5ndGhBZGp1c3Q9InNwYWNpbmciIHRleHRMZW5ndGg9IjciIHg9IjM1OC41IiB5PSIzNjguNzM0NCI+JiMxNjA7PC90ZXh0Pjx0ZXh0IGZpbGw9IiMwMDAwMDAiIGZvbnQtZmFtaWx5PSJzYW5zLXNlcmlmIiBmb250LXNpemU9IjE0IiBsZW5ndGhBZGp1c3Q9InNwYWNpbmciIHRleHRMZW5ndGg9IjM1IiB4PSIzNjUuNSIgeT0iMzY4LjczNDQiPlByaWNlPC90ZXh0Pjx0ZXh0IGZpbGw9IiMwMDAwMDAiIGZvbnQtZmFtaWx5PSJzYW5zLXNlcmlmIiBmb250LXNpemU9IjE0IiBsZW5ndGhBZGp1c3Q9InNwYWNpbmciIHRleHRMZW5ndGg9IjciIHg9IjQwMC41IiB5PSIzNjguNzM0NCI+JiMxNjA7PC90ZXh0Pjx0ZXh0IGZpbGw9IiMwMDAwMDAiIGZvbnQtZmFtaWx5PSJzYW5zLXNlcmlmIiBmb250LXNpemU9IjE0IiBsZW5ndGhBZGp1c3Q9InNwYWNpbmciIHRleHRMZW5ndGg9IjIxIiB4PSI0MDcuNSIgeT0iMzY4LjczNDQiPkFQSTwvdGV4dD48L2c+PCEtLWxpbmsgQ2xpZW50IHRvIFJlYWN0LS0+PGcgY2xhc3M9ImxpbmsiIGRhdGEtZW50aXR5LTE9IkNsaWVudCIgZGF0YS1lbnRpdHktMj0iUmVhY3QiIGRhdGEtc291cmNlLWxpbmU9IjQyIiBkYXRhLXVpZD0ibG5rMjAiIGlkPSJsaW5rX0NsaWVudF9SZWFjdCI+PHBhdGggZD0iTTE0MCw4My42NSBDMTQwLDExNC4xNSAxNDAsMTQ5Ljk5IDE0MCwxNzYuMTIiIGZpbGw9Im5vbmUiIGlkPSJDbGllbnQtdG8tUmVhY3QiIHN0eWxlPSJzdHJva2U6IzE4MTgxODtzdHJva2Utd2lkdGg6MTsiLz48cG9seWdvbiBmaWxsPSIjMTgxODE4IiBwb2ludHM9IjE0MCwxODIuMTIsMTQ0LDE3My4xMiwxNDAsMTc3LjEyLDEzNiwxNzMuMTIsMTQwLDE4Mi4xMiIgc3R5bGU9InN0cm9rZTojMTgxODE4O3N0cm9rZS13aWR0aDoxOyIvPjx0ZXh0IGZpbGw9IiMwMDAwMDAiIGZvbnQtZmFtaWx5PSJzYW5zLXNlcmlmIiBmb250LXNpemU9IjEzIiBsZW5ndGhBZGp1c3Q9InNwYWNpbmciIHRleHRMZW5ndGg9IjEzIiB4PSIxNDEiIHk9IjEyNi43ODkxIj5VSTwvdGV4dD48dGV4dCBmaWxsPSIjMDAwMDAwIiBmb250LWZhbWlseT0ic2Fucy1zZXJpZiIgZm9udC1zaXplPSIxMyIgbGVuZ3RoQWRqdXN0PSJzcGFjaW5nIiB0ZXh0TGVuZ3RoPSI2LjUiIHg9IjE1NCIgeT0iMTI2Ljc4OTEiPiYjMTYwOzwvdGV4dD48dGV4dCBmaWxsPSIjMDAwMDAwIiBmb250LWZhbWlseT0ic2Fucy1zZXJpZiIgZm9udC1zaXplPSIxMyIgbGVuZ3RoQWRqdXN0PSJzcGFjaW5nIiB0ZXh0TGVuZ3RoPSI2LjUiIHg9IjE2MC41IiB5PSIxMjYuNzg5MSI+LzwvdGV4dD48dGV4dCBmaWxsPSIjMDAwMDAwIiBmb250LWZhbWlseT0ic2Fucy1zZXJpZiIgZm9udC1zaXplPSIxMyIgbGVuZ3RoQWRqdXN0PSJzcGFjaW5nIiB0ZXh0TGVuZ3RoPSI2LjUiIHg9IjE2NyIgeT0iMTI2Ljc4OTEiPiYjMTYwOzwvdGV4dD48dGV4dCBmaWxsPSIjMDAwMDAwIiBmb250LWZhbWlseT0ic2Fucy1zZXJpZiIgZm9udC1zaXplPSIxMyIgbGVuZ3RoQWRqdXN0PSJzcGFjaW5nIiB0ZXh0TGVuZ3RoPSIyNiIgeD0iMTczLjUiIHk9IjEyNi43ODkxIj5BdXRoPC90ZXh0PjwvZz48IS0tbGluayBSZWFjdCB0byBNZXRhTWFzay0tPjxnIGNsYXNzPSJsaW5rIiBkYXRhLWVudGl0eS0xPSJSZWFjdCIgZGF0YS1lbnRpdHktMj0iTWV0YU1hc2siIGRhdGEtc291cmNlLWxpbmU9IjQzIiBkYXRhLXVpZD0ibG5rMjEiIGlkPSJsaW5rX1JlYWN0X01ldGFNYXNrIj48cGF0aCBkPSJNMTQ3LjI5LDIzMi44MiBDMTU2LjE2LDI2Mi40MSAxNjkuMjY3NCwzMDYuMTYyNiAxNzcuNzY3NCwzMzQuNTIyNiIgZmlsbD0ibm9uZSIgaWQ9IlJlYWN0LXRvLU1ldGFNYXNrIiBzdHlsZT0ic3Ryb2tlOiMxODE4MTg7c3Ryb2tlLXdpZHRoOjE7Ii8+PHBvbHlnb24gZmlsbD0iIzE4MTgxOCIgcG9pbnRzPSIxNzkuNDksMzQwLjI3LDE4MC43Mzc3LDMzMC41MDA1LDE3OC4wNTQ1LDMzNS40ODA1LDE3My4wNzQ1LDMzMi43OTczLDE3OS40OSwzNDAuMjciIHN0eWxlPSJzdHJva2U6IzE4MTgxODtzdHJva2Utd2lkdGg6MTsiLz48dGV4dCBmaWxsPSIjMDAwMDAwIiBmb250LWZhbWlseT0ic2Fucy1zZXJpZiIgZm9udC1zaXplPSIxMyIgbGVuZ3RoQWRqdXN0PSJzcGFjaW5nIiB0ZXh0TGVuZ3RoPSIyNiIgeD0iMTc5IiB5PSIyNzUuNzg5MSI+c2lnbjwvdGV4dD48dGV4dCBmaWxsPSIjMDAwMDAwIiBmb250LWZhbWlseT0ic2Fucy1zZXJpZiIgZm9udC1zaXplPSIxMyIgbGVuZ3RoQWRqdXN0PSJzcGFjaW5nIiB0ZXh0TGVuZ3RoPSI2LjUiIHg9IjIwNSIgeT0iMjc1Ljc4OTEiPiYjMTYwOzwvdGV4dD48dGV4dCBmaWxsPSIjMDAwMDAwIiBmb250LWZhbWlseT0ic2Fucy1zZXJpZiIgZm9udC1zaXplPSIxMyIgbGVuZ3RoQWRqdXN0PSJzcGFjaW5nIiB0ZXh0TGVuZ3RoPSIxMyIgeD0iMjExLjUiIHk9IjI3NS43ODkxIj50eDwvdGV4dD48dGV4dCBmaWxsPSIjMDAwMDAwIiBmb250LWZhbWlseT0ic2Fucy1zZXJpZiIgZm9udC1zaXplPSIxMyIgbGVuZ3RoQWRqdXN0PSJzcGFjaW5nIiB0ZXh0TGVuZ3RoPSI3MS41IiB4PSIxNjYiIHk9IjI4OS43MDMxIj4oZXRoZXJzLmpzKTwvdGV4dD48L2c+PCEtLWxpbmsgUmVhY3QgdG8gQ29pbkdlY2tvLS0+PGcgY2xhc3M9ImxpbmsiIGRhdGEtZW50aXR5LTE9IlJlYWN0IiBkYXRhLWVudGl0eS0yPSJDb2luR2Vja28iIGRhdGEtc291cmNlLWxpbmU9IjQ0IiBkYXRhLXVpZD0ibG5rMjIiIGlkPSJsaW5rX1JlYWN0X0NvaW5HZWNrbyI+PHBhdGggZD0iTTE5My40MywyMzIuNjIgQzIxMC43LDI0MS4yMiAyMjkuNjEsMjUxLjUzIDI0NiwyNjIuNSBDMjgxLjI3LDI4Ni4xMiAzMTMuNDMwNywzMTQuOTM2MyAzMzUuODQwNywzMzYuMzM2MyIgZmlsbD0ibm9uZSIgaWQ9IlJlYWN0LXRvLUNvaW5HZWNrbyIgc3R5bGU9InN0cm9rZTojMTgxODE4O3N0cm9rZS13aWR0aDoxOyIvPjxwb2x5Z29uIGZpbGw9IiMxODE4MTgiIHBvaW50cz0iMzQwLjE4LDM0MC40OCwzMzYuNDMzNSwzMzEuMzcxNSwzMzYuNTYzOSwzMzcuMDI2OSwzMzAuOTA4NiwzMzcuMTU3MywzNDAuMTgsMzQwLjQ4IiBzdHlsZT0ic3Ryb2tlOiMxODE4MTg7c3Ryb2tlLXdpZHRoOjE7Ii8+PHRleHQgZmlsbD0iIzAwMDAwMCIgZm9udC1mYW1pbHk9InNhbnMtc2VyaWYiIGZvbnQtc2l6ZT0iMTMiIGxlbmd0aEFkanVzdD0ic3BhY2luZyIgdGV4dExlbmd0aD0iMTkuNSIgeD0iMjg0IiB5PSIyNzUuNzg5MSI+R0VUPC90ZXh0Pjx0ZXh0IGZpbGw9IiMwMDAwMDAiIGZvbnQtZmFtaWx5PSJzYW5zLXNlcmlmIiBmb250LXNpemU9IjEzIiBsZW5ndGhBZGp1c3Q9InNwYWNpbmciIHRleHRMZW5ndGg9IjYuNSIgeD0iMzAzLjUiIHk9IjI3NS43ODkxIj4mIzE2MDs8L3RleHQ+PHRleHQgZmlsbD0iIzAwMDAwMCIgZm9udC1mYW1pbHk9InNhbnMtc2VyaWYiIGZvbnQtc2l6ZT0iMTMiIGxlbmd0aEFkanVzdD0ic3BhY2luZyIgdGV4dExlbmd0aD0iMTkuNSIgeD0iMzEwIiB5PSIyNzUuNzg5MSI+RVRIPC90ZXh0Pjx0ZXh0IGZpbGw9IiMwMDAwMDAiIGZvbnQtZmFtaWx5PSJzYW5zLXNlcmlmIiBmb250LXNpemU9IjEzIiBsZW5ndGhBZGp1c3Q9InNwYWNpbmciIHRleHRMZW5ndGg9IjYuNSIgeD0iMzI5LjUiIHk9IjI3NS43ODkxIj4mIzE2MDs8L3RleHQ+PHRleHQgZmlsbD0iIzAwMDAwMCIgZm9udC1mYW1pbHk9InNhbnMtc2VyaWYiIGZvbnQtc2l6ZT0iMTMiIGxlbmd0aEFkanVzdD0ic3BhY2luZyIgdGV4dExlbmd0aD0iMzIuNSIgeD0iMzM2IiB5PSIyNzUuNzg5MSI+cHJpY2U8L3RleHQ+PHRleHQgZmlsbD0iIzAwMDAwMCIgZm9udC1mYW1pbHk9InNhbnMtc2VyaWYiIGZvbnQtc2l6ZT0iMTMiIGxlbmd0aEFkanVzdD0ic3BhY2luZyIgdGV4dExlbmd0aD0iMzIuNSIgeD0iMzEwIiB5PSIyODkuNzAzMSI+KFJPTik8L3RleHQ+PC9nPjwhLS1saW5rIFJlYWN0IHRvIFN0cmlwZS0tPjxnIGNsYXNzPSJsaW5rIiBkYXRhLWVudGl0eS0xPSJSZWFjdCIgZGF0YS1lbnRpdHktMj0iU3RyaXBlIiBkYXRhLXNvdXJjZS1saW5lPSI0NSIgZGF0YS11aWQ9ImxuazIzIiBpZD0ibGlua19SZWFjdF9TdHJpcGUiPjxwYXRoIGQ9Ik0yNDguMDMsMjEwLjY0IEMzNjEuNDEsMjE2LjQ1IDU0Mi42NCwyMzYgNjg1LDI5OS41IEM4MzAuMjUsMzY0LjI5IDg5Mi4xMiwzNTYuMDcgOTk2LDQ3Ni41IEMxMDM5Ljg1LDUyNy4zNCAxMDU3LjIxMDYsNjAyLjM5MjUgMTA2My4zNjA2LDYzNy4wMTI1IiBmaWxsPSJub25lIiBpZD0iUmVhY3QtdG8tU3RyaXBlIiBzdHlsZT0ic3Ryb2tlOiMxODE4MTg7c3Ryb2tlLXdpZHRoOjE7Ii8+PHBvbHlnb24gZmlsbD0iIzE4MTgxOCIgcG9pbnRzPSIxMDY0LjQxLDY0Mi45MiwxMDY2Ljc3NDIsNjMzLjM1OTEsMTA2My41MzU1LDYzNy45OTcxLDEwNTguODk3NSw2MzQuNzU4NCwxMDY0LjQxLDY0Mi45MiIgc3R5bGU9InN0cm9rZTojMTgxODE4O3N0cm9rZS13aWR0aDoxOyIvPjx0ZXh0IGZpbGw9IiMwMDAwMDAiIGZvbnQtZmFtaWx5PSJzYW5zLXNlcmlmIiBmb250LXNpemU9IjEzIiBsZW5ndGhBZGp1c3Q9InNwYWNpbmciIHRleHRMZW5ndGg9IjEzNi41IiB4PSI5NjkiIHk9IjQzMC43ODkxIj5jcmVhdGVDaGVja291dFNlc3Npb248L3RleHQ+PHRleHQgZmlsbD0iIzAwMDAwMCIgZm9udC1mYW1pbHk9InNhbnMtc2VyaWYiIGZvbnQtc2l6ZT0iMTMiIGxlbmd0aEFkanVzdD0ic3BhY2luZyIgdGV4dExlbmd0aD0iMTMiIHg9IjEwMTcuNzUiIHk9IjQ0NC43MDMxIj5KUzwvdGV4dD48dGV4dCBmaWxsPSIjMDAwMDAwIiBmb250LWZhbWlseT0ic2Fucy1zZXJpZiIgZm9udC1zaXplPSIxMyIgbGVuZ3RoQWRqdXN0PSJzcGFjaW5nIiB0ZXh0TGVuZ3RoPSI2LjUiIHg9IjEwMzAuNzUiIHk9IjQ0NC43MDMxIj4mIzE2MDs8L3RleHQ+PHRleHQgZmlsbD0iIzAwMDAwMCIgZm9udC1mYW1pbHk9InNhbnMtc2VyaWYiIGZvbnQtc2l6ZT0iMTMiIGxlbmd0aEFkanVzdD0ic3BhY2luZyIgdGV4dExlbmd0aD0iMTkuNSIgeD0iMTAzNy4yNSIgeT0iNDQ0LjcwMzEiPlNESzwvdGV4dD48L2c+PCEtLWxpbmsgUmVhY3QgdG8gU2VydmVyLS0+PGcgY2xhc3M9ImxpbmsiIGRhdGEtZW50aXR5LTE9IlJlYWN0IiBkYXRhLWVudGl0eS0yPSJTZXJ2ZXIiIGRhdGEtc291cmNlLWxpbmU9IjQ2IiBkYXRhLXVpZD0ibG5rMjQiIGlkPSJsaW5rX1JlYWN0X1NlcnZlciI+PHBhdGggZD0iTTI0OC4yLDIyOC44IEMyODkuMDIsMjM3LjU5IDMzNS41OCwyNDguOTkgMzc3LDI2Mi41IEM0NDkuNDQsMjg2LjEzIDUyNS4wNTY3LDMyMS4xNTEgNTY5LjMwNjcsMzQyLjcyMSIgZmlsbD0ibm9uZSIgaWQ9IlJlYWN0LXRvLVNlcnZlciIgc3R5bGU9InN0cm9rZTojMTgxODE4O3N0cm9rZS13aWR0aDoxOyIvPjxwb2x5Z29uIGZpbGw9IiMxODE4MTgiIHBvaW50cz0iNTc0LjcsMzQ1LjM1LDU2OC4zNjI3LDMzNy44MTA5LDU3MC4yMDU1LDM0My4xNTkxLDU2NC44NTczLDM0NS4wMDIsNTc0LjcsMzQ1LjM1IiBzdHlsZT0ic3Ryb2tlOiMxODE4MTg7c3Ryb2tlLXdpZHRoOjE7Ii8+PHRleHQgZmlsbD0iIzAwMDAwMCIgZm9udC1mYW1pbHk9InNhbnMtc2VyaWYiIGZvbnQtc2l6ZT0iMTMiIGxlbmd0aEFkanVzdD0ic3BhY2luZyIgdGV4dExlbmd0aD0iMjYiIHg9IjQ1NSIgeT0iMjgyLjc4OTEiPlJFU1Q8L3RleHQ+PHRleHQgZmlsbD0iIzAwMDAwMCIgZm9udC1mYW1pbHk9InNhbnMtc2VyaWYiIGZvbnQtc2l6ZT0iMTMiIGxlbmd0aEFkanVzdD0ic3BhY2luZyIgdGV4dExlbmd0aD0iNi41IiB4PSI0ODEiIHk9IjI4Mi43ODkxIj4mIzE2MDs8L3RleHQ+PHRleHQgZmlsbD0iIzAwMDAwMCIgZm9udC1mYW1pbHk9InNhbnMtc2VyaWYiIGZvbnQtc2l6ZT0iMTMiIGxlbmd0aEFkanVzdD0ic3BhY2luZyIgdGV4dExlbmd0aD0iMzkiIHg9IjQ4Ny41IiB5PSIyODIuNzg5MSI+L2FwaS8qPC90ZXh0Pjx0ZXh0IGZpbGw9IiMwMDAwMDAiIGZvbnQtZmFtaWx5PSJzYW5zLXNlcmlmIiBmb250LXNpemU9IjEzIiBsZW5ndGhBZGp1c3Q9InNwYWNpbmciIHRleHRMZW5ndGg9IjYuNSIgeD0iNTI2LjUiIHk9IjI4Mi43ODkxIj4mIzE2MDs8L3RleHQ+PHRleHQgZmlsbD0iIzAwMDAwMCIgZm9udC1mYW1pbHk9InNhbnMtc2VyaWYiIGZvbnQtc2l6ZT0iMTMiIGxlbmd0aEFkanVzdD0ic3BhY2luZyIgdGV4dExlbmd0aD0iMzIuNSIgeD0iNTMzIiB5PSIyODIuNzg5MSI+KEpXVCk8L3RleHQ+PC9nPjwhLS1saW5rIFNlcnZlciB0byBNVy0tPjxnIGNsYXNzPSJsaW5rIiBkYXRhLWVudGl0eS0xPSJTZXJ2ZXIiIGRhdGEtZW50aXR5LTI9Ik1XIiBkYXRhLXNvdXJjZS1saW5lPSI0OSIgZGF0YS11aWQ9ImxuazI1IiBpZD0ibGlua19TZXJ2ZXJfTVciPjxwYXRoIGQ9Ik02MzguMDUsMzgwLjUyIEM2ODQuMTYsNDA1Ljg2IDc2Ny4zMzE4LDQ1MS41NzAyIDgyMC42ODE4LDQ4MC44OTAyIiBmaWxsPSJub25lIiBpZD0iU2VydmVyLXRvLU1XIiBzdHlsZT0ic3Ryb2tlOiMxODE4MTg7c3Ryb2tlLXdpZHRoOjE7Ii8+PHBvbHlnb24gZmlsbD0iIzE4MTgxOCIgcG9pbnRzPSI4MjUuOTQsNDgzLjc4LDgxOS45NzkyLDQ3NS45Mzk4LDgyMS41NTgxLDQ4MS4zNzE4LDgxNi4xMjYxLDQ4Mi45NTA4LDgyNS45NCw0ODMuNzgiIHN0eWxlPSJzdHJva2U6IzE4MTgxODtzdHJva2Utd2lkdGg6MTsiLz48L2c+PCEtLWxpbmsgU2VydmVyIHRvIEN0cmxzLS0+PGcgY2xhc3M9ImxpbmsiIGRhdGEtZW50aXR5LTE9IlNlcnZlciIgZGF0YS1lbnRpdHktMj0iQ3RybHMiIGRhdGEtc291cmNlLWxpbmU9IjUwIiBkYXRhLXVpZD0ibG5rMjYiIGlkPSJsaW5rX1NlcnZlcl9DdHJscyI+PHBhdGggZD0iTTYwOCwzODAuNTIgQzYwOCw0MDMuNzkgNjA4LDQ0MC42OCA2MDgsNDcwLjI0IiBmaWxsPSJub25lIiBpZD0iU2VydmVyLXRvLUN0cmxzIiBzdHlsZT0ic3Ryb2tlOiMxODE4MTg7c3Ryb2tlLXdpZHRoOjE7Ii8+PHBvbHlnb24gZmlsbD0iIzE4MTgxOCIgcG9pbnRzPSI2MDgsNDc2LjI0LDYxMiw0NjcuMjQsNjA4LDQ3MS4yNCw2MDQsNDY3LjI0LDYwOCw0NzYuMjQiIHN0eWxlPSJzdHJva2U6IzE4MTgxODtzdHJva2Utd2lkdGg6MTsiLz48L2c+PCEtLWxpbmsgQ3RybHMgdG8gTW9uZ28tLT48ZyBjbGFzcz0ibGluayIgZGF0YS1lbnRpdHktMT0iQ3RybHMiIGRhdGEtZW50aXR5LTI9Ik1vbmdvIiBkYXRhLXNvdXJjZS1saW5lPSI1MSIgZGF0YS11aWQ9ImxuazI3IiBpZD0ibGlua19DdHJsc19Nb25nbyI+PHBhdGggZD0iTTU5MS42Nyw1NDEuNzEgQzU3Ni42Niw1NzAuODUgNTU3LjU3NjYsNjA3Ljg5NTYgNTQ0LjYwNjYsNjMzLjA4NTYiIGZpbGw9Im5vbmUiIGlkPSJDdHJscy10by1Nb25nbyIgc3R5bGU9InN0cm9rZTojMTgxODE4O3N0cm9rZS13aWR0aDoxOyIvPjxwb2x5Z29uIGZpbGw9IiMxODE4MTgiIHBvaW50cz0iNTQxLjg2LDYzOC40Miw1NDkuNTM2Miw2MzIuMjQ5NCw1NDQuMTQ4OSw2MzMuOTc0Niw1NDIuNDIzNyw2MjguNTg3Myw1NDEuODYsNjM4LjQyIiBzdHlsZT0ic3Ryb2tlOiMxODE4MTg7c3Ryb2tlLXdpZHRoOjE7Ii8+PC9nPjwhLS1saW5rIEN0cmxzIHRvIFVwbG9hZHMtLT48ZyBjbGFzcz0ibGluayIgZGF0YS1lbnRpdHktMT0iQ3RybHMiIGRhdGEtZW50aXR5LTI9IlVwbG9hZHMiIGRhdGEtc291cmNlLWxpbmU9IjUyIiBkYXRhLXVpZD0ibG5rMjgiIGlkPSJsaW5rX0N0cmxzX1VwbG9hZHMiPjxwYXRoIGQ9Ik02OTguODUsNTQxLjUyIEM3MzMuNjQsNTU1LjQyIDc3Mi45LDU3My40MiA4MDYsNTk0LjUgQzgyNC4zOSw2MDYuMjEgODM4Ljk1MTksNjE3LjM3NzQgODU0LjEyMTksNjMwLjAyNzQiIGZpbGw9Im5vbmUiIGlkPSJDdHJscy10by1VcGxvYWRzIiBzdHlsZT0ic3Ryb2tlOiMxODE4MTg7c3Ryb2tlLXdpZHRoOjE7Ii8+PHBvbHlnb24gZmlsbD0iIzE4MTgxOCIgcG9pbnRzPSI4NTguNzMsNjMzLjg3LDg1NC4zNzk2LDYyNS4wMzQsODU0Ljg4OTksNjMwLjY2NzgsODQ5LjI1NjEsNjMxLjE3ODIsODU4LjczLDYzMy44NyIgc3R5bGU9InN0cm9rZTojMTgxODE4O3N0cm9rZS13aWR0aDoxOyIvPjwvZz48IS0tbGluayBDdHJscyB0byBNYWlsZXItLT48ZyBjbGFzcz0ibGluayIgZGF0YS1lbnRpdHktMT0iQ3RybHMiIGRhdGEtZW50aXR5LTI9Ik1haWxlciIgZGF0YS1zb3VyY2UtbGluZT0iNTMiIGRhdGEtdWlkPSJsbmsyOSIgaWQ9ImxpbmtfQ3RybHNfTWFpbGVyIj48cGF0aCBkPSJNNjIwLjgsNTQxLjg1IEM2MjcuMDIsNTU1Ljk3IDYzNS4wOCw1NzIuNTIgNjQ0LDU4Ni41IEM2NTcuMjQsNjA3LjI1IDY3MS42NTMyLDYyNC4xNjc3IDY4NC44MDMyLDYzOC4zNjc3IiBmaWxsPSJub25lIiBpZD0iQ3RybHMtdG8tTWFpbGVyIiBzdHlsZT0ic3Ryb2tlOiMxODE4MTg7c3Ryb2tlLXdpZHRoOjE7Ii8+PHBvbHlnb24gZmlsbD0iIzE4MTgxOCIgcG9pbnRzPSI2ODguODgsNjQyLjc3LDY4NS42OTk3LDYzMy40NDg3LDY4NS40ODI3LDYzOS4xMDE0LDY3OS44Myw2MzguODg0NCw2ODguODgsNjQyLjc3IiBzdHlsZT0ic3Ryb2tlOiMxODE4MTg7c3Ryb2tlLXdpZHRoOjE7Ii8+PHRleHQgZmlsbD0iIzAwMDAwMCIgZm9udC1mYW1pbHk9InNhbnMtc2VyaWYiIGZvbnQtc2l6ZT0iMTMiIGxlbmd0aEFkanVzdD0ic3BhY2luZyIgdGV4dExlbmd0aD0iMjYiIHg9IjY0NSIgeT0iNTg0Ljc4OTEiPnNlbmQ8L3RleHQ+PHRleHQgZmlsbD0iIzAwMDAwMCIgZm9udC1mYW1pbHk9InNhbnMtc2VyaWYiIGZvbnQtc2l6ZT0iMTMiIGxlbmd0aEFkanVzdD0ic3BhY2luZyIgdGV4dExlbmd0aD0iNi41IiB4PSI2NzEiIHk9IjU4NC43ODkxIj4mIzE2MDs8L3RleHQ+PHRleHQgZmlsbD0iIzAwMDAwMCIgZm9udC1mYW1pbHk9InNhbnMtc2VyaWYiIGZvbnQtc2l6ZT0iMTMiIGxlbmd0aEFkanVzdD0ic3BhY2luZyIgdGV4dExlbmd0aD0iNzgiIHg9IjY3Ny41IiB5PSI1ODQuNzg5MSI+Y29uZmlybWF0aW9uPC90ZXh0PjwvZz48IS0tbGluayBDdHJscyB0byBTdHJpcGUtLT48ZyBjbGFzcz0ibGluayIgZGF0YS1lbnRpdHktMT0iQ3RybHMiIGRhdGEtZW50aXR5LTI9IlN0cmlwZSIgZGF0YS1zb3VyY2UtbGluZT0iNTQiIGRhdGEtdWlkPSJsbmszMCIgaWQ9ImxpbmtfQ3RybHNfU3RyaXBlIj48cGF0aCBkPSJNNzI1Ljk4LDU0MS41NCBDNzgzLjg4LDU1Ni4zOCA4NTQuODEsNTczLjYgOTE5LDU4Ni41IEM5NDEuNDksNTkxLjAyIDk0OC42Myw1ODYuMTQgOTcwLDU5NC41IEM5OTkuNDUsNjA2LjAyIDEwMjQuMzc0NSw2MjMuODU1IDEwNDIuOTg0NSw2MzguOTg1IiBmaWxsPSJub25lIiBpZD0iQ3RybHMtdG8tU3RyaXBlIiBzdHlsZT0ic3Ryb2tlOiMxODE4MTg7c3Ryb2tlLXdpZHRoOjE7Ii8+PHBvbHlnb24gZmlsbD0iIzE4MTgxOCIgcG9pbnRzPSIxMDQ3LjY0LDY0Mi43NywxMDQzLjE4LDYzMy45ODg5LDEwNDMuNzYwNCw2MzkuNjE1OSwxMDM4LjEzMzQsNjQwLjE5NjIsMTA0Ny42NCw2NDIuNzciIHN0eWxlPSJzdHJva2U6IzE4MTgxODtzdHJva2Utd2lkdGg6MTsiLz48dGV4dCBmaWxsPSIjMDAwMDAwIiBmb250LWZhbWlseT0ic2Fucy1zZXJpZiIgZm9udC1zaXplPSIxMyIgbGVuZ3RoQWRqdXN0PSJzcGFjaW5nIiB0ZXh0TGVuZ3RoPSIzOSIgeD0iOTIwIiB5PSI1ODQuNzg5MSI+dmVyaWZ5PC90ZXh0Pjx0ZXh0IGZpbGw9IiMwMDAwMDAiIGZvbnQtZmFtaWx5PSJzYW5zLXNlcmlmIiBmb250LXNpemU9IjEzIiBsZW5ndGhBZGp1c3Q9InNwYWNpbmciIHRleHRMZW5ndGg9IjYuNSIgeD0iOTU5IiB5PSI1ODQuNzg5MSI+JiMxNjA7PC90ZXh0Pjx0ZXh0IGZpbGw9IiMwMDAwMDAiIGZvbnQtZmFtaWx5PSJzYW5zLXNlcmlmIiBmb250LXNpemU9IjEzIiBsZW5ndGhBZGp1c3Q9InNwYWNpbmciIHRleHRMZW5ndGg9IjQ1LjUiIHg9Ijk2NS41IiB5PSI1ODQuNzg5MSI+d2ViaG9vazwvdGV4dD48L2c+PCEtLWxpbmsgQ3RybHMgdG8gQ29udHJhY3QtLT48ZyBjbGFzcz0ibGluayIgZGF0YS1lbnRpdHktMT0iQ3RybHMiIGRhdGEtZW50aXR5LTI9IkNvbnRyYWN0IiBkYXRhLXNvdXJjZS1saW5lPSI1NSIgZGF0YS11aWQ9ImxuazMxIiBpZD0ibGlua19DdHJsc19Db250cmFjdCI+PHBhdGggZD0iTTUyMC41Myw1NDEuNTYgQzQ5Ny4wNSw1NTAuNjUgNDcxLjg1LDU2MC45NyA0NDksNTcxLjUgQzQwNi41MSw1OTEuMDkgMzY0Ljg2OTcsNjEzLjg2MzUgMzMyLjM0OTcsNjMyLjQ0MzUiIGZpbGw9Im5vbmUiIGlkPSJDdHJscy10by1Db250cmFjdCIgc3R5bGU9InN0cm9rZTojMTgxODE4O3N0cm9rZS13aWR0aDoxOyIvPjxwb2x5Z29uIGZpbGw9IiMxODE4MTgiIHBvaW50cz0iMzI3LjE0LDYzNS40MiwzMzYuOTM4OCw2MzQuNDI4NCwzMzEuNDgxNCw2MzIuOTM5NiwzMzIuOTcwMiw2MjcuNDgyMiwzMjcuMTQsNjM1LjQyIiBzdHlsZT0ic3Ryb2tlOiMxODE4MTg7c3Ryb2tlLXdpZHRoOjE7Ii8+PHRleHQgZmlsbD0iIzAwMDAwMCIgZm9udC1mYW1pbHk9InNhbnMtc2VyaWYiIGZvbnQtc2l6ZT0iMTMiIGxlbmd0aEFkanVzdD0ic3BhY2luZyIgdGV4dExlbmd0aD0iNTguNSIgeD0iNDUwIiB5PSI1ODQuNzg5MSI+ZXRoZXJzLmpzPC90ZXh0Pjx0ZXh0IGZpbGw9IiMwMDAwMDAiIGZvbnQtZmFtaWx5PSJzYW5zLXNlcmlmIiBmb250LXNpemU9IjEzIiBsZW5ndGhBZGp1c3Q9InNwYWNpbmciIHRleHRMZW5ndGg9IjYuNSIgeD0iNTA4LjUiIHk9IjU4NC43ODkxIj4mIzE2MDs8L3RleHQ+PHRleHQgZmlsbD0iIzAwMDAwMCIgZm9udC1mYW1pbHk9InNhbnMtc2VyaWYiIGZvbnQtc2l6ZT0iMTMiIGxlbmd0aEFkanVzdD0ic3BhY2luZyIgdGV4dExlbmd0aD0iMTkuNSIgeD0iNTE1IiB5PSI1ODQuNzg5MSI+dmlhPC90ZXh0Pjx0ZXh0IGZpbGw9IiMwMDAwMDAiIGZvbnQtZmFtaWx5PSJzYW5zLXNlcmlmIiBmb250LXNpemU9IjEzIiBsZW5ndGhBZGp1c3Q9InNwYWNpbmciIHRleHRMZW5ndGg9IjYuNSIgeD0iNTM0LjUiIHk9IjU4NC43ODkxIj4mIzE2MDs8L3RleHQ+PHRleHQgZmlsbD0iIzAwMDAwMCIgZm9udC1mYW1pbHk9InNhbnMtc2VyaWYiIGZvbnQtc2l6ZT0iMTMiIGxlbmd0aEFkanVzdD0ic3BhY2luZyIgdGV4dExlbmd0aD0iMTkuNSIgeD0iNTQxIiB5PSI1ODQuNzg5MSI+QUJJPC90ZXh0PjwvZz48IS0tbGluayBNZXRhTWFzayB0byBDb250cmFjdC0tPjxnIGNsYXNzPSJsaW5rIiBkYXRhLWVudGl0eS0xPSJNZXRhTWFzayIgZGF0YS1lbnRpdHktMj0iQ29udHJhY3QiIGRhdGEtc291cmNlLWxpbmU9IjU4IiBkYXRhLXVpZD0ibG5rMzIiIGlkPSJsaW5rX01ldGFNYXNrX0NvbnRyYWN0Ij48cGF0aCBkPSJNMTkzLjM1LDM4NS43MyBDMjExLjU4LDQzOS41OCAyNTYuNzk2Niw1NzMuMjE2NiAyNzUuODc2Niw2MjkuNTk2NiIgZmlsbD0ibm9uZSIgaWQ9Ik1ldGFNYXNrLXRvLUNvbnRyYWN0IiBzdHlsZT0ic3Ryb2tlOiMxODE4MTg7c3Ryb2tlLXdpZHRoOjE7Ii8+PHBvbHlnb24gZmlsbD0iIzE4MTgxOCIgcG9pbnRzPSIyNzcuOCw2MzUuMjgsMjc4LjcwMzksNjI1LjQ3MjcsMjc2LjE5NzIsNjMwLjU0MzksMjcxLjEyNjEsNjI4LjAzNzIsMjc3LjgsNjM1LjI4IiBzdHlsZT0ic3Ryb2tlOiMxODE4MTg7c3Ryb2tlLXdpZHRoOjE7Ii8+PHRleHQgZmlsbD0iIzAwMDAwMCIgZm9udC1mYW1pbHk9InNhbnMtc2VyaWYiIGZvbnQtc2l6ZT0iMTMiIGxlbmd0aEFkanVzdD0ic3BhY2luZyIgdGV4dExlbmd0aD0iMTMiIHg9IjI0NiIgeT0iNTE0Ljc4OTEiPnR4PC90ZXh0Pjx0ZXh0IGZpbGw9IiMwMDAwMDAiIGZvbnQtZmFtaWx5PSJzYW5zLXNlcmlmIiBmb250LXNpemU9IjEzIiBsZW5ndGhBZGp1c3Q9InNwYWNpbmciIHRleHRMZW5ndGg9IjMyLjUiIHg9IjIzOS4wNjQxIiB5PSI2MjUuNzgwNyI+cGF5KCk8L3RleHQ+PC9nPjwhLS1saW5rIENvbnRyYWN0IHRvIEFCSS0tPjxnIGNsYXNzPSJsaW5rIiBkYXRhLWVudGl0eS0xPSJDb250cmFjdCIgZGF0YS1lbnRpdHktMj0iQUJJIiBkYXRhLXNvdXJjZS1saW5lPSI1OSIgZGF0YS11aWQ9ImxuazMzIiBpZD0ibGlua19Db250cmFjdF9BQkkiPjxwYXRoIGQ9Ik0yODQuODMsNjg1Ljc3IEMyODMuNiw3MTEuMTcgMjgxLjk2OTYsNzQ1LjAxNyAyODAuNjY5Niw3NzEuOTE3IiBmaWxsPSJub25lIiBpZD0iQ29udHJhY3QtdG8tQUJJIiBzdHlsZT0ic3Ryb2tlOiMxODE4MTg7c3Ryb2tlLXdpZHRoOjE7Ii8+PHBvbHlnb24gZmlsbD0iIzE4MTgxOCIgcG9pbnRzPSIyODAuMzgsNzc3LjkxLDI4NC44MDk4LDc2OS4xMTM2LDI4MC42MjE0LDc3Mi45MTU4LDI3Ni44MTkxLDc2OC43Mjc0LDI4MC4zOCw3NzcuOTEiIHN0eWxlPSJzdHJva2U6IzE4MTgxODtzdHJva2Utd2lkdGg6MTsiLz48dGV4dCBmaWxsPSIjMDAwMDAwIiBmb250LWZhbWlseT0ic2Fucy1zZXJpZiIgZm9udC1zaXplPSIxMyIgbGVuZ3RoQWRqdXN0PSJzcGFjaW5nIiB0ZXh0TGVuZ3RoPSIxOS41IiB4PSIyODQiIHk9IjczMi4yODkxIj5BQkk8L3RleHQ+PHRleHQgZmlsbD0iIzAwMDAwMCIgZm9udC1mYW1pbHk9InNhbnMtc2VyaWYiIGZvbnQtc2l6ZT0iMTMiIGxlbmd0aEFkanVzdD0ic3BhY2luZyIgdGV4dExlbmd0aD0iNi41IiB4PSIzMDMuNSIgeT0iNzMyLjI4OTEiPiYjMTYwOzwvdGV4dD48dGV4dCBmaWxsPSIjMDAwMDAwIiBmb250LWZhbWlseT0ic2Fucy1zZXJpZiIgZm9udC1zaXplPSIxMyIgbGVuZ3RoQWRqdXN0PSJzcGFjaW5nIiB0ZXh0TGVuZ3RoPSI2LjUiIHg9IjMxMCIgeT0iNzMyLjI4OTEiPiZhbXA7PC90ZXh0Pjx0ZXh0IGZpbGw9IiMwMDAwMDAiIGZvbnQtZmFtaWx5PSJzYW5zLXNlcmlmIiBmb250LXNpemU9IjEzIiBsZW5ndGhBZGp1c3Q9InNwYWNpbmciIHRleHRMZW5ndGg9IjYuNSIgeD0iMzE2LjUiIHk9IjczMi4yODkxIj4mIzE2MDs8L3RleHQ+PHRleHQgZmlsbD0iIzAwMDAwMCIgZm9udC1mYW1pbHk9InNhbnMtc2VyaWYiIGZvbnQtc2l6ZT0iMTMiIGxlbmd0aEFkanVzdD0ic3BhY2luZyIgdGV4dExlbmd0aD0iNDUuNSIgeD0iMzIzIiB5PSI3MzIuMjg5MSI+YWRkcmVzczwvdGV4dD48dGV4dCBmaWxsPSIjMDAwMDAwIiBmb250LWZhbWlseT0ic2Fucy1zZXJpZiIgZm9udC1zaXplPSIxMyIgbGVuZ3RoQWRqdXN0PSJzcGFjaW5nIiB0ZXh0TGVuZ3RoPSIzOSIgeD0iMzA2Ljc1IiB5PSI3NDYuMjAzMSI+ZXhwb3J0PC90ZXh0PjwvZz48IS0tU1JDPVtOTEpEUlhmOTRCeEZLdkd1bjkzV0U5bEpvYjhZM1BYcmQzSzlPaDB1bjdpZXB2SVhHekN6d2N1QzliZWZLZnVXeHhIRmlhLUl3Zi0xOEhuNk5MTFZMelROekhMZHlDeF9lNzNGS2dYNWozQXg0Z2Y2V3NpZXpSaE1ZZkpwMDA5M2ZLRXJhREkyNkJySExRY0Q4V0Rfamxuc1lQTlUtZ0pFUkRlTmpXUmhrUVpTNGp3LVZURm9MX0k4Ni1iY2o3RXY1MGtydmNVWHYwLVA1Y2dEa3A1UFltaWduOXhXM3F3SGRJS01VVWNxaU9hNFVXQ3dHb2F1SEdWR0dabXNXR19RRWtYVXV4eHd4cVNsbkJzZFlVUkxNZ1pXM1FWWjZ0eVBoVHBfdHQtSWdqOTNJYlM0MHdFdGJabG1CT0RacXcwcDlTdTduSUlfTC03ODV3VHdtdXB3Q0VHeUpCS0ZJd3JORFptTDgzdzFyOWlBRWNEb0U0UXgyaDc2b0Z1enJaQjBTZkxBd092c2pVNi16RGY1VEpwMEhfRjlKS1pJc0J4QUItYTY1NklVb0ZwWnVfNXVJaTdOUVJJS1BFb3p3V3ZuWnFScXVPZ2k0bWdUdUZFS3pkbWxrRS1pZnBPYjdqbFVYb09JN1NSazNmc0h6WkpyTTVJTGYycVFrYlNWdnBGOERzeFBYcDZCODZIMUh5cGtMZ241ZER6dXBqU2hKbFkwYmljRGpMaGVnbTdhSmNCaU5fMlNGYjR1OHNnMnVrZmxVMExwVWwzRDNqV09FMExfdWdRaktKMUwxZV9TYVdvWFo5YzNiejZGTWJPU3hqcExLY0RiYW5xbW9OS284QWRCTFJiNGVTMHd4ZHFRSmZobERJZWlibUdDR1dhMTVYOHJfai1xREM1ZGxuOVg3Z29KcnJQQjdhWURwX1dXZ0ctVmp5ZVZLaENKd0FIWFBOOVVpVVZyTHdsTGxTZTdEcW1yaG9nbFgyWnRtS3NSbU1aN2lyMVM3V19zSVBIYUpvYUNqTDNOTEF1cUowbjczcTh4LTgtUFJlTFFEUlZGdUZweV82SUxYNXpwaGFyZVBSRXVnOG52N3JTMkJrN2sxWXcyRmhCZXlSNWM5SlhpLVZ5MnQwd3d2QVRjY0xzbDFKbk1VR2ROZW5jQ1BYLVczbExzZnZ5X2pQNTlCZlRHeWtXVDNQVi1yaU9MdDFzazMzdU1OYWJqVjVXT25hejduR21raTFPTkJ3N0JNa3ZiWU1IMjE3eFNIdmliSG8wbVJyam5HUzh0SGVFUVp0UVpobk9ZUWZOZi1uUm9VMS01TVFGbE9HanFlQ0psWUNUZHNDT2JRMjRRaUozY3EzdnU0WFlxYTZZcWI1bVpKLTdHLXp5SXkwbXdCQ2JraHZDVGwxeFlYTk9QbFl5MGV6bzBUaEtzeFhTMF0tLT48L2c+PC9zdmc+;" vertex="1" parent="1">
            <mxGeometry x="-50" y="174" width="558.66" height="410" as="geometry" />
          </mxCell>
        </UserObject>
        <UserObject label="" plantUmlData="{&quot;data&quot;:&quot;@startuml Arhitectura_Platforma\n\n&#39; ========= Stil ==========\nskinparam componentStyle rectangle\nskinparam roundcorner 8\nskinparam shadowing true\nskinparam wrapWidth 240\nskinparam defaultTextAlignment center\nskinparam maxMessageSize 120\nskinparam linetype ortho\n\n&#39; ========= Actori ==========\nactor \&quot;Client\&quot; as Client\nactor \&quot;Gazdă\&quot; as Host\nactor \&quot;Administrator\&quot; as Admin\n\n&#39; ========= Front‑end ==========\nnode \&quot;Browser / Mobil\&quot; as Browser {\n  component \&quot;Aplicație React SPA\\nReact Router, Context, hooks\&quot; as React\n  cloud \&quot;MetaMask\&quot; as MetaMask\n  React --&gt; MetaMask : semnează tranzacție\\n(Ethers.js)\n}\n\n&#39; ========= Backend (Express) ==========\nnode \&quot;API Backend (Express)\&quot; as Backend {\n  [Server Express] as Server\n  component \&quot;Middleware\\nJWT, Multer, Limitare Rată\&quot; as MW\n  component \&quot;Controllere\\n(Destinații, Cazări, Rezervări, Utilizatori, Recenzii, Plăți)\&quot; as Ctrls\n  database \&quot;MongoDB Atlas\&quot; as Mongo\n  component \&quot;Stripe SDK + Webhook\&quot; as Stripe\n  component \&quot;Nodemailer + Ethereal\&quot; as Mailer\n  folder \&quot;Director Uploads\\n(/uploads ↔ S3)\&quot; as Uploads\n  component \&quot;WebSocket\\nNotificări\&quot; as WS\n  Server --&gt; MW\n  Server --&gt; Ctrls\n  Ctrls --&gt; Mongo\n  Ctrls --&gt; Uploads\n  Ctrls --&gt; Mailer : trimite email\n  Ctrls --&gt; Stripe : verifică webhook\n  Ctrls --&gt; WS : emite evenimente\n}\n\n&#39; ========= Blockchain ==========\ncloud \&quot;Lanț local Ganache\&quot; as Chain {\n  component \&quot;Smart‑contract PaymentContract.sol\\n(payable, Ownable)\&quot; as Contract\n  database \&quot;contractData.json\\nABI + Adresă\&quot; as ABI\n  Contract --&gt; ABI\n}\n\n&#39; ========= Servicii externe ==========\ncloud \&quot;API CoinGecko\&quot; as CoinGecko\n\n&#39; ========= Legături =========\nClient --&gt; React : UI / Autentificare\nHost --&gt; React\nAdmin --&gt; React\n\nReact --&gt; CoinGecko : rată ETH ↔ RON\nReact --&gt; Stripe : Stripe Checkout\nReact --&gt; Server : REST /api/*\n\nMetaMask --&gt; Contract : tx pay()\n\nCtrls --&gt; Contract : Ethers.js\n\n@enduml\n&quot;,&quot;format&quot;:&quot;svg&quot;}" id="VQlijDAAtIcMO-mg8-n--4">
          <mxCell style="shape=image;noLabel=1;verticalAlign=top;aspect=fixed;imageAspect=0;image=data:image/svg+xml,PHN2ZyB4bWxucz0iaHR0cDovL3d3dy53My5vcmcvMjAwMC9zdmciIHhtbG5zOnhsaW5rPSJodHRwOi8vd3d3LnczLm9yZy8xOTk5L3hsaW5rIiBjb250ZW50U3R5bGVUeXBlPSJ0ZXh0L2NzcyIgZGF0YS1kaWFncmFtLXR5cGU9IkRFU0NSSVBUSU9OIiBoZWlnaHQ9IjcwOXB4IiBwcmVzZXJ2ZUFzcGVjdFJhdGlvPSJub25lIiBzdHlsZT0id2lkdGg6MTMzNnB4O2hlaWdodDo3MDlweDtiYWNrZ3JvdW5kOiNGRkZGRkY7IiB2ZXJzaW9uPSIxLjEiIHZpZXdCb3g9IjAgMCAxMzM2IDcwOSIgd2lkdGg9IjEzMzZweCIgem9vbUFuZFBhbj0ibWFnbmlmeSI+PGRlZnM+PGZpbHRlciBoZWlnaHQ9IjMwMCUiIGlkPSJmdWc5bnU2dXhvNnA2IiB3aWR0aD0iMzAwJSIgeD0iLTEiIHk9Ii0xIj48ZmVHYXVzc2lhbkJsdXIgcmVzdWx0PSJibHVyT3V0IiBzdGREZXZpYXRpb249IjIiLz48ZmVDb2xvck1hdHJpeCBpbj0iYmx1ck91dCIgcmVzdWx0PSJibHVyT3V0MiIgdHlwZT0ibWF0cml4IiB2YWx1ZXM9IjAgMCAwIDAgMCAwIDAgMCAwIDAgMCAwIDAgMCAwIDAgMCAwIC40IDAiLz48ZmVPZmZzZXQgZHg9IjQiIGR5PSI0IiBpbj0iYmx1ck91dDIiIHJlc3VsdD0iYmx1ck91dDMiLz48ZmVCbGVuZCBpbj0iU291cmNlR3JhcGhpYyIgaW4yPSJibHVyT3V0MyIgbW9kZT0ibm9ybWFsIi8+PC9maWx0ZXI+PC9kZWZzPjxnPjwhLS1jbHVzdGVyIEJyb3dzZXItLT48ZyBjbGFzcz0iY2x1c3RlciIgZGF0YS1lbnRpdHk9IkJyb3dzZXIiIGRhdGEtc291cmNlLWxpbmU9IjE2IiBkYXRhLXVpZD0iZW50MDAwNSIgaWQ9ImNsdXN0ZXJfQnJvd3NlciI+PHBvbHlnb24gZmlsbD0ibm9uZSIgZmlsdGVyPSJ1cmwoI2Z1ZzludTZ1eG82cDYpIiBwb2ludHM9Ijc1LDExNS41LDg1LDEwNS41LDMyMywxMDUuNSwzMjMsMzA0LjUsMzEzLDMxNC41LDc1LDMxNC41LDc1LDExNS41IiBzdHlsZT0ic3Ryb2tlOiMxODE4MTg7c3Ryb2tlLXdpZHRoOjE7Ii8+PGxpbmUgc3R5bGU9InN0cm9rZTojMTgxODE4O3N0cm9rZS13aWR0aDoxOyIgeDE9IjMxMyIgeDI9IjMyMyIgeTE9IjExNS41IiB5Mj0iMTA1LjUiLz48bGluZSBzdHlsZT0ic3Ryb2tlOiMxODE4MTg7c3Ryb2tlLXdpZHRoOjE7IiB4MT0iNzUiIHgyPSIzMTMiIHkxPSIxMTUuNSIgeTI9IjExNS41Ii8+PGxpbmUgc3R5bGU9InN0cm9rZTojMTgxODE4O3N0cm9rZS13aWR0aDoxOyIgeDE9IjMxMyIgeDI9IjMxMyIgeTE9IjExNS41IiB5Mj0iMzE0LjUiLz48dGV4dCBmaWxsPSIjMDAwMDAwIiBmb250LWZhbWlseT0ic2Fucy1zZXJpZiIgZm9udC1zaXplPSIxNCIgZm9udC13ZWlnaHQ9ImJvbGQiIGxlbmd0aEFkanVzdD0ic3BhY2luZyIgdGV4dExlbmd0aD0iMTA1IiB4PSIxNDIuNSIgeT0iMTMxLjczNDQiPkJyb3dzZXIgLyBNb2JpbDwvdGV4dD48L2c+PCEtLWNsdXN0ZXIgQmFja2VuZC0tPjxnIGNsYXNzPSJjbHVzdGVyIiBkYXRhLWVudGl0eT0iQmFja2VuZCIgZGF0YS1zb3VyY2UtbGluZT0iMjMiIGRhdGEtdWlkPSJlbnQwMDA5IiBpZD0iY2x1c3Rlcl9CYWNrZW5kIj48cG9seWdvbiBmaWxsPSJub25lIiBmaWx0ZXI9InVybCgjZnVnOW51NnV4bzZwNikiIHBvaW50cz0iNDc3LDIzMC41LDQ4NywyMjAuNSwxMzE5LDIyMC41LDEzMTksNTU3LjUsMTMwOSw1NjcuNSw0NzcsNTY3LjUsNDc3LDIzMC41IiBzdHlsZT0ic3Ryb2tlOiMxODE4MTg7c3Ryb2tlLXdpZHRoOjE7Ii8+PGxpbmUgc3R5bGU9InN0cm9rZTojMTgxODE4O3N0cm9rZS13aWR0aDoxOyIgeDE9IjEzMDkiIHgyPSIxMzE5IiB5MT0iMjMwLjUiIHkyPSIyMjAuNSIvPjxsaW5lIHN0eWxlPSJzdHJva2U6IzE4MTgxODtzdHJva2Utd2lkdGg6MTsiIHgxPSI0NzciIHgyPSIxMzA5IiB5MT0iMjMwLjUiIHkyPSIyMzAuNSIvPjxsaW5lIHN0eWxlPSJzdHJva2U6IzE4MTgxODtzdHJva2Utd2lkdGg6MTsiIHgxPSIxMzA5IiB4Mj0iMTMwOSIgeTE9IjIzMC41IiB5Mj0iNTY3LjUiLz48dGV4dCBmaWxsPSIjMDAwMDAwIiBmb250LWZhbWlseT0ic2Fucy1zZXJpZiIgZm9udC1zaXplPSIxNCIgZm9udC13ZWlnaHQ9ImJvbGQiIGxlbmd0aEFkanVzdD0ic3BhY2luZyIgdGV4dExlbmd0aD0iMTQ3IiB4PSI4MjAuNSIgeT0iMjQ2LjczNDQiPkFQSSBCYWNrZW5kIChFeHByZXNzKTwvdGV4dD48L2c+PCEtLWNsdXN0ZXIgQ2hhaW4tLT48ZyBjbGFzcz0iY2x1c3RlciIgZGF0YS1lbnRpdHk9IkNoYWluIiBkYXRhLXNvdXJjZS1saW5lPSI0MiIgZGF0YS11aWQ9ImVudDAwMjUiIGlkPSJjbHVzdGVyX0NoYWluIj48cGF0aCBkPSJNMTMxLjY4NzYsNDY5LjAyODggQzEzNi40MzM2LDQ2MC45NTkyIDE0Mi4zODAzLDQ2MC4yNDI3IDE0OC4wMzU1LDQ2OC4wOTU0IEMxNTMuMTczOCw0NjAuMDg4NyAxNjEuMzg0LDQ1OC40NDc4IDE2Ni4zODI4LDQ2OC4yMzkxIEMxNzEuODA4Nyw0NTguMjYwNCAxODAuNTI1NSw0NTguMjQxIDE4Ny42ODc2LDQ2Ni4xNzQgQzE5My42MDIyLDQ1OC4zMTY0IDIwMC4zNzkzLDQ1Ni44MjM0IDIwNS43NzY3LDQ2Ni43MDE0IEMyMTEuMjg5OSw0NTcuMDE5NCAyMTguMjc1Myw0NTcuMDIzOCAyMjMuNzk1NSw0NjYuNjk0OCBDMjI4LjE0MTQsNDU1Ljk1MyAyMzcuNjg1OCw0NTYuMzkyNiAyNDIuOTgyOCw0NjUuNzg4NiBDMjQ4LjMzNzgsNDU2LjgyNjYgMjU1LjQzNTUsNDU3LjA0NTEgMjYxLjYzMjQsNDY0Ljg1MjMgQzI2Ny4wNDE1LDQ1Ni4zNzE1IDI3Mi44MTI1LDQ1Ny45MjI5IDI3OC4wNTczLDQ2NS4wMjU1IEMyODUuNjg1LDQ1Ni45NjM5IDI5NC4zMjkyLDQ1OC4xODMyIDI5OS4yNzM0LDQ2OC4xNzg0IEMzMDQuMTg2NSw0NTkuODM2NiAzMTEuMjM1Miw0NjAuMTUzOCAzMTYuNjQzNSw0NjcuNjM0OCBDMzIyLjIwMyw0NTguNTcyMSAzMjkuOTkyLDQ1OC4yMjMzIDMzNS43NTg5LDQ2Ny40MTc2IEMzNDEuNjIxOSw0NjAuMzQwMiAzNDkuMDIwOSw0NjEuMDQ0IDM1Mi43NDQzLDQ2OS43MjQgQzM1OC4xMDI4LDQ2MS41MDk5IDM2My40OTQ2LDQ2MS4xNTA1IDM3MC40ODAzLDQ2Ny43Nzk3IEMzODIuOTgwOCw0NTYuMTUyNSAzODkuODgwMyw0NjEuODk2MiAzOTYsNDc0LjUgQzM5Ni4zNzUzLDQ3NC41ODg1IDM5Ni40OTk2LDQ3NC44NTA2IDM5Ni4yMzAyLDQ3NS4xNjMgQzQwNy4yOTc3LDQ4MC4wNTA0IDQwNi42NDEyLDQ4Ny4yMDM1IDM5OS4xOTc0LDQ5NC44NzcxIEM0MTAuMTk0LDUwMC4zNjQ1IDQxMS4yNDE3LDUwNy44MzExIDQwMS4zNjIsNTE1LjUwODggQzQxMS44NzMzLDUyMC42MjI2IDQxMS4wNDQxLDUzMC45OTk5IDQwMi4wMjE2LDUzNi43MjEgQzQxMS40MjI0LDU0Mi4yNjk3IDQxMC4wOTE3LDU0Ny41NDM0IDQwMi42MjY2LDU1My42OTMzIEM0MTUuODExOSw1NTkuMTUyOCA0MTQuNTA1Miw1NjcuNTEyMiA0MDUuODk5Miw1NzYuMTQ3NyBDNDEzLjE5MDMsNTgzLjU0ODMgNDEzLjQ0NzYsNTg5LjUyNTIgNDA0LjMxMjIsNTk1LjU4NDcgQzQxMS44MDUyLDYwMS44MDMyIDQxMi41MjQzLDYxMS4wNjgzIDQwMS45Njk4LDYxNS4xMjMxIEM0MTAuNzM0MSw2MjMuMTA0NiA0MDkuNDAyOSw2MjkuNTc4OCAzOTkuMDU2NSw2MzQuNzE5MiBDNDA3Ljc2MjQsNjQwLjI4MzYgNDA3LjA3NDEsNjQ4LjkzNTkgMzk5LjEyODksNjU0LjU2MTEgQzQwOC4yNzkyLDY2Ny4wMDE5IDQwMy41NTQ2LDY3Ni4wODkyIDM4OSw2NzguNSBDMzkwLjY5Nyw2NzkuNTc0MyAzOTEuMDc0Nyw2ODAuNzc1NiAzODkuMjQyOCw2ODIuMDg4NiBDMzgzLjI5MTIsNjkwLjA4MTQgMzc4LjA0MDIsNjkwLjcwNSAzNzIuNzMzMSw2ODEuNDcxIEMzNjguMTk0Myw2OTEuNzIxOSAzNTguMzU4Nyw2OTAuODUwMSAzNTIuNjQwOSw2ODIuNzYyNyBDMzQ4LjY5MzQsNjkzLjU3MjMgMzQxLjg2Niw2OTMuMzkxNiAzMzQuNDk3LDY4Ni4yMTQxIEMzMzAuMjcsNjk1Ljc0MDcgMzIwLjc5NTIsNjk2LjA1MzYgMzE1LjIzNzQsNjg3LjY0MyBDMzExLjEyNTcsNjk3LjYyOTkgMzA1LjE5MDUsNjk2LjE4MDggMjk4LjQ4OTcsNjkwLjM5MTQgQzI5Mi43NDg3LDY5OS4yODc5IDI4NC41NDczLDY5OS40NDE3IDI3OC41MDY0LDY5MC43MzE4IEMyNzQuNDk2LDY5OC43NDc4IDI2Ny4wNTE3LDY5OS4wNjcyIDI2Mi4xMDA5LDY5MS43MzcyIEMyNTcuMjM3LDcwMC40NjQyIDI0OC42NDAzLDcwMS42MjQ1IDI0My4zMDU1LDY5Mi4yMjU0IEMyMzUuMTMzOCw3MDIuNTE1NSAyMjUuNjkxNyw2OTkuOTMyIDIyMi4xNTkzLDY4Ny44NDE5IEMyMTYuNjEyOSw2OTcuNzk0NCAyMTAuNDc4Niw2OTYuMzYwOSAyMDQuMjA3OSw2ODguNTc0OSBDMTk4LjkwMTYsNjk1LjU5NzggMTkxLjA5NzMsNjk2LjI1MTggMTg2Ljg5NSw2ODcuMzcyOSBDMTc5Ljg5NjksNjk2Ljk5NTMgMTcyLjA1Myw2OTYuMTYyMiAxNjcuNzEwMyw2ODQuOTMwMiBDMTYwLjM2MDUsNjkyLjA5MDUgMTUyLjA3NDEsNjkzLjExOTEgMTQ3Ljg2MDYsNjgxLjU5NzkgQzEzNS4yOTgyLDY5Mi45NDAyIDEyNC4xOTYyLDY4Ni43MDUyIDEyMiw2NzEuNSBDMTI0LjA5MDksNjcwLjgzMjUgMTI1LjExMTIsNjcyLjIyMzYgMTI0LjQ5MzcsNjc0LjEyNzEgQzExNC4yNTE5LDY2OS4wNjQ2IDExMy42NjI4LDY1OS43NDI0IDEyMi4zNDE5LDY1Mi43NzMzIEMxMTMuMDE5Myw2NDcuMTM5IDExNS4xNjU2LDYzNy45NDg5IDEyMy4zNDM0LDYzMy4yMTA1IEMxMTQuMzU3Nyw2MjkuNDQzMiAxMTIuNzEwMiw2MjEuMDMzMyAxMjEuNzIyOCw2MTUuNjA5IEMxMTAuMjAxNCw2MTEuMzI2MyAxMTAuNzcyMSw2MDAuNTgxMiAxMTguOTgxMiw1OTMuODE2MyBDMTEwLjYzMjQsNTg4LjA5NzMgMTA5LjMxODUsNTgyLjA3NDEgMTE3LjgzNDMsNTc1LjMwOTkgQzEwOC4wODgsNTY4LjcxODUgMTEwLjE1MzUsNTYwLjk4MDIgMTE5LjcwNjQsNTU2LjI4ODMgQzExMC4wMTU4LDU0Ny43ODYgMTEyLjQ3MjcsNTQwLjcxMjcgMTIyLjIwNjksNTM0LjQzMjggQzExMy45NjcyLDUyOC42MzgxIDExNC4zOTUyLDUxOS43MTgyIDEyMy42NzA4LDUxNS4yNjEgQzExMy42MTg2LDUwOS4yMTA3IDExNi4zMTczLDUwMi4yNDc3IDEyMy45Mjk3LDQ5Ni40NDAzIEMxMTEuOTE2Niw0ODUuNjE0OCAxMTEuNjg1OSw0NzMuMTg3MyAxMjksNDY3LjUgQzEzMC43MTE5LDQ2Ni41NDM0IDEzMS40MzE4LDQ2Ny40MjU3IDEzMS42ODc2LDQ2OS4wMjg4IiBmaWxsPSJub25lIiBmaWx0ZXI9InVybCgjZnVnOW51NnV4bzZwNikiIHN0eWxlPSJzdHJva2U6IzE4MTgxODtzdHJva2Utd2lkdGg6MTsiLz48dGV4dCBmaWxsPSIjMDAwMDAwIiBmb250LWZhbWlseT0ic2Fucy1zZXJpZiIgZm9udC1zaXplPSIxNCIgZm9udC13ZWlnaHQ9ImJvbGQiIGxlbmd0aEFkanVzdD0ic3BhY2luZyIgdGV4dExlbmd0aD0iMTI2IiB4PSIxOTYiIHk9IjQ4NS43MzQ0Ij5MYW4mIzUzOTsgbG9jYWwgR2FuYWNoZTwvdGV4dD48L2c+PCEtLWVudGl0eSBSZWFjdC0tPjxnIGNsYXNzPSJlbnRpdHkiIGRhdGEtZW50aXR5PSJSZWFjdCIgZGF0YS1zb3VyY2UtbGluZT0iMTciIGRhdGEtdWlkPSJlbnQwMDA2IiBpZD0iZW50aXR5X1JlYWN0Ij48cmVjdCBmaWxsPSIjRjFGMUYxIiBmaWx0ZXI9InVybCgjZnVnOW51NnV4bzZwNikiIGhlaWdodD0iNDkuOTY4OCIgcng9IjQiIHJ5PSI0IiBzdHlsZT0ic3Ryb2tlOiMxODE4MTg7c3Ryb2tlLXdpZHRoOjAuNTsiIHdpZHRoPSIyMTYiIHg9IjkxIiB5PSIxNDMuNSIvPjx0ZXh0IGZpbGw9IiMwMDAwMDAiIGZvbnQtZmFtaWx5PSJzYW5zLXNlcmlmIiBmb250LXNpemU9IjE0IiBsZW5ndGhBZGp1c3Q9InNwYWNpbmciIHRleHRMZW5ndGg9IjYzIiB4PSIxMzIuNSIgeT0iMTY2LjczNDQiPkFwbGljYSYjNTM5O2llPC90ZXh0Pjx0ZXh0IGZpbGw9IiMwMDAwMDAiIGZvbnQtZmFtaWx5PSJzYW5zLXNlcmlmIiBmb250LXNpemU9IjE0IiBsZW5ndGhBZGp1c3Q9InNwYWNpbmciIHRleHRMZW5ndGg9IjciIHg9IjE5NS41IiB5PSIxNjYuNzM0NCI+JiMxNjA7PC90ZXh0Pjx0ZXh0IGZpbGw9IiMwMDAwMDAiIGZvbnQtZmFtaWx5PSJzYW5zLXNlcmlmIiBmb250LXNpemU9IjE0IiBsZW5ndGhBZGp1c3Q9InNwYWNpbmciIHRleHRMZW5ndGg9IjM1IiB4PSIyMDIuNSIgeT0iMTY2LjczNDQiPlJlYWN0PC90ZXh0Pjx0ZXh0IGZpbGw9IiMwMDAwMDAiIGZvbnQtZmFtaWx5PSJzYW5zLXNlcmlmIiBmb250LXNpemU9IjE0IiBsZW5ndGhBZGp1c3Q9InNwYWNpbmciIHRleHRMZW5ndGg9IjciIHg9IjIzNy41IiB5PSIxNjYuNzM0NCI+JiMxNjA7PC90ZXh0Pjx0ZXh0IGZpbGw9IiMwMDAwMDAiIGZvbnQtZmFtaWx5PSJzYW5zLXNlcmlmIiBmb250LXNpemU9IjE0IiBsZW5ndGhBZGp1c3Q9InNwYWNpbmciIHRleHRMZW5ndGg9IjIxIiB4PSIyNDQuNSIgeT0iMTY2LjczNDQiPlNQQTwvdGV4dD48dGV4dCBmaWxsPSIjMDAwMDAwIiBmb250LWZhbWlseT0ic2Fucy1zZXJpZiIgZm9udC1zaXplPSIxNCIgbGVuZ3RoQWRqdXN0PSJzcGFjaW5nIiB0ZXh0TGVuZ3RoPSIzNSIgeD0iMTAxIiB5PSIxODEuNzE4OCI+UmVhY3Q8L3RleHQ+PHRleHQgZmlsbD0iIzAwMDAwMCIgZm9udC1mYW1pbHk9InNhbnMtc2VyaWYiIGZvbnQtc2l6ZT0iMTQiIGxlbmd0aEFkanVzdD0ic3BhY2luZyIgdGV4dExlbmd0aD0iNyIgeD0iMTM2IiB5PSIxODEuNzE4OCI+JiMxNjA7PC90ZXh0Pjx0ZXh0IGZpbGw9IiMwMDAwMDAiIGZvbnQtZmFtaWx5PSJzYW5zLXNlcmlmIiBmb250LXNpemU9IjE0IiBsZW5ndGhBZGp1c3Q9InNwYWNpbmciIHRleHRMZW5ndGg9IjQ5IiB4PSIxNDMiIHk9IjE4MS43MTg4Ij5Sb3V0ZXIsPC90ZXh0Pjx0ZXh0IGZpbGw9IiMwMDAwMDAiIGZvbnQtZmFtaWx5PSJzYW5zLXNlcmlmIiBmb250LXNpemU9IjE0IiBsZW5ndGhBZGp1c3Q9InNwYWNpbmciIHRleHRMZW5ndGg9IjciIHg9IjE5MiIgeT0iMTgxLjcxODgiPiYjMTYwOzwvdGV4dD48dGV4dCBmaWxsPSIjMDAwMDAwIiBmb250LWZhbWlseT0ic2Fucy1zZXJpZiIgZm9udC1zaXplPSIxNCIgbGVuZ3RoQWRqdXN0PSJzcGFjaW5nIiB0ZXh0TGVuZ3RoPSI1NiIgeD0iMTk5IiB5PSIxODEuNzE4OCI+Q29udGV4dCw8L3RleHQ+PHRleHQgZmlsbD0iIzAwMDAwMCIgZm9udC1mYW1pbHk9InNhbnMtc2VyaWYiIGZvbnQtc2l6ZT0iMTQiIGxlbmd0aEFkanVzdD0ic3BhY2luZyIgdGV4dExlbmd0aD0iNyIgeD0iMjU1IiB5PSIxODEuNzE4OCI+JiMxNjA7PC90ZXh0Pjx0ZXh0IGZpbGw9IiMwMDAwMDAiIGZvbnQtZmFtaWx5PSJzYW5zLXNlcmlmIiBmb250LXNpemU9IjE0IiBsZW5ndGhBZGp1c3Q9InNwYWNpbmciIHRleHRMZW5ndGg9IjM1IiB4PSIyNjIiIHk9IjE4MS43MTg4Ij5ob29rczwvdGV4dD48L2c+PCEtLWVudGl0eSBNZXRhTWFzay0tPjxnIGNsYXNzPSJlbnRpdHkiIGRhdGEtZW50aXR5PSJNZXRhTWFzayIgZGF0YS1zb3VyY2UtbGluZT0iMTgiIGRhdGEtdWlkPSJlbnQwMDA3IiBpZD0iZW50aXR5X01ldGFNYXNrIj48cGF0aCBkPSJNMTc5LjYwOTIsMjYyLjk1NTkgQzE4Mi4yODc3LDI1Ny40MDA1IDE4Ni45MTQ3LDI1NS40NjE0IDE5MS4yMTcyLDI2MS4zMDE3IEMxOTUuODI5MywyNTYuMjQ0NSAyMDAuMjMyMSwyNTUuODU0MyAyMDMuNTkwOCwyNjIuNjE0MSBDMjA2Ljk3NzksMjU3LjMwOTcgMjExLjU0MDYsMjU2LjcwNDEgMjE1LjI2NDIsMjYyLjI1MjEgQzIxOC43Nzg5LDI1Ny43NTEgMjIyLjUxOCwyNTcuNTMxIDIyNS44OTg4LDI2Mi40MDQgQzIyOS43NTI3LDI1NS44MTMxIDIzMy44NDI1LDI1NS43OTU1IDIzOC40MTI5LDI2MS42ODU2IEMyNDEuNDA5LDI1Ni4yNzgyIDI0Ni43ODk4LDI1Ni45Nzc2IDI0OS40Mzc5LDI2Mi4wNTE1IEMyNTguODU4NywyNjQuMDAyOCAyNjIuOTc3NCwyNjguNjk2MyAyNTcuNTg4OSwyNzguMTQ3MSBDMjYyLjM5OTgsMjg1Ljg4MTMgMjU4LjAzNDgsMjkyLjA4OTUgMjQ5LjMwNjIsMjkxLjI5MyBDMjQ4LjE0MywyOTcuOTc3MyAyNDIuNjAzLDI5OS4yOTYgMjM4LjE4MjMsMjk0LjQzMDQgQzIzNS43NjM3LDI5OS41NTY2IDIzMC4wOTc5LDMwMC43MTQzIDIyNi41MTU2LDI5NS43OCBDMjIzLjc4NjksMzAxLjE1MDkgMjE4LjkyNDYsMzAyLjk0OCAyMTQuNjQ1NSwyOTcuNDc3NiBDMjA5Ljk0NiwzMDIuMDExNiAyMDYuMDc1NiwzMDIuMDY5NiAyMDMuMTUwOCwyOTUuNjIwMyBDMTk4LjkxMDQsMzAxLjE3NTQgMTk0LjQ0NjMsMzAwLjQ1MTMgMTkxLjg0NzMsMjk0LjA2NjUgQzE4Ny45MDA2LDI5OC43NTA3IDE4Mi44MzIxLDI5Ny4yMzA2IDE4MS4xOTI1LDI5MS42Njc2IEMxNzAuODk5NiwyOTEuNDUzMyAxNjguMDQ1MiwyODQuNzY3NSAxNzMuNDExOSwyNzYuNTEzMiBDMTY4Ljk3NjYsMjY4Ljg4MjYgMTcxLjAzNzksMjY0LjY0MDkgMTc5LjYwOTIsMjYyLjk1NTkiIGZpbGw9IiNGMUYxRjEiIGZpbHRlcj0idXJsKCNmdWc5bnU2dXhvNnA2KSIgc3R5bGU9InN0cm9rZTojMTgxODE4O3N0cm9rZS13aWR0aDowLjU7Ii8+PHRleHQgZmlsbD0iIzAwMDAwMCIgZm9udC1mYW1pbHk9InNhbnMtc2VyaWYiIGZvbnQtc2l6ZT0iMTQiIGxlbmd0aEFkanVzdD0ic3BhY2luZyIgdGV4dExlbmd0aD0iNTYiIHg9IjE4NiIgeT0iMjgxLjczNDQiPk1ldGFNYXNrPC90ZXh0PjwvZz48IS0tZW50aXR5IFNlcnZlci0tPjxnIGNsYXNzPSJlbnRpdHkiIGRhdGEtZW50aXR5PSJTZXJ2ZXIiIGRhdGEtc291cmNlLWxpbmU9IjI0IiBkYXRhLXVpZD0iZW50MDAxMCIgaWQ9ImVudGl0eV9TZXJ2ZXIiPjxyZWN0IGZpbGw9IiNGMUYxRjEiIGZpbHRlcj0idXJsKCNmdWc5bnU2dXhvNnA2KSIgaGVpZ2h0PSIzNC45ODQ0IiByeD0iNCIgcnk9IjQiIHN0eWxlPSJzdHJva2U6IzE4MTgxODtzdHJva2Utd2lkdGg6MC41OyIgd2lkdGg9IjExOCIgeD0iNTM1IiB5PSIyNTguNSIvPjx0ZXh0IGZpbGw9IiMwMDAwMDAiIGZvbnQtZmFtaWx5PSJzYW5zLXNlcmlmIiBmb250LXNpemU9IjE0IiBsZW5ndGhBZGp1c3Q9InNwYWNpbmciIHRleHRMZW5ndGg9IjQyIiB4PSI1NDUiIHk9IjI4MS43MzQ0Ij5TZXJ2ZXI8L3RleHQ+PHRleHQgZmlsbD0iIzAwMDAwMCIgZm9udC1mYW1pbHk9InNhbnMtc2VyaWYiIGZvbnQtc2l6ZT0iMTQiIGxlbmd0aEFkanVzdD0ic3BhY2luZyIgdGV4dExlbmd0aD0iNyIgeD0iNTg3IiB5PSIyODEuNzM0NCI+JiMxNjA7PC90ZXh0Pjx0ZXh0IGZpbGw9IiMwMDAwMDAiIGZvbnQtZmFtaWx5PSJzYW5zLXNlcmlmIiBmb250LXNpemU9IjE0IiBsZW5ndGhBZGp1c3Q9InNwYWNpbmciIHRleHRMZW5ndGg9IjQ5IiB4PSI1OTQiIHk9IjI4MS43MzQ0Ij5FeHByZXNzPC90ZXh0PjwvZz48IS0tZW50aXR5IE1XLS0+PGcgY2xhc3M9ImVudGl0eSIgZGF0YS1lbnRpdHk9Ik1XIiBkYXRhLXNvdXJjZS1saW5lPSIyNSIgZGF0YS11aWQ9ImVudDAwMTEiIGlkPSJlbnRpdHlfTVciPjxyZWN0IGZpbGw9IiNGMUYxRjEiIGZpbHRlcj0idXJsKCNmdWc5bnU2dXhvNnA2KSIgaGVpZ2h0PSI0OS45Njg4IiByeD0iNCIgcnk9IjQiIHN0eWxlPSJzdHJva2U6IzE4MTgxODtzdHJva2Utd2lkdGg6MC41OyIgd2lkdGg9IjIwMiIgeD0iNDkzIiB5PSIzNjYiLz48dGV4dCBmaWxsPSIjMDAwMDAwIiBmb250LWZhbWlseT0ic2Fucy1zZXJpZiIgZm9udC1zaXplPSIxNCIgbGVuZ3RoQWRqdXN0PSJzcGFjaW5nIiB0ZXh0TGVuZ3RoPSI3MCIgeD0iNTU5IiB5PSIzODkuMjM0NCI+TWlkZGxld2FyZTwvdGV4dD48dGV4dCBmaWxsPSIjMDAwMDAwIiBmb250LWZhbWlseT0ic2Fucy1zZXJpZiIgZm9udC1zaXplPSIxNCIgbGVuZ3RoQWRqdXN0PSJzcGFjaW5nIiB0ZXh0TGVuZ3RoPSIyOCIgeD0iNTAzIiB5PSI0MDQuMjE4OCI+SldULDwvdGV4dD48dGV4dCBmaWxsPSIjMDAwMDAwIiBmb250LWZhbWlseT0ic2Fucy1zZXJpZiIgZm9udC1zaXplPSIxNCIgbGVuZ3RoQWRqdXN0PSJzcGFjaW5nIiB0ZXh0TGVuZ3RoPSI3IiB4PSI1MzEiIHk9IjQwNC4yMTg4Ij4mIzE2MDs8L3RleHQ+PHRleHQgZmlsbD0iIzAwMDAwMCIgZm9udC1mYW1pbHk9InNhbnMtc2VyaWYiIGZvbnQtc2l6ZT0iMTQiIGxlbmd0aEFkanVzdD0ic3BhY2luZyIgdGV4dExlbmd0aD0iNDkiIHg9IjUzOCIgeT0iNDA0LjIxODgiPk11bHRlciw8L3RleHQ+PHRleHQgZmlsbD0iIzAwMDAwMCIgZm9udC1mYW1pbHk9InNhbnMtc2VyaWYiIGZvbnQtc2l6ZT0iMTQiIGxlbmd0aEFkanVzdD0ic3BhY2luZyIgdGV4dExlbmd0aD0iNyIgeD0iNTg3IiB5PSI0MDQuMjE4OCI+JiMxNjA7PC90ZXh0Pjx0ZXh0IGZpbGw9IiMwMDAwMDAiIGZvbnQtZmFtaWx5PSJzYW5zLXNlcmlmIiBmb250LXNpemU9IjE0IiBsZW5ndGhBZGp1c3Q9InNwYWNpbmciIHRleHRMZW5ndGg9IjU2IiB4PSI1OTQiIHk9IjQwNC4yMTg4Ij5MaW1pdGFyZTwvdGV4dD48dGV4dCBmaWxsPSIjMDAwMDAwIiBmb250LWZhbWlseT0ic2Fucy1zZXJpZiIgZm9udC1zaXplPSIxNCIgbGVuZ3RoQWRqdXN0PSJzcGFjaW5nIiB0ZXh0TGVuZ3RoPSI3IiB4PSI2NTAiIHk9IjQwNC4yMTg4Ij4mIzE2MDs8L3RleHQ+PHRleHQgZmlsbD0iIzAwMDAwMCIgZm9udC1mYW1pbHk9InNhbnMtc2VyaWYiIGZvbnQtc2l6ZT0iMTQiIGxlbmd0aEFkanVzdD0ic3BhY2luZyIgdGV4dExlbmd0aD0iMjgiIHg9IjY1NyIgeT0iNDA0LjIxODgiPlJhdCYjMjU5OzwvdGV4dD48L2c+PCEtLWVudGl0eSBDdHJscy0tPjxnIGNsYXNzPSJlbnRpdHkiIGRhdGEtZW50aXR5PSJDdHJscyIgZGF0YS1zb3VyY2UtbGluZT0iMjYiIGRhdGEtdWlkPSJlbnQwMDEyIiBpZD0iZW50aXR5X0N0cmxzIj48cmVjdCBmaWxsPSIjRjFGMUYxIiBmaWx0ZXI9InVybCgjZnVnOW51NnV4bzZwNikiIGhlaWdodD0iNjQuOTUzMSIgcng9IjQiIHJ5PSI0IiBzdHlsZT0ic3Ryb2tlOiMxODE4MTg7c3Ryb2tlLXdpZHRoOjAuNTsiIHdpZHRoPSIyMzciIHg9IjczMC41IiB5PSIzNTguNSIvPjx0ZXh0IGZpbGw9IiMwMDAwMDAiIGZvbnQtZmFtaWx5PSJzYW5zLXNlcmlmIiBmb250LXNpemU9IjE0IiBsZW5ndGhBZGp1c3Q9InNwYWNpbmciIHRleHRMZW5ndGg9Ijc3IiB4PSI4MTAuNSIgeT0iMzgxLjczNDQiPkNvbnRyb2xsZXJlPC90ZXh0Pjx0ZXh0IGZpbGw9IiMwMDAwMDAiIGZvbnQtZmFtaWx5PSJzYW5zLXNlcmlmIiBmb250LXNpemU9IjE0IiBsZW5ndGhBZGp1c3Q9InNwYWNpbmciIHRleHRMZW5ndGg9Ijg0IiB4PSI3NDAuNSIgeT0iMzk2LjcxODgiPihEZXN0aW5hJiM1Mzk7aWksPC90ZXh0Pjx0ZXh0IGZpbGw9IiMwMDAwMDAiIGZvbnQtZmFtaWx5PSJzYW5zLXNlcmlmIiBmb250LXNpemU9IjE0IiBsZW5ndGhBZGp1c3Q9InNwYWNpbmciIHRleHRMZW5ndGg9IjciIHg9IjgyNC41IiB5PSIzOTYuNzE4OCI+JiMxNjA7PC90ZXh0Pjx0ZXh0IGZpbGw9IiMwMDAwMDAiIGZvbnQtZmFtaWx5PSJzYW5zLXNlcmlmIiBmb250LXNpemU9IjE0IiBsZW5ndGhBZGp1c3Q9InNwYWNpbmciIHRleHRMZW5ndGg9IjQ5IiB4PSI4MzEuNSIgeT0iMzk2LjcxODgiPkNheiYjMjU5O3JpLDwvdGV4dD48dGV4dCBmaWxsPSIjMDAwMDAwIiBmb250LWZhbWlseT0ic2Fucy1zZXJpZiIgZm9udC1zaXplPSIxNCIgbGVuZ3RoQWRqdXN0PSJzcGFjaW5nIiB0ZXh0TGVuZ3RoPSI3IiB4PSI4ODAuNSIgeT0iMzk2LjcxODgiPiYjMTYwOzwvdGV4dD48dGV4dCBmaWxsPSIjMDAwMDAwIiBmb250LWZhbWlseT0ic2Fucy1zZXJpZiIgZm9udC1zaXplPSIxNCIgbGVuZ3RoQWRqdXN0PSJzcGFjaW5nIiB0ZXh0TGVuZ3RoPSI3MCIgeD0iODg3LjUiIHk9IjM5Ni43MTg4Ij5SZXplcnYmIzI1OTtyaSw8L3RleHQ+PHRleHQgZmlsbD0iIzAwMDAwMCIgZm9udC1mYW1pbHk9InNhbnMtc2VyaWYiIGZvbnQtc2l6ZT0iMTQiIGxlbmd0aEFkanVzdD0ic3BhY2luZyIgdGV4dExlbmd0aD0iODQiIHg9Ijc0Ny41IiB5PSI0MTEuNzAzMSI+VXRpbGl6YXRvcmksPC90ZXh0Pjx0ZXh0IGZpbGw9IiMwMDAwMDAiIGZvbnQtZmFtaWx5PSJzYW5zLXNlcmlmIiBmb250LXNpemU9IjE0IiBsZW5ndGhBZGp1c3Q9InNwYWNpbmciIHRleHRMZW5ndGg9IjciIHg9IjgzMS41IiB5PSI0MTEuNzAzMSI+JiMxNjA7PC90ZXh0Pjx0ZXh0IGZpbGw9IiMwMDAwMDAiIGZvbnQtZmFtaWx5PSJzYW5zLXNlcmlmIiBmb250LXNpemU9IjE0IiBsZW5ndGhBZGp1c3Q9InNwYWNpbmciIHRleHRMZW5ndGg9IjYzIiB4PSI4MzguNSIgeT0iNDExLjcwMzEiPlJlY2VuemlpLDwvdGV4dD48dGV4dCBmaWxsPSIjMDAwMDAwIiBmb250LWZhbWlseT0ic2Fucy1zZXJpZiIgZm9udC1zaXplPSIxNCIgbGVuZ3RoQWRqdXN0PSJzcGFjaW5nIiB0ZXh0TGVuZ3RoPSI3IiB4PSI5MDEuNSIgeT0iNDExLjcwMzEiPiYjMTYwOzwvdGV4dD48dGV4dCBmaWxsPSIjMDAwMDAwIiBmb250LWZhbWlseT0ic2Fucy1zZXJpZiIgZm9udC1zaXplPSIxNCIgbGVuZ3RoQWRqdXN0PSJzcGFjaW5nIiB0ZXh0TGVuZ3RoPSI0MiIgeD0iOTA4LjUiIHk9IjQxMS43MDMxIj5QbCYjMjU5OyYjNTM5O2kpPC90ZXh0PjwvZz48IS0tZW50aXR5IE1vbmdvLS0+PGcgY2xhc3M9ImVudGl0eSIgZGF0YS1lbnRpdHk9Ik1vbmdvIiBkYXRhLXNvdXJjZS1saW5lPSIyNyIgZGF0YS11aWQ9ImVudDAwMTMiIGlkPSJlbnRpdHlfTW9uZ28iPjxwYXRoIGQ9Ik00OTIuNSw1MDUuNSBDNDkyLjUsNDk1LjUgNTQ4LDQ5NS41IDU0OCw0OTUuNSBDNTQ4LDQ5NS41IDYwMy41LDQ5NS41IDYwMy41LDUwNS41IEw2MDMuNSw1MjkuNDg0NCBDNjAzLjUsNTM5LjQ4NDQgNTQ4LDUzOS40ODQ0IDU0OCw1MzkuNDg0NCBDNTQ4LDUzOS40ODQ0IDQ5Mi41LDUzOS40ODQ0IDQ5Mi41LDUyOS40ODQ0IEw0OTIuNSw1MDUuNSIgZmlsbD0iI0YxRjFGMSIgZmlsdGVyPSJ1cmwoI2Z1ZzludTZ1eG82cDYpIiBzdHlsZT0ic3Ryb2tlOiMxODE4MTg7c3Ryb2tlLXdpZHRoOjAuNTsiLz48cGF0aCBkPSJNNDkyLjUsNTA1LjUgQzQ5Mi41LDUxNS41IDU0OCw1MTUuNSA1NDgsNTE1LjUgQzU0OCw1MTUuNSA2MDMuNSw1MTUuNSA2MDMuNSw1MDUuNSIgZmlsbD0ibm9uZSIgc3R5bGU9InN0cm9rZTojMTgxODE4O3N0cm9rZS13aWR0aDowLjU7Ii8+PHRleHQgZmlsbD0iIzAwMDAwMCIgZm9udC1mYW1pbHk9InNhbnMtc2VyaWYiIGZvbnQtc2l6ZT0iMTQiIGxlbmd0aEFkanVzdD0ic3BhY2luZyIgdGV4dExlbmd0aD0iNDkiIHg9IjUwMi41IiB5PSI1MzIuNzM0NCI+TW9uZ29EQjwvdGV4dD48dGV4dCBmaWxsPSIjMDAwMDAwIiBmb250LWZhbWlseT0ic2Fucy1zZXJpZiIgZm9udC1zaXplPSIxNCIgbGVuZ3RoQWRqdXN0PSJzcGFjaW5nIiB0ZXh0TGVuZ3RoPSI3IiB4PSI1NTEuNSIgeT0iNTMyLjczNDQiPiYjMTYwOzwvdGV4dD48dGV4dCBmaWxsPSIjMDAwMDAwIiBmb250LWZhbWlseT0ic2Fucy1zZXJpZiIgZm9udC1zaXplPSIxNCIgbGVuZ3RoQWRqdXN0PSJzcGFjaW5nIiB0ZXh0TGVuZ3RoPSIzNSIgeD0iNTU4LjUiIHk9IjUzMi43MzQ0Ij5BdGxhczwvdGV4dD48L2c+PCEtLWVudGl0eSBTdHJpcGUtLT48ZyBjbGFzcz0iZW50aXR5IiBkYXRhLWVudGl0eT0iU3RyaXBlIiBkYXRhLXNvdXJjZS1saW5lPSIyOCIgZGF0YS11aWQ9ImVudDAwMTQiIGlkPSJlbnRpdHlfU3RyaXBlIj48cmVjdCBmaWxsPSIjRjFGMUYxIiBmaWx0ZXI9InVybCgjZnVnOW51NnV4bzZwNikiIGhlaWdodD0iMzQuOTg0NCIgcng9IjQiIHJ5PSI0IiBzdHlsZT0ic3Ryb2tlOiMxODE4MTg7c3Ryb2tlLXdpZHRoOjAuNTsiIHdpZHRoPSIxNjAiIHg9IjExNDMiIHk9IjUwMCIvPjx0ZXh0IGZpbGw9IiMwMDAwMDAiIGZvbnQtZmFtaWx5PSJzYW5zLXNlcmlmIiBmb250LXNpemU9IjE0IiBsZW5ndGhBZGp1c3Q9InNwYWNpbmciIHRleHRMZW5ndGg9IjQyIiB4PSIxMTUzIiB5PSI1MjMuMjM0NCI+U3RyaXBlPC90ZXh0Pjx0ZXh0IGZpbGw9IiMwMDAwMDAiIGZvbnQtZmFtaWx5PSJzYW5zLXNlcmlmIiBmb250LXNpemU9IjE0IiBsZW5ndGhBZGp1c3Q9InNwYWNpbmciIHRleHRMZW5ndGg9IjciIHg9IjExOTUiIHk9IjUyMy4yMzQ0Ij4mIzE2MDs8L3RleHQ+PHRleHQgZmlsbD0iIzAwMDAwMCIgZm9udC1mYW1pbHk9InNhbnMtc2VyaWYiIGZvbnQtc2l6ZT0iMTQiIGxlbmd0aEFkanVzdD0ic3BhY2luZyIgdGV4dExlbmd0aD0iMjEiIHg9IjEyMDIiIHk9IjUyMy4yMzQ0Ij5TREs8L3RleHQ+PHRleHQgZmlsbD0iIzAwMDAwMCIgZm9udC1mYW1pbHk9InNhbnMtc2VyaWYiIGZvbnQtc2l6ZT0iMTQiIGxlbmd0aEFkanVzdD0ic3BhY2luZyIgdGV4dExlbmd0aD0iNyIgeD0iMTIyMyIgeT0iNTIzLjIzNDQiPiYjMTYwOzwvdGV4dD48dGV4dCBmaWxsPSIjMDAwMDAwIiBmb250LWZhbWlseT0ic2Fucy1zZXJpZiIgZm9udC1zaXplPSIxNCIgbGVuZ3RoQWRqdXN0PSJzcGFjaW5nIiB0ZXh0TGVuZ3RoPSI3IiB4PSIxMjMwIiB5PSI1MjMuMjM0NCI+KzwvdGV4dD48dGV4dCBmaWxsPSIjMDAwMDAwIiBmb250LWZhbWlseT0ic2Fucy1zZXJpZiIgZm9udC1zaXplPSIxNCIgbGVuZ3RoQWRqdXN0PSJzcGFjaW5nIiB0ZXh0TGVuZ3RoPSI3IiB4PSIxMjM3IiB5PSI1MjMuMjM0NCI+JiMxNjA7PC90ZXh0Pjx0ZXh0IGZpbGw9IiMwMDAwMDAiIGZvbnQtZmFtaWx5PSJzYW5zLXNlcmlmIiBmb250LXNpemU9IjE0IiBsZW5ndGhBZGp1c3Q9InNwYWNpbmciIHRleHRMZW5ndGg9IjQ5IiB4PSIxMjQ0IiB5PSI1MjMuMjM0NCI+V2ViaG9vazwvdGV4dD48L2c+PCEtLWVudGl0eSBNYWlsZXItLT48ZyBjbGFzcz0iZW50aXR5IiBkYXRhLWVudGl0eT0iTWFpbGVyIiBkYXRhLXNvdXJjZS1saW5lPSIyOSIgZGF0YS11aWQ9ImVudDAwMTUiIGlkPSJlbnRpdHlfTWFpbGVyIj48cmVjdCBmaWxsPSIjRjFGMUYxIiBmaWx0ZXI9InVybCgjZnVnOW51NnV4bzZwNikiIGhlaWdodD0iMzQuOTg0NCIgcng9IjQiIHJ5PSI0IiBzdHlsZT0ic3Ryb2tlOiMxODE4MTg7c3Ryb2tlLXdpZHRoOjAuNTsiIHdpZHRoPSIxNjciIHg9IjYzOC41IiB5PSI1MDAiLz48dGV4dCBmaWxsPSIjMDAwMDAwIiBmb250LWZhbWlseT0ic2Fucy1zZXJpZiIgZm9udC1zaXplPSIxNCIgbGVuZ3RoQWRqdXN0PSJzcGFjaW5nIiB0ZXh0TGVuZ3RoPSI3MCIgeD0iNjQ4LjUiIHk9IjUyMy4yMzQ0Ij5Ob2RlbWFpbGVyPC90ZXh0Pjx0ZXh0IGZpbGw9IiMwMDAwMDAiIGZvbnQtZmFtaWx5PSJzYW5zLXNlcmlmIiBmb250LXNpemU9IjE0IiBsZW5ndGhBZGp1c3Q9InNwYWNpbmciIHRleHRMZW5ndGg9IjciIHg9IjcxOC41IiB5PSI1MjMuMjM0NCI+JiMxNjA7PC90ZXh0Pjx0ZXh0IGZpbGw9IiMwMDAwMDAiIGZvbnQtZmFtaWx5PSJzYW5zLXNlcmlmIiBmb250LXNpemU9IjE0IiBsZW5ndGhBZGp1c3Q9InNwYWNpbmciIHRleHRMZW5ndGg9IjciIHg9IjcyNS41IiB5PSI1MjMuMjM0NCI+KzwvdGV4dD48dGV4dCBmaWxsPSIjMDAwMDAwIiBmb250LWZhbWlseT0ic2Fucy1zZXJpZiIgZm9udC1zaXplPSIxNCIgbGVuZ3RoQWRqdXN0PSJzcGFjaW5nIiB0ZXh0TGVuZ3RoPSI3IiB4PSI3MzIuNSIgeT0iNTIzLjIzNDQiPiYjMTYwOzwvdGV4dD48dGV4dCBmaWxsPSIjMDAwMDAwIiBmb250LWZhbWlseT0ic2Fucy1zZXJpZiIgZm9udC1zaXplPSIxNCIgbGVuZ3RoQWRqdXN0PSJzcGFjaW5nIiB0ZXh0TGVuZ3RoPSI1NiIgeD0iNzM5LjUiIHk9IjUyMy4yMzQ0Ij5FdGhlcmVhbDwvdGV4dD48L2c+PCEtLWVudGl0eSBVcGxvYWRzLS0+PGcgY2xhc3M9ImVudGl0eSIgZGF0YS1lbnRpdHk9IlVwbG9hZHMiIGRhdGEtc291cmNlLWxpbmU9IjMwIiBkYXRhLXVpZD0iZW50MDAxNiIgaWQ9ImVudGl0eV9VcGxvYWRzIj48cGF0aCBkPSJNODQ1LDQ4My41IEw4ODMsNDgzLjUgQTYsNiAwIDAgMSA4ODcsNDg3LjUgTDg5NCw1MDQuNSBMOTc5LDUwNC41IEE0LDQgMCAwIDEgOTgzLDUwOC41IEw5ODMsNTQ3LjQ2ODggQTQsNCAwIDAgMSA5NzksNTUxLjQ2ODggTDg0NSw1NTEuNDY4OCBBNCw0IDAgMCAxIDg0MSw1NDcuNDY4OCBMODQxLDQ4Ny41IEE0LDQgMCAwIDEgODQ1LDQ4My41IiBmaWxsPSIjRjFGMUYxIiBmaWx0ZXI9InVybCgjZnVnOW51NnV4bzZwNikiIHN0eWxlPSJzdHJva2U6IzE4MTgxODtzdHJva2Utd2lkdGg6MC41OyIvPjxsaW5lIHN0eWxlPSJzdHJva2U6IzE4MTgxODtzdHJva2Utd2lkdGg6MC41OyIgeDE9Ijg0MSIgeDI9Ijg5NCIgeTE9IjUwNC41IiB5Mj0iNTA0LjUiLz48dGV4dCBmaWxsPSIjMDAwMDAwIiBmb250LWZhbWlseT0ic2Fucy1zZXJpZiIgZm9udC1zaXplPSIxNCIgbGVuZ3RoQWRqdXN0PSJzcGFjaW5nIiB0ZXh0TGVuZ3RoPSI1NiIgeD0iODUxIiB5PSI1MjQuNzM0NCI+RGlyZWN0b3I8L3RleHQ+PHRleHQgZmlsbD0iIzAwMDAwMCIgZm9udC1mYW1pbHk9InNhbnMtc2VyaWYiIGZvbnQtc2l6ZT0iMTQiIGxlbmd0aEFkanVzdD0ic3BhY2luZyIgdGV4dExlbmd0aD0iNyIgeD0iOTA3IiB5PSI1MjQuNzM0NCI+JiMxNjA7PC90ZXh0Pjx0ZXh0IGZpbGw9IiMwMDAwMDAiIGZvbnQtZmFtaWx5PSJzYW5zLXNlcmlmIiBmb250LXNpemU9IjE0IiBsZW5ndGhBZGp1c3Q9InNwYWNpbmciIHRleHRMZW5ndGg9IjQ5IiB4PSI5MTQiIHk9IjUyNC43MzQ0Ij5VcGxvYWRzPC90ZXh0Pjx0ZXh0IGZpbGw9IiMwMDAwMDAiIGZvbnQtZmFtaWx5PSJzYW5zLXNlcmlmIiBmb250LXNpemU9IjE0IiBsZW5ndGhBZGp1c3Q9InNwYWNpbmciIHRleHRMZW5ndGg9IjYzIiB4PSI4NTQuNSIgeT0iNTM5LjcxODgiPigvdXBsb2FkczwvdGV4dD48dGV4dCBmaWxsPSIjMDAwMDAwIiBmb250LWZhbWlseT0ic2Fucy1zZXJpZiIgZm9udC1zaXplPSIxNCIgbGVuZ3RoQWRqdXN0PSJzcGFjaW5nIiB0ZXh0TGVuZ3RoPSI3IiB4PSI5MTcuNSIgeT0iNTM5LjcxODgiPiYjMTYwOzwvdGV4dD48dGV4dCBmaWxsPSIjMDAwMDAwIiBmb250LWZhbWlseT0ic2Fucy1zZXJpZiIgZm9udC1zaXplPSIxNCIgbGVuZ3RoQWRqdXN0PSJzcGFjaW5nIiB0ZXh0TGVuZ3RoPSI3IiB4PSI5MjQuNSIgeT0iNTM5LjcxODgiPiYjODU5Njs8L3RleHQ+PHRleHQgZmlsbD0iIzAwMDAwMCIgZm9udC1mYW1pbHk9InNhbnMtc2VyaWYiIGZvbnQtc2l6ZT0iMTQiIGxlbmd0aEFkanVzdD0ic3BhY2luZyIgdGV4dExlbmd0aD0iNyIgeD0iOTMxLjUiIHk9IjUzOS43MTg4Ij4mIzE2MDs8L3RleHQ+PHRleHQgZmlsbD0iIzAwMDAwMCIgZm9udC1mYW1pbHk9InNhbnMtc2VyaWYiIGZvbnQtc2l6ZT0iMTQiIGxlbmd0aEFkanVzdD0ic3BhY2luZyIgdGV4dExlbmd0aD0iMjEiIHg9IjkzOC41IiB5PSI1MzkuNzE4OCI+UzMpPC90ZXh0PjwvZz48IS0tZW50aXR5IFdTLS0+PGcgY2xhc3M9ImVudGl0eSIgZGF0YS1lbnRpdHk9IldTIiBkYXRhLXNvdXJjZS1saW5lPSIzMSIgZGF0YS11aWQ9ImVudDAwMTciIGlkPSJlbnRpdHlfV1MiPjxyZWN0IGZpbGw9IiNGMUYxRjEiIGZpbHRlcj0idXJsKCNmdWc5bnU2dXhvNnA2KSIgaGVpZ2h0PSI0OS45Njg4IiByeD0iNCIgcnk9IjQiIHN0eWxlPSJzdHJva2U6IzE4MTgxODtzdHJva2Utd2lkdGg6MC41OyIgd2lkdGg9IjkwIiB4PSIxMDE4IiB5PSI0OTIuNSIvPjx0ZXh0IGZpbGw9IiMwMDAwMDAiIGZvbnQtZmFtaWx5PSJzYW5zLXNlcmlmIiBmb250LXNpemU9IjE0IiBsZW5ndGhBZGp1c3Q9InNwYWNpbmciIHRleHRMZW5ndGg9IjYzIiB4PSIxMDMxLjUiIHk9IjUxNS43MzQ0Ij5XZWJTb2NrZXQ8L3RleHQ+PHRleHQgZmlsbD0iIzAwMDAwMCIgZm9udC1mYW1pbHk9InNhbnMtc2VyaWYiIGZvbnQtc2l6ZT0iMTQiIGxlbmd0aEFkanVzdD0ic3BhY2luZyIgdGV4dExlbmd0aD0iNzAiIHg9IjEwMjgiIHk9IjUzMC43MTg4Ij5Ob3RpZmljJiMyNTk7cmk8L3RleHQ+PC9nPjwhLS1lbnRpdHkgQ29udHJhY3QtLT48ZyBjbGFzcz0iZW50aXR5IiBkYXRhLWVudGl0eT0iQ29udHJhY3QiIGRhdGEtc291cmNlLWxpbmU9IjQzIiBkYXRhLXVpZD0iZW50MDAyNiIgaWQ9ImVudGl0eV9Db250cmFjdCI+PHJlY3QgZmlsbD0iI0YxRjFGMSIgZmlsdGVyPSJ1cmwoI2Z1ZzludTZ1eG82cDYpIiBoZWlnaHQ9IjQ5Ljk2ODgiIHJ4PSI0IiByeT0iNCIgc3R5bGU9InN0cm9rZTojMTgxODE4O3N0cm9rZS13aWR0aDowLjU7IiB3aWR0aD0iMjU4IiB4PSIxMzAiIHk9IjQ5Mi41Ii8+PHRleHQgZmlsbD0iIzAwMDAwMCIgZm9udC1mYW1pbHk9InNhbnMtc2VyaWYiIGZvbnQtc2l6ZT0iMTQiIGxlbmd0aEFkanVzdD0ic3BhY2luZyIgdGV4dExlbmd0aD0iOTgiIHg9IjE0MCIgeT0iNTE1LjczNDQiPlNtYXJ0JiM4MjA5O2NvbnRyYWN0PC90ZXh0Pjx0ZXh0IGZpbGw9IiMwMDAwMDAiIGZvbnQtZmFtaWx5PSJzYW5zLXNlcmlmIiBmb250LXNpemU9IjE0IiBsZW5ndGhBZGp1c3Q9InNwYWNpbmciIHRleHRMZW5ndGg9IjciIHg9IjIzOCIgeT0iNTE1LjczNDQiPiYjMTYwOzwvdGV4dD48dGV4dCBmaWxsPSIjMDAwMDAwIiBmb250LWZhbWlseT0ic2Fucy1zZXJpZiIgZm9udC1zaXplPSIxNCIgbGVuZ3RoQWRqdXN0PSJzcGFjaW5nIiB0ZXh0TGVuZ3RoPSIxMzMiIHg9IjI0NSIgeT0iNTE1LjczNDQiPlBheW1lbnRDb250cmFjdC5zb2w8L3RleHQ+PHRleHQgZmlsbD0iIzAwMDAwMCIgZm9udC1mYW1pbHk9InNhbnMtc2VyaWYiIGZvbnQtc2l6ZT0iMTQiIGxlbmd0aEFkanVzdD0ic3BhY2luZyIgdGV4dExlbmd0aD0iNjMiIHg9IjE5NiIgeT0iNTMwLjcxODgiPihwYXlhYmxlLDwvdGV4dD48dGV4dCBmaWxsPSIjMDAwMDAwIiBmb250LWZhbWlseT0ic2Fucy1zZXJpZiIgZm9udC1zaXplPSIxNCIgbGVuZ3RoQWRqdXN0PSJzcGFjaW5nIiB0ZXh0TGVuZ3RoPSI3IiB4PSIyNTkiIHk9IjUzMC43MTg4Ij4mIzE2MDs8L3RleHQ+PHRleHQgZmlsbD0iIzAwMDAwMCIgZm9udC1mYW1pbHk9InNhbnMtc2VyaWYiIGZvbnQtc2l6ZT0iMTQiIGxlbmd0aEFkanVzdD0ic3BhY2luZyIgdGV4dExlbmd0aD0iNTYiIHg9IjI2NiIgeT0iNTMwLjcxODgiPk93bmFibGUpPC90ZXh0PjwvZz48IS0tZW50aXR5IEFCSS0tPjxnIGNsYXNzPSJlbnRpdHkiIGRhdGEtZW50aXR5PSJBQkkiIGRhdGEtc291cmNlLWxpbmU9IjQ0IiBkYXRhLXVpZD0iZW50MDAyNyIgaWQ9ImVudGl0eV9BQkkiPjxwYXRoIGQ9Ik0xODkuNSw2MjEuNSBDMTg5LjUsNjExLjUgMjU5LDYxMS41IDI1OSw2MTEuNSBDMjU5LDYxMS41IDMyOC41LDYxMS41IDMyOC41LDYyMS41IEwzMjguNSw2NjAuNDY4OCBDMzI4LjUsNjcwLjQ2ODggMjU5LDY3MC40Njg4IDI1OSw2NzAuNDY4OCBDMjU5LDY3MC40Njg4IDE4OS41LDY3MC40Njg4IDE4OS41LDY2MC40Njg4IEwxODkuNSw2MjEuNSIgZmlsbD0iI0YxRjFGMSIgZmlsdGVyPSJ1cmwoI2Z1ZzludTZ1eG82cDYpIiBzdHlsZT0ic3Ryb2tlOiMxODE4MTg7c3Ryb2tlLXdpZHRoOjAuNTsiLz48cGF0aCBkPSJNMTg5LjUsNjIxLjUgQzE4OS41LDYzMS41IDI1OSw2MzEuNSAyNTksNjMxLjUgQzI1OSw2MzEuNSAzMjguNSw2MzEuNSAzMjguNSw2MjEuNSIgZmlsbD0ibm9uZSIgc3R5bGU9InN0cm9rZTojMTgxODE4O3N0cm9rZS13aWR0aDowLjU7Ii8+PHRleHQgZmlsbD0iIzAwMDAwMCIgZm9udC1mYW1pbHk9InNhbnMtc2VyaWYiIGZvbnQtc2l6ZT0iMTQiIGxlbmd0aEFkanVzdD0ic3BhY2luZyIgdGV4dExlbmd0aD0iMTE5IiB4PSIxOTkuNSIgeT0iNjQ4LjczNDQiPmNvbnRyYWN0RGF0YS5qc29uPC90ZXh0Pjx0ZXh0IGZpbGw9IiMwMDAwMDAiIGZvbnQtZmFtaWx5PSJzYW5zLXNlcmlmIiBmb250LXNpemU9IjE0IiBsZW5ndGhBZGp1c3Q9InNwYWNpbmciIHRleHRMZW5ndGg9IjIxIiB4PSIyMTciIHk9IjY2My43MTg4Ij5BQkk8L3RleHQ+PHRleHQgZmlsbD0iIzAwMDAwMCIgZm9udC1mYW1pbHk9InNhbnMtc2VyaWYiIGZvbnQtc2l6ZT0iMTQiIGxlbmd0aEFkanVzdD0ic3BhY2luZyIgdGV4dExlbmd0aD0iNyIgeD0iMjM4IiB5PSI2NjMuNzE4OCI+JiMxNjA7PC90ZXh0Pjx0ZXh0IGZpbGw9IiMwMDAwMDAiIGZvbnQtZmFtaWx5PSJzYW5zLXNlcmlmIiBmb250LXNpemU9IjE0IiBsZW5ndGhBZGp1c3Q9InNwYWNpbmciIHRleHRMZW5ndGg9IjciIHg9IjI0NSIgeT0iNjYzLjcxODgiPis8L3RleHQ+PHRleHQgZmlsbD0iIzAwMDAwMCIgZm9udC1mYW1pbHk9InNhbnMtc2VyaWYiIGZvbnQtc2l6ZT0iMTQiIGxlbmd0aEFkanVzdD0ic3BhY2luZyIgdGV4dExlbmd0aD0iNyIgeD0iMjUyIiB5PSI2NjMuNzE4OCI+JiMxNjA7PC90ZXh0Pjx0ZXh0IGZpbGw9IiMwMDAwMDAiIGZvbnQtZmFtaWx5PSJzYW5zLXNlcmlmIiBmb250LXNpemU9IjE0IiBsZW5ndGhBZGp1c3Q9InNwYWNpbmciIHRleHRMZW5ndGg9IjQyIiB4PSIyNTkiIHk9IjY2My43MTg4Ij5BZHJlcyYjMjU5OzwvdGV4dD48L2c+PCEtLWVudGl0eSBDbGllbnQtLT48ZyBjbGFzcz0iZW50aXR5IiBkYXRhLWVudGl0eT0iQ2xpZW50IiBkYXRhLXNvdXJjZS1saW5lPSIxMSIgZGF0YS11aWQ9ImVudDAwMDIiIGlkPSJlbnRpdHlfQ2xpZW50Ij48ZWxsaXBzZSBjeD0iMTI1IiBjeT0iMTQiIGZpbGw9IiNGMUYxRjEiIGZpbHRlcj0idXJsKCNmdWc5bnU2dXhvNnA2KSIgcng9IjgiIHJ5PSI4IiBzdHlsZT0ic3Ryb2tlOiMxODE4MTg7c3Ryb2tlLXdpZHRoOjAuNTsiLz48cGF0aCBkPSJNMTI1LDIyIEwxMjUsNDkgTTExMiwzMCBMMTM4LDMwIE0xMjUsNDkgTDExMiw2NCBNMTI1LDQ5IEwxMzgsNjQiIGZpbGw9Im5vbmUiIGZpbHRlcj0idXJsKCNmdWc5bnU2dXhvNnA2KSIgc3R5bGU9InN0cm9rZTojMTgxODE4O3N0cm9rZS13aWR0aDowLjU7Ii8+PHRleHQgZmlsbD0iIzAwMDAwMCIgZm9udC1mYW1pbHk9InNhbnMtc2VyaWYiIGZvbnQtc2l6ZT0iMTQiIGxlbmd0aEFkanVzdD0ic3BhY2luZyIgdGV4dExlbmd0aD0iNDIiIHg9IjEwNCIgeT0iODEuNzM0NCI+Q2xpZW50PC90ZXh0PjwvZz48IS0tZW50aXR5IEhvc3QtLT48ZyBjbGFzcz0iZW50aXR5IiBkYXRhLWVudGl0eT0iSG9zdCIgZGF0YS1zb3VyY2UtbGluZT0iMTIiIGRhdGEtdWlkPSJlbnQwMDAzIiBpZD0iZW50aXR5X0hvc3QiPjxlbGxpcHNlIGN4PSIxOTkiIGN5PSIxNCIgZmlsbD0iI0YxRjFGMSIgZmlsdGVyPSJ1cmwoI2Z1ZzludTZ1eG82cDYpIiByeD0iOCIgcnk9IjgiIHN0eWxlPSJzdHJva2U6IzE4MTgxODtzdHJva2Utd2lkdGg6MC41OyIvPjxwYXRoIGQ9Ik0xOTksMjIgTDE5OSw0OSBNMTg2LDMwIEwyMTIsMzAgTTE5OSw0OSBMMTg2LDY0IE0xOTksNDkgTDIxMiw2NCIgZmlsbD0ibm9uZSIgZmlsdGVyPSJ1cmwoI2Z1ZzludTZ1eG82cDYpIiBzdHlsZT0ic3Ryb2tlOiMxODE4MTg7c3Ryb2tlLXdpZHRoOjAuNTsiLz48dGV4dCBmaWxsPSIjMDAwMDAwIiBmb250LWZhbWlseT0ic2Fucy1zZXJpZiIgZm9udC1zaXplPSIxNCIgbGVuZ3RoQWRqdXN0PSJzcGFjaW5nIiB0ZXh0TGVuZ3RoPSIzNSIgeD0iMTgxLjUiIHk9IjgxLjczNDQiPkdhemQmIzI1OTs8L3RleHQ+PC9nPjwhLS1lbnRpdHkgQWRtaW4tLT48ZyBjbGFzcz0iZW50aXR5IiBkYXRhLWVudGl0eT0iQWRtaW4iIGRhdGEtc291cmNlLWxpbmU9IjEzIiBkYXRhLXVpZD0iZW50MDAwNCIgaWQ9ImVudGl0eV9BZG1pbiI+PGVsbGlwc2UgY3g9IjI5NyIgY3k9IjE0IiBmaWxsPSIjRjFGMUYxIiBmaWx0ZXI9InVybCgjZnVnOW51NnV4bzZwNikiIHJ4PSI4IiByeT0iOCIgc3R5bGU9InN0cm9rZTojMTgxODE4O3N0cm9rZS13aWR0aDowLjU7Ii8+PHBhdGggZD0iTTI5NywyMiBMMjk3LDQ5IE0yODQsMzAgTDMxMCwzMCBNMjk3LDQ5IEwyODQsNjQgTTI5Nyw0OSBMMzEwLDY0IiBmaWxsPSJub25lIiBmaWx0ZXI9InVybCgjZnVnOW51NnV4bzZwNikiIHN0eWxlPSJzdHJva2U6IzE4MTgxODtzdHJva2Utd2lkdGg6MC41OyIvPjx0ZXh0IGZpbGw9IiMwMDAwMDAiIGZvbnQtZmFtaWx5PSJzYW5zLXNlcmlmIiBmb250LXNpemU9IjE0IiBsZW5ndGhBZGp1c3Q9InNwYWNpbmciIHRleHRMZW5ndGg9IjkxIiB4PSIyNTEuNSIgeT0iODEuNzM0NCI+QWRtaW5pc3RyYXRvcjwvdGV4dD48L2c+PCEtLWVudGl0eSBDb2luR2Vja28tLT48ZyBjbGFzcz0iZW50aXR5IiBkYXRhLWVudGl0eT0iQ29pbkdlY2tvIiBkYXRhLXNvdXJjZS1saW5lPSI0OSIgZGF0YS11aWQ9ImVudDAwMjkiIGlkPSJlbnRpdHlfQ29pbkdlY2tvIj48cGF0aCBkPSJNMzQ4LjU2ODcsMjYzLjQ5NTkgQzM1MS43OTE3LDI1Ni4wOTI3IDM1Ny44Mjg5LDI1Ny4xOTkgMzYxLjcxNSwyNjIuODI2OCBDMzY1LjcxODUsMjU1Ljc5NTUgMzY5LjcyNzYsMjU1LjY5NDcgMzc0Ljk2NTYsMjYxLjU1ODIgQzM3Ny45MzgyLDI1NS40NjYyIDM4My45MTIzLDI1NS4xNTc4IDM4Ny42MTA4LDI2MC43NzQyIEMzOTAuOTY5OCwyNTMuOTc0OSAzOTYuNTQzMSwyNTQuNTk2NiA0MDAuMDIxNSwyNjAuNjU4OSBDNDA0LjA5NjYsMjU0Ljk1ODggNDA5LjQ4ODksMjU0Ljk5OTggNDEzLjIzNSwyNjEuMDI5NiBDNDE5LjAyMjEsMjUzLjg3NTMgNDIzLjM2MTksMjU1LjUzODYgNDI3Ljk4NzMsMjYyLjI2NDMgQzQzMC44NTg0LDI1NS45MjE0IDQzNi44MTgyLDI1Ni4zNjI4IDQ0MC4xMTg3LDI2MS44MjI5IEM0NDMuOTQ4MSwyNTUuNjI5OSA0NTAuNDg3MiwyNTUuNTMwNiA0NTQuMDY3NywyNjIuMDk1IEM0NjMuODAwOCwyNjMuMDIyNyA0NjQuOTA2MywyNjkuOTAwOCA0NjAuMTg3LDI3Ni44MzAzIEM0NjUuODE0MywyODQuMDcyNyA0NjIuODk5LDI4OS4zMzI1IDQ1NC42MTEsMjkxLjE2MDIgQzQ1MS4yNDQ2LDI5OS4yNDA2IDQ0Ni45Nzc4LDMwMC42ODM1IDQ0MC41MDUxLDI5NC4xNjA4IEM0MzYuNDcxMiwzMDEuMTEzOCA0MzEuMDMyMywzMDEuNTIwNSA0MjcuMDM5NiwyOTQuMTIyMiBDNDIzLjU3NzgsMzAwLjYxNjEgNDE5LjM5MDEsMzAyLjk4NTIgNDEzLjMzMzksMjk2Ljk2MzMgQzQxMC4yMTM5LDMwMy43NjU1IDQwNS40MzUzLDMwMy42ODY1IDQwMC41NTU5LDI5OC45MDM5IEMzOTQuOTkyMSwzMDQuMTEwOSAzOTAuNTg3MSwzMDIuNTE3NyAzODguMzQ5NiwyOTUuNTY0OSBDMzg0LjQyMzksMzAxLjk0NjkgMzc5LjMyNDcsMzAxLjQwNDIgMzc1LjgyNjksMjk1LjE0MTMgQzM3MS42NTYsMzAxLjI2OTUgMzY1LjA5NiwzMDAuNjAxIDM2MS45MzQ0LDI5NC4wMzY2IEMzNTUuNjAwNiwyOTguOTY2IDM1MS40NzYyLDI5Ny44NzM5IDM0OC4zMTA4LDI5MC41MjIgQzM0MS41MDUsMjg3LjU1MDIgMzQxLjM3NSwyODEuOTM4OSAzNDcuMTMzLDI3Ny44MDM2IEMzNDEuNTk0MywyNzIuODAzIDM0MS4yOTQ1LDI2Ny4yMTA4IDM0OC41Njg3LDI2My40OTU5IiBmaWxsPSIjRjFGMUYxIiBmaWx0ZXI9InVybCgjZnVnOW51NnV4bzZwNikiIHN0eWxlPSJzdHJva2U6IzE4MTgxODtzdHJva2Utd2lkdGg6MC41OyIvPjx0ZXh0IGZpbGw9IiMwMDAwMDAiIGZvbnQtZmFtaWx5PSJzYW5zLXNlcmlmIiBmb250LXNpemU9IjE0IiBsZW5ndGhBZGp1c3Q9InNwYWNpbmciIHRleHRMZW5ndGg9IjIxIiB4PSIzNTQuNSIgeT0iMjgxLjczNDQiPkFQSTwvdGV4dD48dGV4dCBmaWxsPSIjMDAwMDAwIiBmb250LWZhbWlseT0ic2Fucy1zZXJpZiIgZm9udC1zaXplPSIxNCIgbGVuZ3RoQWRqdXN0PSJzcGFjaW5nIiB0ZXh0TGVuZ3RoPSI3IiB4PSIzNzUuNSIgeT0iMjgxLjczNDQiPiYjMTYwOzwvdGV4dD48dGV4dCBmaWxsPSIjMDAwMDAwIiBmb250LWZhbWlseT0ic2Fucy1zZXJpZiIgZm9udC1zaXplPSIxNCIgbGVuZ3RoQWRqdXN0PSJzcGFjaW5nIiB0ZXh0TGVuZ3RoPSI2MyIgeD0iMzgyLjUiIHk9IjI4MS43MzQ0Ij5Db2luR2Vja288L3RleHQ+PC9nPjwhLS1saW5rIFJlYWN0IHRvIE1ldGFNYXNrLS0+PGcgY2xhc3M9ImxpbmsiIGRhdGEtZW50aXR5LTE9IlJlYWN0IiBkYXRhLWVudGl0eS0yPSJNZXRhTWFzayIgZGF0YS1zb3VyY2UtbGluZT0iMTkiIGRhdGEtdWlkPSJsbms4IiBpZD0ibGlua19SZWFjdF9NZXRhTWFzayI+PHBhdGggZD0iTTIxNCwxOTMuNyBDMjE0LDIxMS43IDIxNCwyMjkuNzEgMjE0LDI0Ny4xNSIgZmlsbD0ibm9uZSIgaWQ9IlJlYWN0LXRvLU1ldGFNYXNrIiBzdHlsZT0ic3Ryb2tlOiMxODE4MTg7c3Ryb2tlLXdpZHRoOjE7Ii8+PHBvbHlnb24gZmlsbD0iIzE4MTgxOCIgcG9pbnRzPSIyMTQsMjUzLjE1LDIxOCwyNDQuMTUsMjE0LDI0OC4xNSwyMTAsMjQ0LjE1LDIxNCwyNTMuMTUiIHN0eWxlPSJzdHJva2U6IzE4MTgxODtzdHJva2Utd2lkdGg6MTsiLz48dGV4dCBmaWxsPSIjMDAwMDAwIiBmb250LWZhbWlseT0ic2Fucy1zZXJpZiIgZm9udC1zaXplPSIxMyIgbGVuZ3RoQWRqdXN0PSJzcGFjaW5nIiB0ZXh0TGVuZ3RoPSI1MiIgeD0iMTUxLjc1IiB5PSIyMzYuNzE5MSI+c2VtbmVheiYjMjU5OzwvdGV4dD48dGV4dCBmaWxsPSIjMDAwMDAwIiBmb250LWZhbWlseT0ic2Fucy1zZXJpZiIgZm9udC1zaXplPSIxMyIgbGVuZ3RoQWRqdXN0PSJzcGFjaW5nIiB0ZXh0TGVuZ3RoPSI2NSIgeD0iMTQ1LjI1IiB5PSIyNTAuNjMzMSI+dHJhbnphYyYjNTM5O2llPC90ZXh0Pjx0ZXh0IGZpbGw9IiMwMDAwMDAiIGZvbnQtZmFtaWx5PSJzYW5zLXNlcmlmIiBmb250LXNpemU9IjEzIiBsZW5ndGhBZGp1c3Q9InNwYWNpbmciIHRleHRMZW5ndGg9IjcxLjUiIHg9IjE0MiIgeT0iMjY0LjU0NzIiPihFdGhlcnMuanMpPC90ZXh0PjwvZz48IS0tbGluayBTZXJ2ZXIgdG8gTVctLT48ZyBjbGFzcz0ibGluayIgZGF0YS1lbnRpdHktMT0iU2VydmVyIiBkYXRhLWVudGl0eS0yPSJNVyIgZGF0YS1zb3VyY2UtbGluZT0iMzIiIGRhdGEtdWlkPSJsbmsxOCIgaWQ9ImxpbmtfU2VydmVyX01XIj48cGF0aCBkPSJNNTc0LjMzLDI5My45NyBDNTc0LjMzLDMxMy4zIDU3NC4zMywzMzguMTggNTc0LjMzLDM1OS45IiBmaWxsPSJub25lIiBpZD0iU2VydmVyLXRvLU1XIiBzdHlsZT0ic3Ryb2tlOiMxODE4MTg7c3Ryb2tlLXdpZHRoOjE7Ii8+PHBvbHlnb24gZmlsbD0iIzE4MTgxOCIgcG9pbnRzPSI1NzQuMzMsMzY1LjksNTc4LjMzLDM1Ni45LDU3NC4zMywzNjAuOSw1NzAuMzMsMzU2LjksNTc0LjMzLDM2NS45IiBzdHlsZT0ic3Ryb2tlOiMxODE4MTg7c3Ryb2tlLXdpZHRoOjE7Ii8+PC9nPjwhLS1saW5rIFNlcnZlciB0byBDdHJscy0tPjxnIGNsYXNzPSJsaW5rIiBkYXRhLWVudGl0eS0xPSJTZXJ2ZXIiIGRhdGEtZW50aXR5LTI9IkN0cmxzIiBkYXRhLXNvdXJjZS1saW5lPSIzMyIgZGF0YS11aWQ9ImxuazE5IiBpZD0ibGlua19TZXJ2ZXJfQ3RybHMiPjxwYXRoIGQ9Ik02MTMuNjcsMjkzLjUgQzYxMy42NywzMTguNzggNjEzLjY3LDM2Mi41IDYxMy42NywzNjIuNSBDNjEzLjY3LDM2Mi41IDY2NS44MSwzNjIuNSA3MjQuMywzNjIuNSIgZmlsbD0ibm9uZSIgaWQ9IlNlcnZlci10by1DdHJscyIgc3R5bGU9InN0cm9rZTojMTgxODE4O3N0cm9rZS13aWR0aDoxOyIvPjxwb2x5Z29uIGZpbGw9IiMxODE4MTgiIHBvaW50cz0iNzMwLjMsMzYyLjUsNzIxLjMsMzU4LjUsNzI1LjMsMzYyLjUsNzIxLjMsMzY2LjUsNzMwLjMsMzYyLjUiIHN0eWxlPSJzdHJva2U6IzE4MTgxODtzdHJva2Utd2lkdGg6MTsiLz48L2c+PCEtLWxpbmsgQ3RybHMgdG8gTW9uZ28tLT48ZyBjbGFzcz0ibGluayIgZGF0YS1lbnRpdHktMT0iQ3RybHMiIGRhdGEtZW50aXR5LTI9Ik1vbmdvIiBkYXRhLXNvdXJjZS1saW5lPSIzNCIgZGF0YS11aWQ9ImxuazIwIiBpZD0ibGlua19DdHJsc19Nb25nbyI+PHBhdGggZD0iTTczMC4xNCw0MjEuNSBDNjQ2LjA3LDQyMS41IDU0OC4yNSw0MjEuNSA1NDguMjUsNDIxLjUgQzU0OC4yNSw0MjEuNSA1NDguMjUsNDYwLjg4IDU0OC4yNSw0ODkuMjMiIGZpbGw9Im5vbmUiIGlkPSJDdHJscy10by1Nb25nbyIgc3R5bGU9InN0cm9rZTojMTgxODE4O3N0cm9rZS13aWR0aDoxOyIvPjxwb2x5Z29uIGZpbGw9IiMxODE4MTgiIHBvaW50cz0iNTQ4LjI1LDQ5NS4yMyw1NTIuMjUsNDg2LjIzLDU0OC4yNSw0OTAuMjMsNTQ0LjI1LDQ4Ni4yMyw1NDguMjUsNDk1LjIzIiBzdHlsZT0ic3Ryb2tlOiMxODE4MTg7c3Ryb2tlLXdpZHRoOjE7Ii8+PC9nPjwhLS1saW5rIEN0cmxzIHRvIFVwbG9hZHMtLT48ZyBjbGFzcz0ibGluayIgZGF0YS1lbnRpdHktMT0iQ3RybHMiIGRhdGEtZW50aXR5LTI9IlVwbG9hZHMiIGRhdGEtc291cmNlLWxpbmU9IjM1IiBkYXRhLXVpZD0ibG5rMjEiIGlkPSJsaW5rX0N0cmxzX1VwbG9hZHMiPjxwYXRoIGQ9Ik05MDQuMjUsNDIzLjU4IEM5MDQuMjUsNDQxLjg4IDkwNC4yNSw0NzkuNyA5MDQuMjUsNDk4LjI2IiBmaWxsPSJub25lIiBpZD0iQ3RybHMtdG8tVXBsb2FkcyIgc3R5bGU9InN0cm9rZTojMTgxODE4O3N0cm9rZS13aWR0aDoxOyIvPjxwb2x5Z29uIGZpbGw9IiMxODE4MTgiIHBvaW50cz0iOTA0LjI1LDUwNC4yNiw5MDguMjUsNDk1LjI2LDkwNC4yNSw0OTkuMjYsOTAwLjI1LDQ5NS4yNiw5MDQuMjUsNTA0LjI2IiBzdHlsZT0ic3Ryb2tlOiMxODE4MTg7c3Ryb2tlLXdpZHRoOjE7Ii8+PC9nPjwhLS1saW5rIEN0cmxzIHRvIE1haWxlci0tPjxnIGNsYXNzPSJsaW5rIiBkYXRhLWVudGl0eS0xPSJDdHJscyIgZGF0YS1lbnRpdHktMj0iTWFpbGVyIiBkYXRhLXNvdXJjZS1saW5lPSIzNiIgZGF0YS11aWQ9ImxuazIyIiBpZD0ibGlua19DdHJsc19NYWlsZXIiPjxwYXRoIGQ9Ik03NjgsNDIzLjU4IEM3NjgsNDQ3Ljg4IDc2OCw0NzQuMTYgNzY4LDQ5My44NSIgZmlsbD0ibm9uZSIgaWQ9IkN0cmxzLXRvLU1haWxlciIgc3R5bGU9InN0cm9rZTojMTgxODE4O3N0cm9rZS13aWR0aDoxOyIvPjxwb2x5Z29uIGZpbGw9IiMxODE4MTgiIHBvaW50cz0iNzY4LDQ5OS44NSw3NzIsNDkwLjg1LDc2OCw0OTQuODUsNzY0LDQ5MC44NSw3NjgsNDk5Ljg1IiBzdHlsZT0ic3Ryb2tlOiMxODE4MTg7c3Ryb2tlLXdpZHRoOjE7Ii8+PHRleHQgZmlsbD0iIzAwMDAwMCIgZm9udC1mYW1pbHk9InNhbnMtc2VyaWYiIGZvbnQtc2l6ZT0iMTMiIGxlbmd0aEFkanVzdD0ic3BhY2luZyIgdGV4dExlbmd0aD0iNDUuNSIgeD0iNjgzIiB5PSI0NTkuOTk5MSI+dHJpbWl0ZTwvdGV4dD48dGV4dCBmaWxsPSIjMDAwMDAwIiBmb250LWZhbWlseT0ic2Fucy1zZXJpZiIgZm9udC1zaXplPSIxMyIgbGVuZ3RoQWRqdXN0PSJzcGFjaW5nIiB0ZXh0TGVuZ3RoPSI2LjUiIHg9IjcyOC41IiB5PSI0NTkuOTk5MSI+JiMxNjA7PC90ZXh0Pjx0ZXh0IGZpbGw9IiMwMDAwMDAiIGZvbnQtZmFtaWx5PSJzYW5zLXNlcmlmIiBmb250LXNpemU9IjEzIiBsZW5ndGhBZGp1c3Q9InNwYWNpbmciIHRleHRMZW5ndGg9IjMyLjUiIHg9IjczNSIgeT0iNDU5Ljk5OTEiPmVtYWlsPC90ZXh0PjwvZz48IS0tbGluayBDdHJscyB0byBTdHJpcGUtLT48ZyBjbGFzcz0ibGluayIgZGF0YS1lbnRpdHktMT0iQ3RybHMiIGRhdGEtZW50aXR5LTI9IlN0cmlwZSIgZGF0YS1zb3VyY2UtbGluZT0iMzciIGRhdGEtdWlkPSJsbmsyMyIgaWQ9ImxpbmtfQ3RybHNfU3RyaXBlIj48cGF0aCBkPSJNOTY3LjU2LDM4MC41IEMxMDY4LjE4LDM4MC41IDExOTYuMzMsMzgwLjUgMTE5Ni4zMywzODAuNSBDMTE5Ni4zMywzODAuNSAxMTk2LjMzLDQ1Ni44NyAxMTk2LjMzLDQ5My44NyIgZmlsbD0ibm9uZSIgaWQ9IkN0cmxzLXRvLVN0cmlwZSIgc3R5bGU9InN0cm9rZTojMTgxODE4O3N0cm9rZS13aWR0aDoxOyIvPjxwb2x5Z29uIGZpbGw9IiMxODE4MTgiIHBvaW50cz0iMTE5Ni4zMyw0OTkuODcsMTIwMC4zMyw0OTAuODcsMTE5Ni4zMyw0OTQuODcsMTE5Mi4zMyw0OTAuODcsMTE5Ni4zMyw0OTkuODciIHN0eWxlPSJzdHJva2U6IzE4MTgxODtzdHJva2Utd2lkdGg6MTsiLz48dGV4dCBmaWxsPSIjMDAwMDAwIiBmb250LWZhbWlseT0ic2Fucy1zZXJpZiIgZm9udC1zaXplPSIxMyIgbGVuZ3RoQWRqdXN0PSJzcGFjaW5nIiB0ZXh0TGVuZ3RoPSI1MiIgeD0iMTAzNi42MyIgeT0iMzc4Ljc4OTEiPnZlcmlmaWMmIzI1OTs8L3RleHQ+PHRleHQgZmlsbD0iIzAwMDAwMCIgZm9udC1mYW1pbHk9InNhbnMtc2VyaWYiIGZvbnQtc2l6ZT0iMTMiIGxlbmd0aEFkanVzdD0ic3BhY2luZyIgdGV4dExlbmd0aD0iNi41IiB4PSIxMDg4LjYzIiB5PSIzNzguNzg5MSI+JiMxNjA7PC90ZXh0Pjx0ZXh0IGZpbGw9IiMwMDAwMDAiIGZvbnQtZmFtaWx5PSJzYW5zLXNlcmlmIiBmb250LXNpemU9IjEzIiBsZW5ndGhBZGp1c3Q9InNwYWNpbmciIHRleHRMZW5ndGg9IjQ1LjUiIHg9IjEwOTUuMTMiIHk9IjM3OC43ODkxIj53ZWJob29rPC90ZXh0PjwvZz48IS0tbGluayBDdHJscyB0byBXUy0tPjxnIGNsYXNzPSJsaW5rIiBkYXRhLWVudGl0eS0xPSJDdHJscyIgZGF0YS1lbnRpdHktMj0iV1MiIGRhdGEtc291cmNlLWxpbmU9IjM4IiBkYXRhLXVpZD0ibG5rMjQiIGlkPSJsaW5rX0N0cmxzX1dTIj48cGF0aCBkPSJNOTY3LjU4LDQwMi41IEMxMDE2Ljk1LDQwMi41IDEwNjMsNDAyLjUgMTA2Myw0MDIuNSBDMTA2Myw0MDIuNSAxMDYzLDQ1Mi40MSAxMDYzLDQ4Ni4yNiIgZmlsbD0ibm9uZSIgaWQ9IkN0cmxzLXRvLVdTIiBzdHlsZT0ic3Ryb2tlOiMxODE4MTg7c3Ryb2tlLXdpZHRoOjE7Ii8+PHBvbHlnb24gZmlsbD0iIzE4MTgxOCIgcG9pbnRzPSIxMDYzLDQ5Mi4yNiwxMDY3LDQ4My4yNiwxMDYzLDQ4Ny4yNiwxMDU5LDQ4My4yNiwxMDYzLDQ5Mi4yNiIgc3R5bGU9InN0cm9rZTojMTgxODE4O3N0cm9rZS13aWR0aDoxOyIvPjx0ZXh0IGZpbGw9IiMwMDAwMDAiIGZvbnQtZmFtaWx5PSJzYW5zLXNlcmlmIiBmb250LXNpemU9IjEzIiBsZW5ndGhBZGp1c3Q9InNwYWNpbmciIHRleHRMZW5ndGg9IjMyLjUiIHg9IjEwNjEuMTciIHk9IjQwMC43ODkxIj5lbWl0ZTwvdGV4dD48dGV4dCBmaWxsPSIjMDAwMDAwIiBmb250LWZhbWlseT0ic2Fucy1zZXJpZiIgZm9udC1zaXplPSIxMyIgbGVuZ3RoQWRqdXN0PSJzcGFjaW5nIiB0ZXh0TGVuZ3RoPSI2LjUiIHg9IjEwOTMuNjciIHk9IjQwMC43ODkxIj4mIzE2MDs8L3RleHQ+PHRleHQgZmlsbD0iIzAwMDAwMCIgZm9udC1mYW1pbHk9InNhbnMtc2VyaWYiIGZvbnQtc2l6ZT0iMTMiIGxlbmd0aEFkanVzdD0ic3BhY2luZyIgdGV4dExlbmd0aD0iNjUiIHg9IjExMDAuMTciIHk9IjQwMC43ODkxIj5ldmVuaW1lbnRlPC90ZXh0PjwvZz48IS0tbGluayBDb250cmFjdCB0byBBQkktLT48ZyBjbGFzcz0ibGluayIgZGF0YS1lbnRpdHktMT0iQ29udHJhY3QiIGRhdGEtZW50aXR5LTI9IkFCSSIgZGF0YS1zb3VyY2UtbGluZT0iNDUiIGRhdGEtdWlkPSJsbmsyOCIgaWQ9ImxpbmtfQ29udHJhY3RfQUJJIj48cGF0aCBkPSJNMjU5LDU0Mi43OSBDMjU5LDU2Mi42OSAyNTksNTg0LjQ2IDI1OSw2MDUuNCIgZmlsbD0ibm9uZSIgaWQ9IkNvbnRyYWN0LXRvLUFCSSIgc3R5bGU9InN0cm9rZTojMTgxODE4O3N0cm9rZS13aWR0aDoxOyIvPjxwb2x5Z29uIGZpbGw9IiMxODE4MTgiIHBvaW50cz0iMjU5LDYxMS40LDI2Myw2MDIuNCwyNTksNjA2LjQsMjU1LDYwMi40LDI1OSw2MTEuNCIgc3R5bGU9InN0cm9rZTojMTgxODE4O3N0cm9rZS13aWR0aDoxOyIvPjwvZz48IS0tbGluayBDbGllbnQgdG8gUmVhY3QtLT48ZyBjbGFzcz0ibGluayIgZGF0YS1lbnRpdHktMT0iQ2xpZW50IiBkYXRhLWVudGl0eS0yPSJSZWFjdCIgZGF0YS1zb3VyY2UtbGluZT0iNTIiIGRhdGEtdWlkPSJsbmszMCIgaWQ9ImxpbmtfQ2xpZW50X1JlYWN0Ij48cGF0aCBkPSJNMTI1LDgzLjczIEMxMjUsMTAzLjE4IDEyNSwxMjAuMDggMTI1LDEzNy4xOCIgZmlsbD0ibm9uZSIgaWQ9IkNsaWVudC10by1SZWFjdCIgc3R5bGU9InN0cm9rZTojMTgxODE4O3N0cm9rZS13aWR0aDoxOyIvPjxwb2x5Z29uIGZpbGw9IiMxODE4MTgiIHBvaW50cz0iMTI1LDE0My4xOCwxMjksMTM0LjE4LDEyNSwxMzguMTgsMTIxLDEzNC4xOCwxMjUsMTQzLjE4IiBzdHlsZT0ic3Ryb2tlOiMxODE4MTg7c3Ryb2tlLXdpZHRoOjE7Ii8+PHRleHQgZmlsbD0iIzAwMDAwMCIgZm9udC1mYW1pbHk9InNhbnMtc2VyaWYiIGZvbnQtc2l6ZT0iMTMiIGxlbmd0aEFkanVzdD0ic3BhY2luZyIgdGV4dExlbmd0aD0iMTMiIHg9IjciIHk9IjExMS43NDkxIj5VSTwvdGV4dD48dGV4dCBmaWxsPSIjMDAwMDAwIiBmb250LWZhbWlseT0ic2Fucy1zZXJpZiIgZm9udC1zaXplPSIxMyIgbGVuZ3RoQWRqdXN0PSJzcGFjaW5nIiB0ZXh0TGVuZ3RoPSI2LjUiIHg9IjIwIiB5PSIxMTEuNzQ5MSI+JiMxNjA7PC90ZXh0Pjx0ZXh0IGZpbGw9IiMwMDAwMDAiIGZvbnQtZmFtaWx5PSJzYW5zLXNlcmlmIiBmb250LXNpemU9IjEzIiBsZW5ndGhBZGp1c3Q9InNwYWNpbmciIHRleHRMZW5ndGg9IjYuNSIgeD0iMjYuNSIgeT0iMTExLjc0OTEiPi88L3RleHQ+PHRleHQgZmlsbD0iIzAwMDAwMCIgZm9udC1mYW1pbHk9InNhbnMtc2VyaWYiIGZvbnQtc2l6ZT0iMTMiIGxlbmd0aEFkanVzdD0ic3BhY2luZyIgdGV4dExlbmd0aD0iNi41IiB4PSIzMyIgeT0iMTExLjc0OTEiPiYjMTYwOzwvdGV4dD48dGV4dCBmaWxsPSIjMDAwMDAwIiBmb250LWZhbWlseT0ic2Fucy1zZXJpZiIgZm9udC1zaXplPSIxMyIgbGVuZ3RoQWRqdXN0PSJzcGFjaW5nIiB0ZXh0TGVuZ3RoPSI4NC41IiB4PSIzOS41IiB5PSIxMTEuNzQ5MSI+QXV0ZW50aWZpY2FyZTwvdGV4dD48L2c+PCEtLWxpbmsgSG9zdCB0byBSZWFjdC0tPjxnIGNsYXNzPSJsaW5rIiBkYXRhLWVudGl0eS0xPSJIb3N0IiBkYXRhLWVudGl0eS0yPSJSZWFjdCIgZGF0YS1zb3VyY2UtbGluZT0iNTMiIGRhdGEtdWlkPSJsbmszMSIgaWQ9ImxpbmtfSG9zdF9SZWFjdCI+PHBhdGggZD0iTTE5OSw4My43MyBDMTk5LDEwMy4xOCAxOTksMTIwLjA4IDE5OSwxMzcuMTgiIGZpbGw9Im5vbmUiIGlkPSJIb3N0LXRvLVJlYWN0IiBzdHlsZT0ic3Ryb2tlOiMxODE4MTg7c3Ryb2tlLXdpZHRoOjE7Ii8+PHBvbHlnb24gZmlsbD0iIzE4MTgxOCIgcG9pbnRzPSIxOTksMTQzLjE4LDIwMywxMzQuMTgsMTk5LDEzOC4xOCwxOTUsMTM0LjE4LDE5OSwxNDMuMTgiIHN0eWxlPSJzdHJva2U6IzE4MTgxODtzdHJva2Utd2lkdGg6MTsiLz48L2c+PCEtLWxpbmsgQWRtaW4gdG8gUmVhY3QtLT48ZyBjbGFzcz0ibGluayIgZGF0YS1lbnRpdHktMT0iQWRtaW4iIGRhdGEtZW50aXR5LTI9IlJlYWN0IiBkYXRhLXNvdXJjZS1saW5lPSI1NCIgZGF0YS11aWQ9ImxuazMyIiBpZD0ibGlua19BZG1pbl9SZWFjdCI+PHBhdGggZD0iTTI3OS4yNSw4My43MyBDMjc5LjI1LDEwMy4xOCAyNzkuMjUsMTIwLjA4IDI3OS4yNSwxMzcuMTgiIGZpbGw9Im5vbmUiIGlkPSJBZG1pbi10by1SZWFjdCIgc3R5bGU9InN0cm9rZTojMTgxODE4O3N0cm9rZS13aWR0aDoxOyIvPjxwb2x5Z29uIGZpbGw9IiMxODE4MTgiIHBvaW50cz0iMjc5LjI1LDE0My4xOCwyODMuMjUsMTM0LjE4LDI3OS4yNSwxMzguMTgsMjc1LjI1LDEzNC4xOCwyNzkuMjUsMTQzLjE4IiBzdHlsZT0ic3Ryb2tlOiMxODE4MTg7c3Ryb2tlLXdpZHRoOjE7Ii8+PC9nPjwhLS1saW5rIFJlYWN0IHRvIENvaW5HZWNrby0tPjxnIGNsYXNzPSJsaW5rIiBkYXRhLWVudGl0eS0xPSJSZWFjdCIgZGF0YS1lbnRpdHktMj0iQ29pbkdlY2tvIiBkYXRhLXNvdXJjZS1saW5lPSI1NiIgZGF0YS11aWQ9ImxuazMzIiBpZD0ibGlua19SZWFjdF9Db2luR2Vja28iPjxwYXRoIGQ9Ik0yODIsMTkzLjU1IEMyODIsMjI1LjQ1IDI4MiwyNzYuNSAyODIsMjc2LjUgQzI4MiwyNzYuNSAzMDQuMzYsMjc2LjUgMzMzLjI3LDI3Ni41IiBmaWxsPSJub25lIiBpZD0iUmVhY3QtdG8tQ29pbkdlY2tvIiBzdHlsZT0ic3Ryb2tlOiMxODE4MTg7c3Ryb2tlLXdpZHRoOjE7Ii8+PHBvbHlnb24gZmlsbD0iIzE4MTgxOCIgcG9pbnRzPSIzMzkuMjcsMjc2LjUsMzMwLjI3LDI3Mi41LDMzNC4yNywyNzYuNSwzMzAuMjcsMjgwLjUsMzM5LjI3LDI3Ni41IiBzdHlsZT0ic3Ryb2tlOiMxODE4MTg7c3Ryb2tlLXdpZHRoOjE7Ii8+PHRleHQgZmlsbD0iIzAwMDAwMCIgZm9udC1mYW1pbHk9InNhbnMtc2VyaWYiIGZvbnQtc2l6ZT0iMTMiIGxlbmd0aEFkanVzdD0ic3BhY2luZyIgdGV4dExlbmd0aD0iMjYiIHg9IjI1OS43NSIgeT0iMjc2Ljk0OTEiPnJhdCYjMjU5OzwvdGV4dD48dGV4dCBmaWxsPSIjMDAwMDAwIiBmb250LWZhbWlseT0ic2Fucy1zZXJpZiIgZm9udC1zaXplPSIxMyIgbGVuZ3RoQWRqdXN0PSJzcGFjaW5nIiB0ZXh0TGVuZ3RoPSI2LjUiIHg9IjI4NS43NSIgeT0iMjc2Ljk0OTEiPiYjMTYwOzwvdGV4dD48dGV4dCBmaWxsPSIjMDAwMDAwIiBmb250LWZhbWlseT0ic2Fucy1zZXJpZiIgZm9udC1zaXplPSIxMyIgbGVuZ3RoQWRqdXN0PSJzcGFjaW5nIiB0ZXh0TGVuZ3RoPSIxOS41IiB4PSIyOTIuMjUiIHk9IjI3Ni45NDkxIj5FVEg8L3RleHQ+PHRleHQgZmlsbD0iIzAwMDAwMCIgZm9udC1mYW1pbHk9InNhbnMtc2VyaWYiIGZvbnQtc2l6ZT0iMTMiIGxlbmd0aEFkanVzdD0ic3BhY2luZyIgdGV4dExlbmd0aD0iNi41IiB4PSIzMTEuNzUiIHk9IjI3Ni45NDkxIj4mIzE2MDs8L3RleHQ+PHRleHQgZmlsbD0iIzAwMDAwMCIgZm9udC1mYW1pbHk9InNhbnMtc2VyaWYiIGZvbnQtc2l6ZT0iMTMiIGxlbmd0aEFkanVzdD0ic3BhY2luZyIgdGV4dExlbmd0aD0iNi41IiB4PSIzMTguMjUiIHk9IjI3Ni45NDkxIj4mIzg1OTY7PC90ZXh0Pjx0ZXh0IGZpbGw9IiMwMDAwMDAiIGZvbnQtZmFtaWx5PSJzYW5zLXNlcmlmIiBmb250LXNpemU9IjEzIiBsZW5ndGhBZGp1c3Q9InNwYWNpbmciIHRleHRMZW5ndGg9IjYuNSIgeD0iMzI0Ljc1IiB5PSIyNzYuOTQ5MSI+JiMxNjA7PC90ZXh0Pjx0ZXh0IGZpbGw9IiMwMDAwMDAiIGZvbnQtZmFtaWx5PSJzYW5zLXNlcmlmIiBmb250LXNpemU9IjEzIiBsZW5ndGhBZGp1c3Q9InNwYWNpbmciIHRleHRMZW5ndGg9IjE5LjUiIHg9IjMzMS4yNSIgeT0iMjc2Ljk0OTEiPlJPTjwvdGV4dD48L2c+PCEtLWxpbmsgUmVhY3QgdG8gU3RyaXBlLS0+PGcgY2xhc3M9ImxpbmsiIGRhdGEtZW50aXR5LTE9IlJlYWN0IiBkYXRhLWVudGl0eS0yPSJTdHJpcGUiIGRhdGEtc291cmNlLWxpbmU9IjU3IiBkYXRhLXVpZD0ibG5rMzQiIGlkPSJsaW5rX1JlYWN0X1N0cmlwZSI+PHBhdGggZD0iTTMwNy40OCwxNjAuNSBDNTc1LjkzLDE2MC41IDEyNDkuNjcsMTYwLjUgMTI0OS42NywxNjAuNSBDMTI0OS42NywxNjAuNSAxMjQ5LjY3LDQyMS43NiAxMjQ5LjY3LDQ5My44IiBmaWxsPSJub25lIiBpZD0iUmVhY3QtdG8tU3RyaXBlIiBzdHlsZT0ic3Ryb2tlOiMxODE4MTg7c3Ryb2tlLXdpZHRoOjE7Ii8+PHBvbHlnb24gZmlsbD0iIzE4MTgxOCIgcG9pbnRzPSIxMjQ5LjY3LDQ5OS44LDEyNTMuNjcsNDkwLjgsMTI0OS42Nyw0OTQuOCwxMjQ1LjY3LDQ5MC44LDEyNDkuNjcsNDk5LjgiIHN0eWxlPSJzdHJva2U6IzE4MTgxODtzdHJva2Utd2lkdGg6MTsiLz48dGV4dCBmaWxsPSIjMDAwMDAwIiBmb250LWZhbWlseT0ic2Fucy1zZXJpZiIgZm9udC1zaXplPSIxMyIgbGVuZ3RoQWRqdXN0PSJzcGFjaW5nIiB0ZXh0TGVuZ3RoPSIzOSIgeD0iODUwLjIyIiB5PSIxNTguNzg5MSI+U3RyaXBlPC90ZXh0Pjx0ZXh0IGZpbGw9IiMwMDAwMDAiIGZvbnQtZmFtaWx5PSJzYW5zLXNlcmlmIiBmb250LXNpemU9IjEzIiBsZW5ndGhBZGp1c3Q9InNwYWNpbmciIHRleHRMZW5ndGg9IjYuNSIgeD0iODg5LjIyIiB5PSIxNTguNzg5MSI+JiMxNjA7PC90ZXh0Pjx0ZXh0IGZpbGw9IiMwMDAwMDAiIGZvbnQtZmFtaWx5PSJzYW5zLXNlcmlmIiBmb250LXNpemU9IjEzIiBsZW5ndGhBZGp1c3Q9InNwYWNpbmciIHRleHRMZW5ndGg9IjUyIiB4PSI4OTUuNzIiIHk9IjE1OC43ODkxIj5DaGVja291dDwvdGV4dD48L2c+PCEtLWxpbmsgUmVhY3QgdG8gU2VydmVyLS0+PGcgY2xhc3M9ImxpbmsiIGRhdGEtZW50aXR5LTE9IlJlYWN0IiBkYXRhLWVudGl0eS0yPSJTZXJ2ZXIiIGRhdGEtc291cmNlLWxpbmU9IjU4IiBkYXRhLXVpZD0ibG5rMzUiIGlkPSJsaW5rX1JlYWN0X1NlcnZlciI+PHBhdGggZD0iTTMwNy4yLDE3Ny41IEM0MjQuMTQsMTc3LjUgNTk0LDE3Ny41IDU5NCwxNzcuNSBDNTk0LDE3Ny41IDU5NCwyMjQuMDYgNTk0LDI1Mi4zOSIgZmlsbD0ibm9uZSIgaWQ9IlJlYWN0LXRvLVNlcnZlciIgc3R5bGU9InN0cm9rZTojMTgxODE4O3N0cm9rZS13aWR0aDoxOyIvPjxwb2x5Z29uIGZpbGw9IiMxODE4MTgiIHBvaW50cz0iNTk0LDI1OC4zOSw1OTgsMjQ5LjM5LDU5NCwyNTMuMzksNTkwLDI0OS4zOSw1OTQsMjU4LjM5IiBzdHlsZT0ic3Ryb2tlOiMxODE4MTg7c3Ryb2tlLXdpZHRoOjE7Ii8+PHRleHQgZmlsbD0iIzAwMDAwMCIgZm9udC1mYW1pbHk9InNhbnMtc2VyaWYiIGZvbnQtc2l6ZT0iMTMiIGxlbmd0aEFkanVzdD0ic3BhY2luZyIgdGV4dExlbmd0aD0iMjYiIHg9IjQxOS4wNCIgeT0iMTc1Ljc4OTEiPlJFU1Q8L3RleHQ+PHRleHQgZmlsbD0iIzAwMDAwMCIgZm9udC1mYW1pbHk9InNhbnMtc2VyaWYiIGZvbnQtc2l6ZT0iMTMiIGxlbmd0aEFkanVzdD0ic3BhY2luZyIgdGV4dExlbmd0aD0iNi41IiB4PSI0NDUuMDQiIHk9IjE3NS43ODkxIj4mIzE2MDs8L3RleHQ+PHRleHQgZmlsbD0iIzAwMDAwMCIgZm9udC1mYW1pbHk9InNhbnMtc2VyaWYiIGZvbnQtc2l6ZT0iMTMiIGxlbmd0aEFkanVzdD0ic3BhY2luZyIgdGV4dExlbmd0aD0iMzkiIHg9IjQ1MS41NCIgeT0iMTc1Ljc4OTEiPi9hcGkvKjwvdGV4dD48L2c+PCEtLWxpbmsgTWV0YU1hc2sgdG8gQ29udHJhY3QtLT48ZyBjbGFzcz0ibGluayIgZGF0YS1lbnRpdHktMT0iTWV0YU1hc2siIGRhdGEtZW50aXR5LTI9IkNvbnRyYWN0IiBkYXRhLXNvdXJjZS1saW5lPSI2MCIgZGF0YS11aWQ9ImxuazM2IiBpZD0ibGlua19NZXRhTWFza19Db250cmFjdCI+PHBhdGggZD0iTTIxNCwyOTguNzIgQzIxNCwzNDMuOTMgMjE0LDQzOC44NSAyMTQsNDg2LjE0IiBmaWxsPSJub25lIiBpZD0iTWV0YU1hc2stdG8tQ29udHJhY3QiIHN0eWxlPSJzdHJva2U6IzE4MTgxODtzdHJva2Utd2lkdGg6MTsiLz48cG9seWdvbiBmaWxsPSIjMTgxODE4IiBwb2ludHM9IjIxNCw0OTIuMTQsMjE4LDQ4My4xNCwyMTQsNDg3LjE0LDIxMCw0ODMuMTQsMjE0LDQ5Mi4xNCIgc3R5bGU9InN0cm9rZTojMTgxODE4O3N0cm9rZS13aWR0aDoxOyIvPjx0ZXh0IGZpbGw9IiMwMDAwMDAiIGZvbnQtZmFtaWx5PSJzYW5zLXNlcmlmIiBmb250LXNpemU9IjEzIiBsZW5ndGhBZGp1c3Q9InNwYWNpbmciIHRleHRMZW5ndGg9IjEzIiB4PSIxNjEiIHk9IjM5My43MTkxIj50eDwvdGV4dD48dGV4dCBmaWxsPSIjMDAwMDAwIiBmb250LWZhbWlseT0ic2Fucy1zZXJpZiIgZm9udC1zaXplPSIxMyIgbGVuZ3RoQWRqdXN0PSJzcGFjaW5nIiB0ZXh0TGVuZ3RoPSI2LjUiIHg9IjE3NCIgeT0iMzkzLjcxOTEiPiYjMTYwOzwvdGV4dD48dGV4dCBmaWxsPSIjMDAwMDAwIiBmb250LWZhbWlseT0ic2Fucy1zZXJpZiIgZm9udC1zaXplPSIxMyIgbGVuZ3RoQWRqdXN0PSJzcGFjaW5nIiB0ZXh0TGVuZ3RoPSIzMi41IiB4PSIxODAuNSIgeT0iMzkzLjcxOTEiPnBheSgpPC90ZXh0PjwvZz48IS0tbGluayBDdHJscyB0byBDb250cmFjdC0tPjxnIGNsYXNzPSJsaW5rIiBkYXRhLWVudGl0eS0xPSJDdHJscyIgZGF0YS1lbnRpdHktMj0iQ29udHJhY3QiIGRhdGEtc291cmNlLWxpbmU9IjYyIiBkYXRhLXVpZD0ibG5rMzciIGlkPSJsaW5rX0N0cmxzX0NvbnRyYWN0Ij48cGF0aCBkPSJNNzMwLjI5LDQxOC41IEM1ODYuNjQsNDE4LjUgMzYzLjc1LDQxOC41IDM2My43NSw0MTguNSBDMzYzLjc1LDQxOC41IDM2My43NSw0NTYuOTMgMzYzLjc1LDQ4Ni4yNiIgZmlsbD0ibm9uZSIgaWQ9IkN0cmxzLXRvLUNvbnRyYWN0IiBzdHlsZT0ic3Ryb2tlOiMxODE4MTg7c3Ryb2tlLXdpZHRoOjE7Ii8+PHBvbHlnb24gZmlsbD0iIzE4MTgxOCIgcG9pbnRzPSIzNjMuNzUsNDkyLjI2LDM2Ny43NSw0ODMuMjYsMzYzLjc1LDQ4Ny4yNiwzNTkuNzUsNDgzLjI2LDM2My43NSw0OTIuMjYiIHN0eWxlPSJzdHJva2U6IzE4MTgxODtzdHJva2Utd2lkdGg6MTsiLz48dGV4dCBmaWxsPSIjMDAwMDAwIiBmb250LWZhbWlseT0ic2Fucy1zZXJpZiIgZm9udC1zaXplPSIxMyIgbGVuZ3RoQWRqdXN0PSJzcGFjaW5nIiB0ZXh0TGVuZ3RoPSI1OC41IiB4PSI0NTEuMTQiIHk9IjQzMS43ODkxIj5FdGhlcnMuanM8L3RleHQ+PC9nPjwhLS1TUkM9W1JMSkRSWENuNEJ4bEt1bm9lT0wyLUprV0kyMWphcjhBdEw5Yk0tTDBFS250ZnVjOXJyeFAzY2MzYTkwZ1NLVllua2xxbTdGbTk4cGpKUjlCd0k2clB4d1R5SlZwcFRvM2J3aV9vOXNHYy1sQm5DdzRnajVXMU9Na1FncjhrVG5USW05M1hLQ3JhVEkyNjNyTlBRNkQ4V0NsTWRPeG5MOGxYOWcwQ19GczFtazN6TFlLUldmRmRwemtzS2t3bkJicWZ0SmJLWWFjZ2tBcUtGMEZjSFFnbWdrQ2hDSzl2TTk5eUVIZkV1R0tZam5ySlEyRGMtZWFrVFNZY0hQRTZ6NmNZVHUybE80S2RBRzdRMjRVTHV1M045UXREeTduSGprckVJcWhlT0hyMWxhUWxDN0lwVlJRUUVOLVZGajFnY29kTEJlYXdFcVBsUjFTaGJ0OHo4TUc4U1JBellNMUpUS3ZNSXI1V1J6XzJPOEh5R0NXRnFkRkxKb0V6OW5oaW1DM0ppTDVzdTZmclpDUmVXTTBab0pybDhIVUhXdXBqQkZXTXJ0TzdVQ3lWRlhnUk9HLU1BZUt1VkJzWFhrN1FlYzVwdHdramxSVGI4bnp6Q2JrOXIteFBGVW1jN2NZTV9qTmpVN2NSRC1iZDl1U3RlTDV1ZXRMNF8tR2FfZENITVcwN3hxX2NoZkxvS0hQSWJnV3VOVXo3UF9rR0NSMnlRS3U0ZkxtUjhPSGtnUHJzUlp4aFEtTXFMQUlfdFhoSURPOXZHaWlrOTJValU3M1k5UVNEUHhGVTNaNHFsU3dFNVlHSXV5emFSU3RfNU5hQzcxNk1hdkplaUNCakNtdHFzZ1lYdGtHRWVjbjlTN0lWS2hrWjYybnZpRHR5MDM2VEU3eDV4M0hxR0tWU25xaDVGbmsxZVRVNDRSZlBDN0F3NGlqSXRSdFhpOEZBY2xyaDlPUUl5aXlULVZuMjctIC1fdUp5TU5uc3UteGN1TlZhY2JsWXBqTW5UazlJNUJ1RTBKX0U2VGdxQThYY3RCc2xvWDMtSHFIM1VjRlB2Nm9YOGdxLTJ5eHRabzBHeEsyUUtsTTFTeUt0bUk4TWgwQ1J2bW9YNkVDcEFVNXQyRHNIZ3NILW5ISTVRa2txNlBLWkxCel8wSURHbVc0Z0JBT0tNbnBtX3FuZE5nN25LcnZ1SlZiSEVpNWhkdEJHdDF6UEJSZHVETHhaWFFHVFVCekdfajI4Zlc1clRCRUFENkdCWnZmTXZvaFRFLUlFZm9MRkgyRGZqZFpNZ3dJVWszVnpHekN0SFhIMjBFeTZ1bE55N3g5LUFXVFFnMENnUGhmdkw3RmhuWmdZb1VzRGN4VnRQbkFOUFNXVXpxV1ZwV3Z2ZndNeWJMR0czV3pZdVpWZDFmRTRMVGN3OXZpTGo0eERXT21WTnpXX1ZIRnFFZGZfdENBamZUMFMxYkZfcVRvcjhMNkpWSFpqdndVbVl4Tk9sUHlhd25xTmlwTkxPekxUME5UZVFwajlEYTlna1RUeHhveTBdLS0+PC9nPjwvc3ZnPg==;" vertex="1" parent="1">
            <mxGeometry x="-238" y="740" width="1336" height="709" as="geometry" />
          </mxCell>
        </UserObject>
      </root>
    </mxGraphModel>
  </diagram>
</mxfile>
